<?xml version="1.0" encoding="utf-8"?>
<!-- Generator: Adobe Illustrator 16.0.4, SVG Export Plug-In . SVG Version: 6.00 Build 0)  -->
<!DOCTYPE svg PUBLIC "-//W3C//DTD SVG 1.1//EN" "http://www.w3.org/Graphics/SVG/1.1/DTD/svg11.dtd" [
	<!ENTITY st0 "fill:#47261C;">
	<!ENTITY st1 "fill:#FFFFFF;stroke:#000000;stroke-miterlimit:10;">
	<!ENTITY st2 "fill:#4D54AA;">
	<!ENTITY st3 "fill:#E84D7A;">
	<!ENTITY st4 "fill:#E8E4E3;">
	<!ENTITY st5 "fill:#E8E6D9;">
	<!ENTITY st6 "fill:#E8E6E6;">
	<!ENTITY st7 "fill:#B0F7B0;">
	<!ENTITY st8 "fill:#B2063F;">
	<!ENTITY st9 "fill:#EA8894;">
	<!ENTITY st10 "fill:#EAEADC;">
	<!ENTITY st11 "display:inline;fill:#8BC9AE;">
	<!ENTITY st12 "fill:#1E1B1B;">
	<!ENTITY st13 "fill:#EDC2BC;">
	<!ENTITY st14 "fill:none;stroke:#594947;stroke-miterlimit:10;">
	<!ENTITY st15 "opacity:0.7;fill:#EA2121;">
	<!ENTITY st16 "fill:#58586E;">
	<!ENTITY st17 "fill:#F2F2F2;">
	<!ENTITY st18 "opacity:0.6;fill:#DD5858;">
	<!ENTITY st19 "fill:#F4B298;">
	<!ENTITY st20 "opacity:0.5;fill:none;stroke:#AD9D97;stroke-width:0.25;stroke-miterlimit:10;">
	<!ENTITY st21 "fill:#5B545D;">
	<!ENTITY st22 "fill:#F6F7E8;">
	<!ENTITY st23 "fill:#F7F47F;">
	<!ENTITY st24 "fill:#F9D8CD;">
	<!ENTITY st25 "fill:#F9F9F9;">
	<!ENTITY st26 "fill:url(#SVGID_1_);">
	<!ENTITY st27 "fill:#C6BDBD;">
	<!ENTITY st28 "opacity:0.6;fill:#E06363;">
	<!ENTITY st29 "opacity:0.6;fill:#E06C6C;">
	<!ENTITY st30 "stroke:#FFFFFF;stroke-miterlimit:10;">
	<!ENTITY st31 "fill:#FBC823;">
	<!ENTITY st32 "fill:#FCCF17;">
	<!ENTITY st33 "fill:#FCEB70;">
	<!ENTITY st34 "fill:#FD5D47;">
	<!ENTITY st35 "fill:#FEA210;">
	<!ENTITY st36 "fill:#FEA32B;">
	<!ENTITY st37 "fill:#FECE17;">
	<!ENTITY st38 "fill:#FF846E;">
	<!ENTITY st39 "fill:#FFF1D9;">
	<!ENTITY st40 "fill:#FFFDFD;">
	<!ENTITY st41 "fill:#FFFFFF;">
	<!ENTITY st42 "opacity:0.6;fill:#E88080;">
	<!ENTITY st43 "fill:none;">
	<!ENTITY st44 "fill:#312839;">
	<!ENTITY st45 "opacity:0.6;fill:#EA8894;">
	<!ENTITY st46 "fill:#357A81;">
	<!ENTITY st47 "fill:#359783;">
	<!ENTITY st48 "fill:#6EA5DD;">
	<!ENTITY st49 "opacity:0.3;fill:#EA2121;">
	<!ENTITY st50 "fill:#FFFFFF;stroke:#FFFFFF;stroke-miterlimit:10;">
	<!ENTITY st51 "fill:#FFFFFF;stroke:#594947;stroke-miterlimit:10;">
	<!ENTITY st52 "fill:#D3D3D3;">
	<!ENTITY st53 "fill:#D6D5C4;">
	<!ENTITY st54 "opacity:0.4;fill:#CECECE;">
	<!ENTITY st55 "fill:#D8D6D6;">
	<!ENTITY st56 "fill:#3E7F59;">
	<!ENTITY st57 "opacity:0.5;fill:#6B0A1D;stroke:#68121D;stroke-width:0.5;stroke-miterlimit:10;">
	<!ENTITY st58 "fill:#707185;">
	<!ENTITY st59 "display:none;">
	<!ENTITY st60 "fill:#A4200E;">
	<!ENTITY st61 "fill:#A55D2C;">
	<!ENTITY st62 "fill:#DD5067;">
	<!ENTITY st63 "fill:#DDDACE;">
	<!ENTITY st64 "fill:#433B4B;">
]>
<svg version="1.1" xmlns="http://www.w3.org/2000/svg" xmlns:xlink="http://www.w3.org/1999/xlink" x="0px" y="0px"
	 width="725.95px" height="382.404px" viewBox="0 0 725.95 382.404" style="enable-background:new 0 0 725.95 382.404;"
	 xml:space="preserve">
<g id="图层_13" style="&st59;">
	<rect x="-53.921" y="-187.803" style="&st11;" width="841.89" height="595.28"/>
</g>
<g id="图层_12">
	<rect x="470.492" style="&st61;" width="105.258" height="138.739"/>
	<rect x="478.255" y="10.261" style="&st41;" width="89.689" height="118.216"/>
	<g>
		<path style="&st54;" d="M552.552,114.304c0,5.304-13.188,9.604-29.45,9.604c-16.267,0-29.455-4.3-29.455-9.604
			c0-5.303,13.188-9.604,29.455-9.604C539.365,104.7,552.552,109.001,552.552,114.304z"/>
		<path d="M548.708,44.068c0-0.08-0.032-0.158-0.093-0.234c-0.06-0.075-0.147-0.147-0.259-0.217
			c-0.293-0.992-1.825-1.922-3.085-2.783c-0.183-0.106-0.375-0.211-0.564-0.315c-0.188-0.104-0.377-0.207-0.566-0.309
			c-0.191-0.102-0.386-0.201-0.587-0.3c-1.003-0.493-2.127-0.951-3.355-1.363c-1.229-0.413-2.562-0.78-3.983-1.102
			c-7.271-1.703-17.216-2.168-24.706-0.322c-0.761,0.157-1.5,0.332-2.213,0.522c-5.214,1.91-10.531,4.421-11.559,7.318
			c-0.035,0.278-0.05,0.556-0.052,0.833c-0.018,1.39,0.277,2.791,0.098,4.199c0.006,0.332,0.011,0.665,0.017,0.998
			c0.035,1.997,0.018,3.995-0.053,5.919c0,0.445,0,0.872,0,1.273c0,2.01,0,3.412,0,3.412c0,0.02,0.01,0.039,0.013,0.059
			c-0.003,0.036-0.013,0.072-0.013,0.108c0,3.537,11.411,6.404,25.481,6.404c0.878,0,1.749-0.011,2.604-0.033
			c0.856-0.021,1.701-0.054,2.532-0.094c4.144-0.113,8.303-0.486,12.094-1.32c0.815-0.168,1.604-0.355,2.342-0.56
			c3.696-1.025,6.245-2.515,5.907-4.564c0,0,0-0.274,0-0.753C548.708,57.488,548.708,44.068,548.708,44.068z"/>
		<path style="&st3;" d="M540.982,73.099c-1.099-2.891-2.522-5.541-4.338-7.767c-0.169-0.207-0.34-0.41-0.517-0.609
			c-0.136-0.156-1.584-1.634-2.22-2.156c-0.538-0.464-1.105-0.885-1.692-1.261c-0.784-0.476-1.598-0.877-2.429-1.204
			c-0.833-0.326-1.686-0.58-2.554-0.764c-0.79-0.122-1.589-0.197-2.391-0.226c-0.803-0.029-1.606-0.013-2.408,0.049
			c-1.01-0.125-1.973-0.161-2.877-0.121c-0.579,0.038-1.148,0.108-1.709,0.21c-0.559,0.102-1.111,0.233-1.646,0.398
			c-7.499,3.321-10.273,12.334-12.879,19.374c-0.218,0.852-0.424,1.717-0.622,2.59c-2.158,9.611-2.908,20.336,2.463,28.003
			c0.489,0.697,1.027,1.367,1.628,1.98c0.422,0.339,0.86,0.658,1.318,0.952c0.682,0.38,1.383,0.722,2.1,1.028
			c0.715,0.309,1.445,0.578,2.187,0.818c7.862,1.727,16.876,2.417,24.309-1.167c0.507-0.286,0.997-0.603,1.472-0.947
			c0.476-0.346,0.934-0.722,1.374-1.128c0.379-0.374,0.736-0.766,1.077-1.176c0.685-0.818,1.295-1.708,1.815-2.668
			c0.435-0.803,0.808-1.645,1.107-2.522c0.303-0.879,0.536-1.793,0.693-2.741c0.132-0.739,0.226-1.49,0.286-2.251
			c0.301-3.8-0.206-7.816-0.409-11.472c-0.054-0.738-0.123-1.471-0.204-2.204c-0.408-3.649-1.142-7.274-2.136-10.707
			C541.535,74.625,541.272,73.854,540.982,73.099z"/>
		<path style="&st19;" d="M519.639,80.994c2.469-6.005,7.783-10.396,12.791-14.573c0.678-0.568,1.314-1.118,1.872-1.691
			c1.663-1.709,2.597-3.637,1.904-6.151c-1.157-3.698-8.32,0.462-12.931-0.073c-0.575,0.079-1.146,0.167-1.715,0.263
			c-2.85,0.482-5.658,1.186-8.467,2.122c-0.232,0,0,1.156,0,1.85c-0.694,3.929-3.234,7.395-2.989,11.299
			c-0.018,1.119-0.018,2.162-0.018,3.056c0,1.788,0,2.979,0,2.979s0.595,0.043,1.48,0.108c0.444,0.034,0.966,0.073,1.521,0.12
			c1.623,0.003,3.47,0.697,5.054,0.526C519.042,80.928,519.639,80.994,519.639,80.994z"/>
		<g>
			<path style="&st9;" d="M501.094,90.341c-0.01-0.011-0.02-0.021-0.027-0.033c0,0.005,0,0.011,0,0.015
				c0.008,0.006,0.018,0.013,0.025,0.02C501.092,90.342,501.092,90.341,501.094,90.341z"/>
			<path style="&st9;" d="M541.701,101.058c-0.199-0.779-0.446-1.554-0.725-2.315c-0.838-2.283-1.98-4.44-3.098-6.187
				c-0.443-0.698-0.919-1.382-1.4-2.055c-3.97-5.805-9.056-10.658-13.56-16.009c-0.507-0.56-1.02-1.114-1.534-1.663
				c-2.589-2.741-5.323-5.33-8.364-7.734c-0.652-0.574-1.299-1.149-1.959-1.702c-0.313,0.124-0.632,0.33-0.958,0.617
				c-0.407,0.565-0.808,1.128-1.202,1.697c-2.475,3.622-4.126,7.729-5.415,11.92c0.164,0.094,0.421,0.681,0.26,0.88
				c0.235-0.292,1.532-0.206,0.714,0.047c0.818-0.252-0.038,0.724-0.473,0.538c0.435,0.187,0.753,1.445,0.178,0.692
				c0.575,0.753-0.618,0.24-0.659-0.282c0.041,0.521-1.057,1.213-0.604,0.38c-0.04,0.073-0.074,0.126-0.105,0.169
				c-0.065,0.25-0.132,0.499-0.195,0.75c-0.771,2.725-1.245,5.545-1.463,8.408c0.14-0.313,0.325-0.421,0.369,0.145
				c-0.092-1.199,0.91,0.488,0.553,0.928c0.357-0.439,2.313-0.309,1.077,0.072c1.236-0.381-0.059,1.093-0.71,0.811
				c0.651,0.282,1.137,2.184,0.263,1.046c0.874,1.137-0.931,0.362-0.991-0.425c0.032,0.398-0.377,0.861-0.7,1.061
				c-0.006,2.226,0.128,4.462,0.397,6.686c0.221-0.852,0.713-1.491,0.81-0.244c-0.16-2.08,1.58,0.848,0.96,1.611
				c0.62-0.763,4.02-0.537,1.869,0.125c2.15-0.662-0.098,1.897-1.233,1.409c1.136,0.488,1.973,3.79,0.458,1.817
				c1.515,1.972-1.615,0.628-1.721-0.742c0.022,0.29-0.09,0.598-0.268,0.885c0.198,0.848,0.333,1.33,0.333,1.33
				c0.516,1.42,1.168,2.668,1.916,3.768c0.375,0.55,0.772,1.062,1.19,1.538c0.575,0.533,1.184,1.019,1.815,1.462
				c0.695,0.433,1.406,0.817,2.133,1.158c0.725,0.341,1.464,0.64,2.214,0.898c0.885,0.182,1.789,0.359,2.708,0.522
				c0.92,0.165,1.853,0.318,2.798,0.449c8.197,1.303,18.136,0.608,23.165-6.538c0.367-0.564,0.677-1.157,0.922-1.774
				C542.205,105.355,542.365,103.281,541.701,101.058z"/>
			<path style="&st9;" d="M503.355,78.982l-0.244-0.079c-0.018,0.056-0.032,0.112-0.05,0.169c0,0.001,0.004,0.001,0.006,0.004
				L503.355,78.982z"/>
			<path style="&st9;" d="M503.355,78.982l-0.244-0.079c-0.018,0.056-0.032,0.112-0.05,0.169c0,0.001,0.004,0.001,0.006,0.004
				L503.355,78.982z"/>
			<path style="&st9;" d="M503.237,78.657l0.178,0.244V78.6c-0.034-0.011-0.06-0.044-0.06-0.082c0-0.048,0.039-0.086,0.085-0.086
				c0.048,0,0.086,0.038,0.086,0.086c0,0.038-0.023,0.071-0.06,0.082v0.301l0.177-0.244c-0.02-0.029-0.023-0.07,0-0.102
				c0.028-0.038,0.083-0.047,0.123-0.019c0.037,0.027,0.046,0.081,0.018,0.12c-0.022,0.032-0.06,0.043-0.098,0.032l-0.178,0.243
				l0.287-0.092c0-0.037,0.025-0.071,0.06-0.083c0.046-0.015,0.095,0.009,0.108,0.055c0.016,0.046-0.008,0.095-0.054,0.108
				c-0.038,0.013-0.074,0-0.098-0.03l-0.286,0.092l0.286,0.094c0.023-0.03,0.06-0.044,0.098-0.033
				c0.046,0.015,0.069,0.063,0.054,0.11c-0.014,0.045-0.062,0.071-0.108,0.055c-0.034-0.013-0.06-0.046-0.06-0.083l-0.287-0.093
				l0.178,0.244c0.038-0.012,0.075,0.001,0.098,0.031c0.028,0.039,0.02,0.093-0.018,0.122c-0.04,0.028-0.095,0.019-0.123-0.02
				c-0.023-0.032-0.02-0.072,0-0.103l-0.177-0.243v0.301c0.036,0.011,0.06,0.043,0.06,0.083c0,0.02-0.008,0.039-0.021,0.053
				c0.041,0.521,1.234,1.035,0.659,0.282c0.575,0.753,0.257-0.505-0.178-0.692c0.435,0.187,1.291-0.79,0.473-0.538
				c0.818-0.252-0.479-0.338-0.714-0.047c0.161-0.2-0.096-0.786-0.26-0.88c-0.056,0.182-0.109,0.362-0.163,0.543
				c-0.038,0.122-0.072,0.245-0.105,0.367c0.006,0.004,0.014,0.011,0.02,0.018C503.259,78.587,503.256,78.627,503.237,78.657z"/>
			<path style="&st9;" d="M503.237,78.657l0.178,0.244V78.6c-0.034-0.011-0.06-0.044-0.06-0.082c0-0.048,0.039-0.086,0.085-0.086
				c0.048,0,0.086,0.038,0.086,0.086c0,0.038-0.023,0.071-0.06,0.082v0.301l0.177-0.244c-0.02-0.029-0.023-0.07,0-0.102
				c0.028-0.038,0.083-0.047,0.123-0.019c0.037,0.027,0.046,0.081,0.018,0.12c-0.022,0.032-0.06,0.043-0.098,0.032l-0.178,0.243
				l0.287-0.092c0-0.037,0.025-0.071,0.06-0.083c0.046-0.015,0.095,0.009,0.108,0.055c0.016,0.046-0.008,0.095-0.054,0.108
				c-0.038,0.013-0.074,0-0.098-0.03l-0.286,0.092l0.286,0.094c0.023-0.03,0.06-0.044,0.098-0.033
				c0.046,0.015,0.069,0.063,0.054,0.11c-0.014,0.045-0.062,0.071-0.108,0.055c-0.034-0.013-0.06-0.046-0.06-0.083l-0.287-0.093
				l0.178,0.244c0.038-0.012,0.075,0.001,0.098,0.031c0.028,0.039,0.02,0.093-0.018,0.122c-0.04,0.028-0.095,0.019-0.123-0.02
				c-0.023-0.032-0.02-0.072,0-0.103l-0.177-0.243v0.301c0.036,0.011,0.06,0.043,0.06,0.083c0,0.02-0.008,0.039-0.021,0.053
				c0.041,0.521,1.234,1.035,0.659,0.282c0.575,0.753,0.257-0.505-0.178-0.692c0.435,0.187,1.291-0.79,0.473-0.538
				c0.818-0.252-0.479-0.338-0.714-0.047c0.161-0.2-0.096-0.786-0.26-0.88c-0.056,0.182-0.109,0.362-0.163,0.543
				c-0.038,0.122-0.072,0.245-0.105,0.367c0.006,0.004,0.014,0.011,0.02,0.018C503.259,78.587,503.256,78.627,503.237,78.657z"/>
			<path style="&st9;" d="M503.193,78.688c-0.008,0.002-0.014,0-0.02,0c-0.017,0.055-0.03,0.109-0.048,0.165l0.245,0.079
				L503.193,78.688z"/>
			<path style="&st9;" d="M503.193,78.688c-0.008,0.002-0.014,0-0.02,0c-0.017,0.055-0.03,0.109-0.048,0.165l0.245,0.079
				L503.193,78.688z"/>
			<path style="&st9;" d="M503.505,79.502c-0.014,0.02-0.037,0.033-0.065,0.033c-0.046,0-0.085-0.039-0.085-0.086
				c0-0.04,0.025-0.072,0.06-0.083v-0.301l-0.178,0.243c0.02,0.03,0.022,0.071,0,0.103c-0.028,0.039-0.083,0.047-0.12,0.02
				c-0.04-0.029-0.05-0.083-0.02-0.122c0.022-0.03,0.062-0.043,0.096-0.031l0.178-0.244l-0.286,0.093c0,0.036-0.023,0.07-0.06,0.083
				l-0.003,0c-0.078,0.28-0.152,0.561-0.226,0.842c0.031-0.043,0.065-0.096,0.105-0.169
				C502.449,80.715,503.546,80.023,503.505,79.502z"/>
			<path style="&st9;" d="M503.505,79.502c-0.014,0.02-0.037,0.033-0.065,0.033c-0.046,0-0.085-0.039-0.085-0.086
				c0-0.04,0.025-0.072,0.06-0.083v-0.301l-0.178,0.243c0.02,0.03,0.022,0.071,0,0.103c-0.028,0.039-0.083,0.047-0.12,0.02
				c-0.04-0.029-0.05-0.083-0.02-0.122c0.022-0.03,0.062-0.043,0.096-0.031l0.178-0.244l-0.286,0.093c0,0.036-0.023,0.07-0.06,0.083
				l-0.003,0c-0.078,0.28-0.152,0.561-0.226,0.842c0.031-0.043,0.065-0.096,0.105-0.169
				C502.449,80.715,503.546,80.023,503.505,79.502z"/>
			<polygon style="&st45;" points="503.108,78.545 503.105,78.55 503.117,78.557 			"/>
			<path style="&st9;" d="M503.084,79.126l0.286-0.093l-0.178,0.244c-0.033-0.012-0.073,0.001-0.096,0.031
				c-0.03,0.039-0.021,0.093,0.02,0.122c0.037,0.028,0.092,0.019,0.12-0.02c0.022-0.032,0.02-0.072,0-0.103l0.178-0.243v0.301
				c-0.034,0.011-0.06,0.043-0.06,0.083c0,0.047,0.039,0.086,0.085,0.086c0.028,0,0.052-0.014,0.065-0.033
				c0.013-0.014,0.021-0.033,0.021-0.053c0-0.04-0.023-0.072-0.06-0.083v-0.301l0.177,0.243c-0.02,0.03-0.023,0.071,0,0.103
				c0.028,0.039,0.083,0.047,0.123,0.02c0.037-0.029,0.046-0.083,0.018-0.122c-0.022-0.03-0.06-0.043-0.098-0.031l-0.178-0.244
				l0.287,0.093c0,0.036,0.025,0.07,0.06,0.083c0.046,0.016,0.095-0.01,0.108-0.055c0.016-0.046-0.008-0.095-0.054-0.11
				c-0.038-0.012-0.074,0.003-0.098,0.033l-0.286-0.094l0.286-0.092c0.023,0.029,0.06,0.043,0.098,0.03
				c0.046-0.013,0.069-0.062,0.054-0.108c-0.014-0.046-0.062-0.07-0.108-0.055c-0.034,0.011-0.06,0.046-0.06,0.083l-0.287,0.092
				l0.178-0.243c0.038,0.011,0.075,0,0.098-0.032c0.028-0.039,0.02-0.093-0.018-0.12c-0.04-0.029-0.095-0.02-0.123,0.019
				c-0.023,0.032-0.02,0.072,0,0.102l-0.177,0.244V78.6c0.036-0.011,0.06-0.044,0.06-0.082c0-0.048-0.038-0.086-0.086-0.086
				c-0.046,0-0.085,0.038-0.085,0.086c0,0.038,0.025,0.071,0.06,0.082v0.301l-0.178-0.244c0.02-0.029,0.022-0.07,0-0.102
				c-0.006-0.007-0.014-0.014-0.02-0.018c-0.015,0.05-0.03,0.101-0.044,0.151c0.006,0,0.012,0.002,0.02,0l0.178,0.243l-0.245-0.079
				c-0.006,0.017-0.009,0.033-0.015,0.051l0.244,0.079l-0.288,0.094c-0.002-0.002-0.006-0.003-0.006-0.004
				c-0.014,0.045-0.025,0.091-0.039,0.137l0.003,0C503.061,79.196,503.084,79.163,503.084,79.126z"/>
			<path style="&st9;" d="M503.084,79.126l0.286-0.093l-0.178,0.244c-0.033-0.012-0.073,0.001-0.096,0.031
				c-0.03,0.039-0.021,0.093,0.02,0.122c0.037,0.028,0.092,0.019,0.12-0.02c0.022-0.032,0.02-0.072,0-0.103l0.178-0.243v0.301
				c-0.034,0.011-0.06,0.043-0.06,0.083c0,0.047,0.039,0.086,0.085,0.086c0.028,0,0.052-0.014,0.065-0.033
				c0.013-0.014,0.021-0.033,0.021-0.053c0-0.04-0.023-0.072-0.06-0.083v-0.301l0.177,0.243c-0.02,0.03-0.023,0.071,0,0.103
				c0.028,0.039,0.083,0.047,0.123,0.02c0.037-0.029,0.046-0.083,0.018-0.122c-0.022-0.03-0.06-0.043-0.098-0.031l-0.178-0.244
				l0.287,0.093c0,0.036,0.025,0.07,0.06,0.083c0.046,0.016,0.095-0.01,0.108-0.055c0.016-0.046-0.008-0.095-0.054-0.11
				c-0.038-0.012-0.074,0.003-0.098,0.033l-0.286-0.094l0.286-0.092c0.023,0.029,0.06,0.043,0.098,0.03
				c0.046-0.013,0.069-0.062,0.054-0.108c-0.014-0.046-0.062-0.07-0.108-0.055c-0.034,0.011-0.06,0.046-0.06,0.083l-0.287,0.092
				l0.178-0.243c0.038,0.011,0.075,0,0.098-0.032c0.028-0.039,0.02-0.093-0.018-0.12c-0.04-0.029-0.095-0.02-0.123,0.019
				c-0.023,0.032-0.02,0.072,0,0.102l-0.177,0.244V78.6c0.036-0.011,0.06-0.044,0.06-0.082c0-0.048-0.038-0.086-0.086-0.086
				c-0.046,0-0.085,0.038-0.085,0.086c0,0.038,0.025,0.071,0.06,0.082v0.301l-0.178-0.244c0.02-0.029,0.022-0.07,0-0.102
				c-0.006-0.007-0.014-0.014-0.02-0.018c-0.015,0.05-0.03,0.101-0.044,0.151c0.006,0,0.012,0.002,0.02,0l0.178,0.243l-0.245-0.079
				c-0.006,0.017-0.009,0.033-0.015,0.051l0.244,0.079l-0.288,0.094c-0.002-0.002-0.006-0.003-0.006-0.004
				c-0.014,0.045-0.025,0.091-0.039,0.137l0.003,0C503.061,79.196,503.084,79.163,503.084,79.126z"/>
			<path style="&st45;" d="M503.084,79.126l0.286-0.093l-0.178,0.244c-0.033-0.012-0.073,0.001-0.096,0.031
				c-0.03,0.039-0.021,0.093,0.02,0.122c0.037,0.028,0.092,0.019,0.12-0.02c0.022-0.032,0.02-0.072,0-0.103l0.178-0.243v0.301
				c-0.034,0.011-0.06,0.043-0.06,0.083c0,0.047,0.039,0.086,0.085,0.086c0.028,0,0.052-0.014,0.065-0.033
				c0.013-0.014,0.021-0.033,0.021-0.053c0-0.04-0.023-0.072-0.06-0.083v-0.301l0.177,0.243c-0.02,0.03-0.023,0.071,0,0.103
				c0.028,0.039,0.083,0.047,0.123,0.02c0.037-0.029,0.046-0.083,0.018-0.122c-0.022-0.03-0.06-0.043-0.098-0.031l-0.178-0.244
				l0.287,0.093c0,0.036,0.025,0.07,0.06,0.083c0.046,0.016,0.095-0.01,0.108-0.055c0.016-0.046-0.008-0.095-0.054-0.11
				c-0.038-0.012-0.074,0.003-0.098,0.033l-0.286-0.094l0.286-0.092c0.023,0.029,0.06,0.043,0.098,0.03
				c0.046-0.013,0.069-0.062,0.054-0.108c-0.014-0.046-0.062-0.07-0.108-0.055c-0.034,0.011-0.06,0.046-0.06,0.083l-0.287,0.092
				l0.178-0.243c0.038,0.011,0.075,0,0.098-0.032c0.028-0.039,0.02-0.093-0.018-0.12c-0.04-0.029-0.095-0.02-0.123,0.019
				c-0.023,0.032-0.02,0.072,0,0.102l-0.177,0.244V78.6c0.036-0.011,0.06-0.044,0.06-0.082c0-0.048-0.038-0.086-0.086-0.086
				c-0.046,0-0.085,0.038-0.085,0.086c0,0.038,0.025,0.071,0.06,0.082v0.301l-0.178-0.244c0.02-0.029,0.022-0.07,0-0.102
				c-0.006-0.007-0.014-0.014-0.02-0.018c-0.015,0.05-0.03,0.101-0.044,0.151c0.006,0,0.012,0.002,0.02,0l0.178,0.243l-0.245-0.079
				c-0.006,0.017-0.009,0.033-0.015,0.051l0.244,0.079l-0.288,0.094c-0.002-0.002-0.006-0.003-0.006-0.004
				c-0.014,0.045-0.025,0.091-0.039,0.137l0.003,0C503.061,79.196,503.084,79.163,503.084,79.126z"/>
			<path style="&st9;" d="M501.773,102.03c0.016,0.075,0.029,0.148,0.042,0.223l0.322-0.105L501.773,102.03z"/>
			<path style="&st9;" d="M501.773,102.03c0.016,0.075,0.029,0.148,0.042,0.223l0.322-0.105L501.773,102.03z"/>
			<path style="&st9;" d="M501.716,101.376c-0.02,0.006-0.04,0.008-0.06,0.01c0.028,0.166,0.057,0.328,0.088,0.488l0.436,0.143
				L501.716,101.376z"/>
			<path style="&st9;" d="M501.716,101.376c-0.02,0.006-0.04,0.008-0.06,0.01c0.028,0.166,0.057,0.328,0.088,0.488l0.436,0.143
				L501.716,101.376z"/>
			<path style="&st9;" d="M501.585,100.943c0.088-0.024,0.186,0.004,0.243,0.084c0.06,0.081,0.056,0.188,0,0.266l0.467,0.641v-0.791
				c-0.092-0.03-0.158-0.115-0.158-0.216c0-0.125,0.101-0.227,0.227-0.227c0.125,0,0.227,0.102,0.227,0.227
				c0,0.101-0.066,0.186-0.157,0.216v0.791l0.466-0.641c-0.057-0.077-0.061-0.185,0-0.266c0.071-0.101,0.215-0.125,0.314-0.051
				c0.104,0.074,0.124,0.216,0.052,0.316c-0.06,0.082-0.163,0.113-0.255,0.083l-0.463,0.64l0.752-0.245
				c-0.003-0.096,0.062-0.185,0.155-0.216c0.12-0.038,0.246,0.027,0.285,0.146c0.042,0.12-0.024,0.249-0.146,0.285
				c-0.095,0.033-0.197-0.006-0.251-0.082l-0.753,0.244l0.753,0.245c0.054-0.078,0.156-0.115,0.251-0.084
				c0.121,0.04,0.188,0.167,0.146,0.286c-0.039,0.121-0.165,0.186-0.285,0.146c-0.094-0.031-0.158-0.121-0.155-0.216l-0.752-0.245
				l0.463,0.64c0.092-0.03,0.195,0.001,0.255,0.082c0.072,0.102,0.052,0.244-0.052,0.317c-0.1,0.073-0.243,0.051-0.314-0.05
				c-0.061-0.081-0.057-0.19,0-0.267l-0.466-0.64v0.791c0.091,0.03,0.157,0.115,0.157,0.215c0,0.054-0.021,0.102-0.052,0.14
				c0.105,1.37,3.235,2.714,1.721,0.742c1.515,1.972,0.678-1.329-0.458-1.817c1.136,0.488,3.384-2.071,1.233-1.409
				c2.15-0.662-1.249-0.888-1.869-0.125c0.62-0.763-1.12-3.691-0.96-1.611c-0.097-1.248-0.589-0.608-0.81,0.244
				c0.028,0.248,0.058,0.495,0.089,0.742C501.516,100.502,501.55,100.726,501.585,100.943z"/>
			<path style="&st9;" d="M501.585,100.943c0.088-0.024,0.186,0.004,0.243,0.084c0.06,0.081,0.056,0.188,0,0.266l0.467,0.641v-0.791
				c-0.092-0.03-0.158-0.115-0.158-0.216c0-0.125,0.101-0.227,0.227-0.227c0.125,0,0.227,0.102,0.227,0.227
				c0,0.101-0.066,0.186-0.157,0.216v0.791l0.466-0.641c-0.057-0.077-0.061-0.185,0-0.266c0.071-0.101,0.215-0.125,0.314-0.051
				c0.104,0.074,0.124,0.216,0.052,0.316c-0.06,0.082-0.163,0.113-0.255,0.083l-0.463,0.64l0.752-0.245
				c-0.003-0.096,0.062-0.185,0.155-0.216c0.12-0.038,0.246,0.027,0.285,0.146c0.042,0.12-0.024,0.249-0.146,0.285
				c-0.095,0.033-0.197-0.006-0.251-0.082l-0.753,0.244l0.753,0.245c0.054-0.078,0.156-0.115,0.251-0.084
				c0.121,0.04,0.188,0.167,0.146,0.286c-0.039,0.121-0.165,0.186-0.285,0.146c-0.094-0.031-0.158-0.121-0.155-0.216l-0.752-0.245
				l0.463,0.64c0.092-0.03,0.195,0.001,0.255,0.082c0.072,0.102,0.052,0.244-0.052,0.317c-0.1,0.073-0.243,0.051-0.314-0.05
				c-0.061-0.081-0.057-0.19,0-0.267l-0.466-0.64v0.791c0.091,0.03,0.157,0.115,0.157,0.215c0,0.054-0.021,0.102-0.052,0.14
				c0.105,1.37,3.235,2.714,1.721,0.742c1.515,1.972,0.678-1.329-0.458-1.817c1.136,0.488,3.384-2.071,1.233-1.409
				c2.15-0.662-1.249-0.888-1.869-0.125c0.62-0.763-1.12-3.691-0.96-1.611c-0.097-1.248-0.589-0.608-0.81,0.244
				c0.028,0.248,0.058,0.495,0.089,0.742"/>
			<path style="&st9;" d="M501.842,102.393c0.006,0.035,0.014,0.072,0.02,0.106c0.013,0.06,0.022,0.114,0.034,0.172l0.284-0.389
				L501.842,102.393z"/>
			<path style="&st9;" d="M501.842,102.393c0.006,0.035,0.014,0.072,0.02,0.106c0.013,0.06,0.022,0.114,0.034,0.172l0.284-0.389
				L501.842,102.393z"/>
			<path style="&st9;" d="M502.364,103.597c-0.126,0-0.227-0.102-0.227-0.228c0-0.101,0.066-0.186,0.158-0.215v-0.791l-0.361,0.494
				c0.123,0.593,0.238,1.111,0.337,1.537c0.178-0.287,0.29-0.595,0.268-0.885C502.495,103.561,502.435,103.597,502.364,103.597z"/>
			<path style="&st9;" d="M502.364,103.597c-0.126,0-0.227-0.102-0.227-0.228c0-0.101,0.066-0.186,0.158-0.215v-0.791l-0.361,0.494
				c0.123,0.593,0.238,1.111,0.337,1.537c0.178-0.287,0.29-0.595,0.268-0.885C502.495,103.561,502.435,103.597,502.364,103.597z"/>
			<path style="&st45;" d="M501.052,102.692c0.022-0.017,0.048-0.035,0.071-0.05c-0.025,0.016-0.055,0.031-0.081,0.042
				C501.046,102.688,501.048,102.689,501.052,102.692z"/>
			<path style="&st45;" d="M501.485,101.008c0.008,0.006,0.02,0.013,0.025,0.021"/>
			<path style="&st9;" d="M502.295,103.154c-0.092,0.03-0.158,0.115-0.158,0.215c0,0.125,0.101,0.228,0.227,0.228
				c0.071,0,0.131-0.036,0.175-0.087c0.03-0.038,0.052-0.086,0.052-0.14c0-0.101-0.066-0.186-0.157-0.215v-0.791l0.466,0.64
				c-0.057,0.076-0.061,0.186,0,0.267c0.071,0.102,0.215,0.124,0.314,0.05c0.104-0.073,0.124-0.215,0.052-0.317
				c-0.06-0.081-0.163-0.112-0.255-0.082l-0.463-0.64l0.752,0.245c-0.003,0.095,0.062,0.185,0.155,0.216
				c0.12,0.039,0.246-0.026,0.285-0.146c0.042-0.119-0.024-0.246-0.146-0.286c-0.095-0.031-0.197,0.006-0.251,0.084l-0.753-0.245
				l0.753-0.244c0.054,0.076,0.156,0.115,0.251,0.082c0.121-0.037,0.188-0.166,0.146-0.285c-0.039-0.119-0.165-0.184-0.285-0.146
				c-0.094,0.031-0.158,0.121-0.155,0.216l-0.752,0.245l0.463-0.64c0.092,0.03,0.195-0.001,0.255-0.083
				c0.072-0.101,0.052-0.242-0.052-0.316c-0.1-0.074-0.243-0.05-0.314,0.051c-0.061,0.081-0.057,0.188,0,0.266l-0.466,0.641v-0.791
				c0.091-0.03,0.157-0.115,0.157-0.216c0-0.125-0.102-0.227-0.227-0.227c-0.126,0-0.227,0.102-0.227,0.227
				c0,0.101,0.066,0.186,0.158,0.216v0.791l-0.467-0.641c0.056-0.077,0.06-0.185,0-0.266c-0.058-0.08-0.155-0.108-0.243-0.084
				c0.021,0.15,0.048,0.297,0.071,0.442c0.02-0.001,0.04-0.003,0.06-0.01l0.464,0.64l-0.436-0.143
				c0.009,0.052,0.019,0.105,0.028,0.156l0.364,0.118l-0.322,0.105c0.01,0.045,0.02,0.092,0.027,0.14l0.338-0.111l-0.284,0.389
				c0.015,0.062,0.026,0.126,0.038,0.187l0.361-0.494V103.154z"/>
			<path style="&st9;" d="M502.295,103.154c-0.092,0.03-0.158,0.115-0.158,0.215c0,0.125,0.101,0.228,0.227,0.228
				c0.071,0,0.131-0.036,0.175-0.087c0.03-0.038,0.052-0.086,0.052-0.14c0-0.101-0.066-0.186-0.157-0.215v-0.791l0.466,0.64
				c-0.057,0.076-0.061,0.186,0,0.267c0.071,0.102,0.215,0.124,0.314,0.05c0.104-0.073,0.124-0.215,0.052-0.317
				c-0.06-0.081-0.163-0.112-0.255-0.082l-0.463-0.64l0.752,0.245c-0.003,0.095,0.062,0.185,0.155,0.216
				c0.12,0.039,0.246-0.026,0.285-0.146c0.042-0.119-0.024-0.246-0.146-0.286c-0.095-0.031-0.197,0.006-0.251,0.084l-0.753-0.245
				l0.753-0.244c0.054,0.076,0.156,0.115,0.251,0.082c0.121-0.037,0.188-0.166,0.146-0.285c-0.039-0.119-0.165-0.184-0.285-0.146
				c-0.094,0.031-0.158,0.121-0.155,0.216l-0.752,0.245l0.463-0.64c0.092,0.03,0.195-0.001,0.255-0.083
				c0.072-0.101,0.052-0.242-0.052-0.316c-0.1-0.074-0.243-0.05-0.314,0.051c-0.061,0.081-0.057,0.188,0,0.266l-0.466,0.641v-0.791
				c0.091-0.03,0.157-0.115,0.157-0.216c0-0.125-0.102-0.227-0.227-0.227c-0.126,0-0.227,0.102-0.227,0.227
				c0,0.101,0.066,0.186,0.158,0.216v0.791l-0.467-0.641c0.056-0.077,0.06-0.185,0-0.266c-0.058-0.08-0.155-0.108-0.243-0.084
				c0.021,0.15,0.048,0.297,0.071,0.442c0.02-0.001,0.04-0.003,0.06-0.01l0.464,0.64l-0.436-0.143
				c0.009,0.052,0.019,0.105,0.028,0.156l0.364,0.118l-0.322,0.105c0.01,0.045,0.02,0.092,0.027,0.14l0.338-0.111l-0.284,0.389
				c0.015,0.062,0.026,0.126,0.038,0.187l0.361-0.494V103.154z"/>
			<path style="&st45;" d="M502.295,103.154c-0.092,0.03-0.158,0.115-0.158,0.215c0,0.125,0.101,0.228,0.227,0.228
				c0.071,0,0.131-0.036,0.175-0.087c0.03-0.038,0.052-0.086,0.052-0.14c0-0.101-0.066-0.186-0.157-0.215v-0.791l0.466,0.64
				c-0.057,0.076-0.061,0.186,0,0.267c0.071,0.102,0.215,0.124,0.314,0.05c0.104-0.073,0.124-0.215,0.052-0.317
				c-0.06-0.081-0.163-0.112-0.255-0.082l-0.463-0.64l0.752,0.245c-0.003,0.095,0.062,0.185,0.155,0.216
				c0.12,0.039,0.246-0.026,0.285-0.146c0.042-0.119-0.024-0.246-0.146-0.286c-0.095-0.031-0.197,0.006-0.251,0.084l-0.753-0.245
				l0.753-0.244c0.054,0.076,0.156,0.115,0.251,0.082c0.121-0.037,0.188-0.166,0.146-0.285c-0.039-0.119-0.165-0.184-0.285-0.146
				c-0.094,0.031-0.158,0.121-0.155,0.216l-0.752,0.245l0.463-0.64c0.092,0.03,0.195-0.001,0.255-0.083
				c0.072-0.101,0.052-0.242-0.052-0.316c-0.1-0.074-0.243-0.05-0.314,0.051c-0.061,0.081-0.057,0.188,0,0.266l-0.466,0.641v-0.791
				c0.091-0.03,0.157-0.115,0.157-0.216c0-0.125-0.102-0.227-0.227-0.227c-0.126,0-0.227,0.102-0.227,0.227
				c0,0.101,0.066,0.186,0.158,0.216v0.791l-0.467-0.641c0.056-0.077,0.06-0.185,0-0.266c-0.058-0.08-0.155-0.108-0.243-0.084
				c0.021,0.15,0.048,0.297,0.071,0.442c0.02-0.001,0.04-0.003,0.06-0.01l0.464,0.64l-0.436-0.143
				c0.009,0.052,0.019,0.105,0.028,0.156l0.364,0.118l-0.322,0.105c0.01,0.045,0.02,0.092,0.027,0.14l0.338-0.111l-0.284,0.389
				c0.015,0.062,0.026,0.126,0.038,0.187l0.361-0.494V103.154z"/>
			<path style="&st9;" d="M501.067,90.324c-0.003,0.022-0.003,0.045-0.003,0.068c0.005-0.018,0.015-0.034,0.028-0.048
				C501.084,90.336,501.075,90.33,501.067,90.324z"/>
			<path style="&st9;" d="M501.067,90.324c-0.003,0.022-0.003,0.045-0.003,0.068c0.005-0.018,0.015-0.034,0.028-0.048
				C501.084,90.336,501.075,90.33,501.067,90.324z"/>
			<path style="&st9;" d="M501.699,91.786c0.061,0.787,1.865,1.562,0.991,0.425c0.874,1.137,0.389-0.764-0.263-1.046
				c0.651,0.282,1.946-1.192,0.71-0.811c1.236-0.381-0.72-0.511-1.077-0.072c0.357-0.439-0.645-2.126-0.553-0.928
				c-0.044-0.566-0.229-0.458-0.369-0.145c-0.029,0.366-0.052,0.733-0.071,1.1c0.008,0.011,0.018,0.022,0.027,0.033
				c0.004-0.005,0.006-0.011,0.015-0.016c0.058-0.043,0.138-0.03,0.181,0.028c0.035,0.048,0.032,0.11,0,0.155l0.27,0.369v-0.456
				c-0.055-0.017-0.092-0.066-0.092-0.125c0-0.072,0.058-0.131,0.132-0.131c0.071,0,0.128,0.059,0.128,0.131
				c0,0.058-0.036,0.108-0.088,0.125v0.456l0.266-0.369c-0.03-0.045-0.034-0.106,0-0.155c0.044-0.058,0.127-0.071,0.183-0.028
				c0.059,0.043,0.072,0.124,0.03,0.183c-0.036,0.047-0.096,0.064-0.147,0.047l-0.268,0.369l0.435-0.141
				c0-0.055,0.035-0.105,0.089-0.124c0.069-0.023,0.144,0.015,0.165,0.084c0.021,0.068-0.016,0.142-0.085,0.164
				c-0.055,0.019-0.112-0.003-0.146-0.047L501.727,91l0.433,0.142c0.034-0.045,0.092-0.067,0.146-0.049
				c0.069,0.023,0.105,0.096,0.085,0.165c-0.021,0.069-0.096,0.106-0.165,0.084c-0.054-0.017-0.089-0.069-0.089-0.124l-0.435-0.141
				l0.268,0.369c0.052-0.017,0.111,0.001,0.147,0.047c0.042,0.059,0.028,0.14-0.03,0.183c-0.056,0.042-0.139,0.029-0.183-0.029
				c-0.034-0.047-0.03-0.109,0-0.154l-0.266-0.369v0.455c0.052,0.018,0.088,0.066,0.088,0.125c0,0.072-0.057,0.131-0.128,0.131
				c-0.074,0-0.132-0.059-0.132-0.131c0-0.058,0.037-0.106,0.092-0.125v-0.455l-0.27,0.369c0.032,0.044,0.035,0.106,0,0.154
				c-0.043,0.058-0.123,0.071-0.181,0.029c-0.061-0.042-0.07-0.124-0.03-0.183c0.033-0.046,0.094-0.064,0.146-0.047l0.269-0.369
				l-0.433,0.141c0,0.033-0.014,0.065-0.037,0.089c-0.017,0.512-0.024,1.025-0.024,1.539
				C501.322,92.647,501.731,92.184,501.699,91.786z"/>
			<path style="&st9;" d="M501.699,91.786c0.061,0.787,1.865,1.562,0.991,0.425c0.874,1.137,0.389-0.764-0.263-1.046
				c0.651,0.282,1.946-1.192,0.71-0.811c1.236-0.381-0.72-0.511-1.077-0.072c0.357-0.439-0.645-2.126-0.553-0.928
				c-0.044-0.566-0.229-0.458-0.369-0.145c-0.029,0.366-0.052,0.733-0.071,1.1c0.008,0.011,0.018,0.022,0.027,0.033
				c0.004-0.005,0.006-0.011,0.015-0.016c0.058-0.043,0.138-0.03,0.181,0.028c0.035,0.048,0.032,0.11,0,0.155l0.27,0.369v-0.456
				c-0.055-0.017-0.092-0.066-0.092-0.125c0-0.072,0.058-0.131,0.132-0.131c0.071,0,0.128,0.059,0.128,0.131
				c0,0.058-0.036,0.108-0.088,0.125v0.456l0.266-0.369c-0.03-0.045-0.034-0.106,0-0.155c0.044-0.058,0.127-0.071,0.183-0.028
				c0.059,0.043,0.072,0.124,0.03,0.183c-0.036,0.047-0.096,0.064-0.147,0.047l-0.268,0.369l0.435-0.141
				c0-0.055,0.035-0.105,0.089-0.124c0.069-0.023,0.144,0.015,0.165,0.084c0.021,0.068-0.016,0.142-0.085,0.164
				c-0.055,0.019-0.112-0.003-0.146-0.047L501.727,91l0.433,0.142c0.034-0.045,0.092-0.067,0.146-0.049
				c0.069,0.023,0.105,0.096,0.085,0.165c-0.021,0.069-0.096,0.106-0.165,0.084c-0.054-0.017-0.089-0.069-0.089-0.124l-0.435-0.141
				l0.268,0.369c0.052-0.017,0.111,0.001,0.147,0.047c0.042,0.059,0.028,0.14-0.03,0.183c-0.056,0.042-0.139,0.029-0.183-0.029
				c-0.034-0.047-0.03-0.109,0-0.154l-0.266-0.369v0.455c0.052,0.018,0.088,0.066,0.088,0.125c0,0.072-0.057,0.131-0.128,0.131
				c-0.074,0-0.132-0.059-0.132-0.131c0-0.058,0.037-0.106,0.092-0.125v-0.455l-0.27,0.369c0.032,0.044,0.035,0.106,0,0.154
				c-0.043,0.058-0.123,0.071-0.181,0.029c-0.061-0.042-0.07-0.124-0.03-0.183c0.033-0.046,0.094-0.064,0.146-0.047l0.269-0.369
				l-0.433,0.141c0,0.033-0.014,0.065-0.037,0.089c-0.017,0.512-0.024,1.025-0.024,1.539
				C501.322,92.647,501.731,92.184,501.699,91.786z"/>
			<path style="&st9;" d="M501.467,91l-0.427-0.139c-0.002,0.092-0.008,0.182-0.014,0.273c0.002,0.003,0.006,0.005,0.008,0.008
				L501.467,91z"/>
			<path style="&st9;" d="M501.467,91l-0.427-0.139c-0.002,0.092-0.008,0.182-0.014,0.273c0.002,0.003,0.006,0.005,0.008,0.008
				L501.467,91z"/>
			<path style="&st9;" d="M501.493,90.924l-0.269-0.369c-0.052,0.017-0.112,0-0.146-0.047c-0.01-0.014-0.015-0.028-0.021-0.043
				c-0.004,0.088-0.01,0.177-0.012,0.265c0.008,0.018,0.014,0.035,0.014,0.053L501.493,90.924z"/>
			<path style="&st9;" d="M501.493,90.924l-0.269-0.369c-0.052,0.017-0.112,0-0.146-0.047c-0.01-0.014-0.015-0.028-0.021-0.043
				c-0.004,0.088-0.01,0.177-0.012,0.265c0.008,0.018,0.014,0.035,0.014,0.053L501.493,90.924z"/>
			<polygon style="&st9;" points="501.106,90.356 501.094,90.341 501.092,90.343 			"/>
			<polygon style="&st45;" points="501.106,90.356 501.094,90.341 501.092,90.343 			"/>
			<path style="&st9;" d="M501.493,91.077l-0.269,0.369c-0.052-0.017-0.112,0.001-0.146,0.047c-0.04,0.059-0.03,0.14,0.03,0.183
				c0.058,0.042,0.138,0.029,0.181-0.029c0.035-0.047,0.032-0.109,0-0.154l0.27-0.369v0.455c-0.055,0.018-0.092,0.066-0.092,0.125
				c0,0.072,0.058,0.131,0.132,0.131c0.071,0,0.128-0.059,0.128-0.131c0-0.058-0.036-0.106-0.088-0.125v-0.455l0.266,0.369
				c-0.03,0.044-0.034,0.106,0,0.154c0.044,0.058,0.127,0.071,0.183,0.029c0.059-0.042,0.072-0.124,0.03-0.183
				c-0.036-0.046-0.096-0.064-0.147-0.047l-0.268-0.369l0.435,0.141c0,0.055,0.035,0.107,0.089,0.124
				c0.069,0.022,0.144-0.015,0.165-0.084c0.021-0.069-0.016-0.142-0.085-0.165c-0.055-0.018-0.112,0.004-0.146,0.049L501.727,91
				l0.433-0.14c0.034,0.044,0.092,0.066,0.146,0.047c0.069-0.022,0.105-0.096,0.085-0.164c-0.021-0.069-0.096-0.107-0.165-0.084
				c-0.054,0.018-0.089,0.069-0.089,0.124l-0.435,0.141l0.268-0.369c0.052,0.017,0.111,0,0.147-0.047
				c0.042-0.059,0.028-0.14-0.03-0.183c-0.056-0.043-0.139-0.03-0.183,0.028c-0.034,0.048-0.03,0.11,0,0.155l-0.266,0.369v-0.456
				c0.052-0.017,0.088-0.066,0.088-0.125c0-0.072-0.057-0.131-0.128-0.131c-0.074,0-0.132,0.059-0.132,0.131
				c0,0.058,0.037,0.108,0.092,0.125v0.456l-0.27-0.369c0.032-0.045,0.035-0.106,0-0.155c-0.043-0.058-0.123-0.071-0.181-0.028
				c-0.009,0.004-0.011,0.01-0.015,0.016c0.004,0.004,0.01,0.01,0.012,0.015c-0.002-0.005-0.012-0.009-0.014-0.013
				c-0.014,0.015-0.023,0.031-0.028,0.048c-0.004,0.024-0.004,0.049-0.006,0.073c0.006,0.015,0.011,0.03,0.021,0.043
				c0.033,0.047,0.094,0.064,0.146,0.047l0.269,0.369l-0.433-0.141c0-0.018-0.006-0.036-0.014-0.053
				c-0.004,0.043-0.004,0.088-0.006,0.132L501.467,91l-0.433,0.142c-0.002-0.003-0.006-0.005-0.008-0.008
				c0,0.058-0.004,0.115-0.004,0.173c0.023-0.024,0.037-0.056,0.037-0.089L501.493,91.077z"/>
			<path style="&st9;" d="M501.493,91.077l-0.269,0.369c-0.052-0.017-0.112,0.001-0.146,0.047c-0.04,0.059-0.03,0.14,0.03,0.183
				c0.058,0.042,0.138,0.029,0.181-0.029c0.035-0.047,0.032-0.109,0-0.154l0.27-0.369v0.455c-0.055,0.018-0.092,0.066-0.092,0.125
				c0,0.072,0.058,0.131,0.132,0.131c0.071,0,0.128-0.059,0.128-0.131c0-0.058-0.036-0.106-0.088-0.125v-0.455l0.266,0.369
				c-0.03,0.044-0.034,0.106,0,0.154c0.044,0.058,0.127,0.071,0.183,0.029c0.059-0.042,0.072-0.124,0.03-0.183
				c-0.036-0.046-0.096-0.064-0.147-0.047l-0.268-0.369l0.435,0.141c0,0.055,0.035,0.107,0.089,0.124
				c0.069,0.022,0.144-0.015,0.165-0.084c0.021-0.069-0.016-0.142-0.085-0.165c-0.055-0.018-0.112,0.004-0.146,0.049L501.727,91
				l0.433-0.14c0.034,0.044,0.092,0.066,0.146,0.047c0.069-0.022,0.105-0.096,0.085-0.164c-0.021-0.069-0.096-0.107-0.165-0.084
				c-0.054,0.018-0.089,0.069-0.089,0.124l-0.435,0.141l0.268-0.369c0.052,0.017,0.111,0,0.147-0.047
				c0.042-0.059,0.028-0.14-0.03-0.183c-0.056-0.043-0.139-0.03-0.183,0.028c-0.034,0.048-0.03,0.11,0,0.155l-0.266,0.369v-0.456
				c0.052-0.017,0.088-0.066,0.088-0.125c0-0.072-0.057-0.131-0.128-0.131c-0.074,0-0.132,0.059-0.132,0.131
				c0,0.058,0.037,0.108,0.092,0.125v0.456l-0.27-0.369c0.032-0.045,0.035-0.106,0-0.155c-0.043-0.058-0.123-0.071-0.181-0.028
				c-0.009,0.004-0.011,0.01-0.015,0.016c0.004,0.004,0.01,0.01,0.012,0.015c-0.002-0.005-0.012-0.009-0.014-0.013
				c-0.014,0.015-0.023,0.031-0.028,0.048c-0.004,0.024-0.004,0.049-0.006,0.073c0.006,0.015,0.011,0.03,0.021,0.043
				c0.033,0.047,0.094,0.064,0.146,0.047l0.269,0.369l-0.433-0.141c0-0.018-0.006-0.036-0.014-0.053
				c-0.004,0.043-0.004,0.088-0.006,0.132L501.467,91l-0.433,0.142c-0.002-0.003-0.006-0.005-0.008-0.008
				c0,0.058-0.004,0.115-0.004,0.173c0.023-0.024,0.037-0.056,0.037-0.089L501.493,91.077z"/>
			<path style="&st45;" d="M501.493,91.077l-0.269,0.369c-0.052-0.017-0.112,0.001-0.146,0.047c-0.04,0.059-0.03,0.14,0.03,0.183
				c0.058,0.042,0.138,0.029,0.181-0.029c0.035-0.047,0.032-0.109,0-0.154l0.27-0.369v0.455c-0.055,0.018-0.092,0.066-0.092,0.125
				c0,0.072,0.058,0.131,0.132,0.131c0.071,0,0.128-0.059,0.128-0.131c0-0.058-0.036-0.106-0.088-0.125v-0.455l0.266,0.369
				c-0.03,0.044-0.034,0.106,0,0.154c0.044,0.058,0.127,0.071,0.183,0.029c0.059-0.042,0.072-0.124,0.03-0.183
				c-0.036-0.046-0.096-0.064-0.147-0.047l-0.268-0.369l0.435,0.141c0,0.055,0.035,0.107,0.089,0.124
				c0.069,0.022,0.144-0.015,0.165-0.084c0.021-0.069-0.016-0.142-0.085-0.165c-0.055-0.018-0.112,0.004-0.146,0.049L501.727,91
				l0.433-0.14c0.034,0.044,0.092,0.066,0.146,0.047c0.069-0.022,0.105-0.096,0.085-0.164c-0.021-0.069-0.096-0.107-0.165-0.084
				c-0.054,0.018-0.089,0.069-0.089,0.124l-0.435,0.141l0.268-0.369c0.052,0.017,0.111,0,0.147-0.047
				c0.042-0.059,0.028-0.14-0.03-0.183c-0.056-0.043-0.139-0.03-0.183,0.028c-0.034,0.048-0.03,0.11,0,0.155l-0.266,0.369v-0.456
				c0.052-0.017,0.088-0.066,0.088-0.125c0-0.072-0.057-0.131-0.128-0.131c-0.074,0-0.132,0.059-0.132,0.131
				c0,0.058,0.037,0.108,0.092,0.125v0.456l-0.27-0.369c0.032-0.045,0.035-0.106,0-0.155c-0.043-0.058-0.123-0.071-0.181-0.028
				c-0.009,0.004-0.011,0.01-0.015,0.016c0.004,0.004,0.01,0.01,0.012,0.015c-0.002-0.005-0.012-0.009-0.014-0.013
				c-0.014,0.015-0.023,0.031-0.028,0.048c-0.004,0.024-0.004,0.049-0.006,0.073c0.006,0.015,0.011,0.03,0.021,0.043
				c0.033,0.047,0.094,0.064,0.146,0.047l0.269,0.369l-0.433-0.141c0-0.018-0.006-0.036-0.014-0.053
				c-0.004,0.043-0.004,0.088-0.006,0.132L501.467,91l-0.433,0.142c-0.002-0.003-0.006-0.005-0.008-0.008
				c0,0.058-0.004,0.115-0.004,0.173c0.023-0.024,0.037-0.056,0.037-0.089L501.493,91.077z"/>
		</g>
		<path style="&st39;" d="M537.121,62.977c-3.989,4.217-10.306,5.866-15.943,4.97c-1.855-0.296-3.751-0.781-5.528-1.399
			c-0.771-0.269-1.532-0.584-2.275-0.949c-1.422-0.767-2.743-1.757-3.94-2.983c-0.421-0.422-0.811-0.878-1.165-1.372
			c-0.711-0.989-1.275-2.139-1.658-3.474c-0.318-1.112-0.289-2.273-0.335-3.417c-0.044-1.131-0.188-2.229-0.207-3.361
			c-0.008-0.523-0.006-1.034,0.004-1.526c0-0.53-0.004-1.062-0.004-1.592c0-2.006,0-3.985,0-5.781c0-0.257,0-0.51,0-0.758
			c-0.022-0.285-0.048-0.562-0.074-0.83c0.04-0.278,0.044-0.544,0.022-0.804c-0.021-0.26-0.065-0.517-0.113-0.773
			c-0.436-1.151-0.206-2.307-0.172-3.44c0.027-0.293,0.067-0.585,0.138-0.872c0.131-0.574,0.36-1.131,0.741-1.661
			c0.132-0.174,0.266-0.342,0.403-0.503c0.69-0.804,1.473-1.435,2.322-1.928c1.229-0.709,2.597-1.131,4.034-1.371
			c6.657-1.083,13.131-0.158,19.902,0.068c1.033,0.105,2.087,0.236,3.166,0.467c4.622,1.155,5.778,6.24,4.297,10.145
			c0,0.797,0,1.655,0,2.557c0,2.705,0,5.796,0,8.767c0,0.528,0,1.053,0,1.57c-0.075,0.642-0.136,1.29-0.201,1.935
			c-0.069,0.644-0.138,1.287-0.239,1.917C539.897,59.122,538.747,61.26,537.121,62.977z"/>
		<ellipse style="&st49;" cx="512.954" cy="59.714" rx="2.867" ry="1.394"/>
		<ellipse style="&st49;" cx="534.306" cy="59.714" rx="2.867" ry="1.394"/>
		<ellipse style="&st15;" cx="523.491" cy="63.161" rx="1.028" ry="0.656"/>
		<line style="&st43;" x1="511.061" y1="63.393" x2="522.541" y2="74.87"/>
		<path style="&st12;" d="M522.835,19.124c-7.394-0.76-14.699,2.475-19.562,7.864c-2.259,2.506-3.418,5.682-4.269,8.879
			c-0.862,3.24-2.045,6.897-2.048,10.263c0,0.315,0,0.572,0,0.75c0,0.179,0,0.28,0,0.28c4.879,1.174,10.367,2.049,16.264,2.552
			c0.27,0.023,0.537,0.045,0.807,0.066c0.613,0.084,1.36,0.105,1.938,0.135c0.191,0.01,0.367,0.021,0.51,0.036
			c0.274,0.016,0.55,0.033,0.825,0.047c0.209,0.012,0.415,0.022,0.62,0.032c2.288,0.114,4.622,0.173,6.995,0.173
			c1.229,0,2.455-0.007,3.682,0.018c1.504,0.031,3.005-0.14,4.498-0.276c1.436-0.131,2.875-0.171,4.313-0.302
			c2.026-0.186,4.048-0.42,6.066-0.708c1.097-0.157,2.196-0.329,3.29-0.519c0.733-0.126,1.457-0.26,2.17-0.399
			c1.031-0.206-1.896-11.923-2.388-13.271c-0.864-2.363-2.062-4.556-3.702-6.486c-0.579-0.682-1.197-1.335-1.853-1.967
			c-3.253-3.346-7.381-5.483-11.751-6.496c-0.727-0.169-1.46-0.306-2.205-0.417c-0.743-0.11-1.496-0.195-2.256-0.252
			C524.129,19.108,523.483,19.11,522.835,19.124z"/>
		<g>
			<path style="&st40;" d="M503.987,91.193c-0.126-1.646,1.251,0.671,0.759,1.276c0.492-0.604,3.182-0.426,1.479,0.099
				c1.702-0.525-0.076,1.501-0.979,1.114c0.902,0.387,1.562,3.001,0.366,1.439c1.196,1.562-1.278,0.497-1.362-0.587
				c0.084,1.084-2.199,2.52-1.257,0.792c-0.942,1.728-0.692-0.955,0.138-1.477c-0.83,0.522-2.9-1.203-1.14-0.951
				c-1.761-0.252,0.866-0.847,1.444-0.325C502.858,92.05,503.861,89.547,503.987,91.193z"/>
			<path style="&st42;" d="M505.086,93.585c-0.078-0.026-0.157,0.004-0.2,0.065l-0.596-0.194l0.596-0.193
				c0.043,0.062,0.122,0.091,0.2,0.065c0.094-0.03,0.146-0.131,0.113-0.225c-0.03-0.094-0.131-0.146-0.226-0.116
				c-0.073,0.025-0.123,0.096-0.123,0.171l-0.595,0.193l0.367-0.506c0.074,0.024,0.153,0,0.201-0.066
				c0.059-0.079,0.041-0.191-0.039-0.25c-0.08-0.059-0.192-0.041-0.252,0.039c-0.046,0.065-0.043,0.151,0,0.211l-0.367,0.506v-0.626
				c0.072-0.022,0.124-0.091,0.124-0.17c0-0.099-0.08-0.18-0.178-0.18c-0.1,0-0.18,0.081-0.18,0.18c0,0.08,0.05,0.148,0.122,0.17
				v0.626l-0.366-0.506c0.043-0.061,0.047-0.146,0-0.211c-0.058-0.08-0.171-0.098-0.253-0.039c-0.079,0.058-0.096,0.17-0.039,0.25
				c0.049,0.066,0.129,0.09,0.201,0.066l0.369,0.506l-0.597-0.193c0-0.075-0.048-0.146-0.122-0.171
				c-0.095-0.03-0.195,0.021-0.227,0.116c-0.032,0.094,0.02,0.195,0.115,0.225c0.076,0.026,0.157-0.002,0.2-0.065l0.596,0.193
				l-0.596,0.194c-0.043-0.062-0.124-0.091-0.2-0.065c-0.096,0.031-0.147,0.132-0.115,0.226c0.031,0.094,0.132,0.146,0.227,0.116
				c0.074-0.025,0.122-0.096,0.122-0.171l0.597-0.194l-0.369,0.507c-0.072-0.024-0.152,0-0.201,0.063
				c-0.057,0.081-0.04,0.193,0.039,0.251c0.082,0.059,0.195,0.041,0.253-0.04c0.047-0.065,0.043-0.15,0-0.212l0.366-0.506v0.626
				c-0.072,0.023-0.122,0.092-0.122,0.171c0,0.099,0.08,0.179,0.18,0.179c0.098,0,0.178-0.08,0.178-0.179
				c0-0.08-0.052-0.148-0.124-0.171v-0.626l0.367,0.506c-0.043,0.062-0.046,0.147,0,0.212c0.06,0.08,0.172,0.099,0.252,0.04
				c0.08-0.058,0.098-0.17,0.039-0.251c-0.048-0.063-0.127-0.087-0.201-0.063l-0.367-0.507l0.595,0.194
				c0,0.076,0.05,0.146,0.123,0.171c0.095,0.03,0.195-0.021,0.226-0.116C505.232,93.717,505.18,93.616,505.086,93.585z"/>
		</g>
		<g>
			<path style="&st40;" d="M507.277,104.632c-0.163-2.081,1.578,0.849,0.956,1.609c0.622-0.761,4.02-0.536,1.872,0.127
				c2.147-0.663-0.099,1.896-1.236,1.408c1.138,0.488,1.973,3.792,0.458,1.817c1.515,1.975-1.615,0.628-1.721-0.741
				c0.105,1.369-2.775,3.185-1.586,1c-1.189,2.185-0.876-1.207,0.171-1.867c-1.047,0.66-3.664-1.52-1.439-1.2
				c-2.225-0.319,1.097-1.07,1.829-0.413C505.848,105.715,507.114,102.552,507.277,104.632z"/>
			<path style="&st42;" d="M508.663,107.655c-0.096-0.032-0.195,0.004-0.252,0.083l-0.753-0.246l0.753-0.244
				c0.057,0.077,0.156,0.113,0.252,0.083c0.12-0.039,0.187-0.167,0.146-0.286c-0.038-0.119-0.166-0.185-0.287-0.146
				c-0.094,0.031-0.154,0.12-0.154,0.216l-0.753,0.244l0.464-0.639c0.092,0.029,0.195-0.002,0.255-0.083
				c0.074-0.101,0.051-0.242-0.052-0.316c-0.1-0.074-0.24-0.052-0.315,0.05c-0.06,0.08-0.058,0.189,0,0.268l-0.464,0.641v-0.791
				c0.089-0.031,0.157-0.117,0.157-0.217c0-0.125-0.103-0.227-0.228-0.227c-0.127,0-0.228,0.102-0.228,0.227
				c0,0.1,0.066,0.186,0.157,0.217v0.791l-0.462-0.641c0.054-0.078,0.056-0.188,0-0.268c-0.075-0.102-0.218-0.124-0.319-0.05
				c-0.1,0.074-0.122,0.216-0.052,0.316c0.062,0.081,0.163,0.112,0.255,0.083l0.465,0.639l-0.75-0.244
				c0-0.096-0.062-0.185-0.157-0.216c-0.122-0.039-0.247,0.026-0.287,0.146c-0.038,0.119,0.025,0.247,0.146,0.286
				c0.098,0.03,0.197-0.006,0.256-0.083l0.749,0.244l-0.749,0.246c-0.059-0.079-0.158-0.115-0.256-0.083
				c-0.12,0.038-0.184,0.166-0.146,0.284c0.04,0.121,0.165,0.186,0.287,0.146c0.096-0.031,0.157-0.121,0.157-0.217l0.75-0.243
				l-0.465,0.64c-0.092-0.029-0.193,0-0.255,0.081c-0.07,0.103-0.048,0.243,0.052,0.317c0.102,0.073,0.244,0.052,0.319-0.05
				c0.056-0.082,0.054-0.188,0-0.268l0.462-0.64v0.791c-0.091,0.029-0.157,0.115-0.157,0.215c0,0.127,0.101,0.227,0.228,0.227
				c0.125,0,0.228-0.1,0.228-0.227c0-0.1-0.068-0.186-0.157-0.215v-0.791l0.464,0.64c-0.058,0.079-0.06,0.186,0,0.268
				c0.075,0.102,0.216,0.123,0.315,0.05c0.103-0.074,0.126-0.215,0.052-0.317c-0.06-0.081-0.163-0.11-0.255-0.081l-0.464-0.64
				l0.753,0.243c0,0.096,0.061,0.186,0.154,0.217c0.121,0.039,0.249-0.025,0.287-0.146
				C508.849,107.821,508.783,107.693,508.663,107.655z"/>
		</g>
		<g>
			<path style="&st40;" d="M512.789,97.093c-0.16-2.08,1.58,0.849,0.96,1.611c0.62-0.763,4.016-0.538,1.868,0.124
				c2.147-0.662-0.097,1.898-1.236,1.409c1.14,0.489,1.976,3.791,0.461,1.818c1.515,1.973-1.615,0.628-1.721-0.741
				c0.105,1.369-2.778,3.184-1.586,0.999c-1.192,2.185-0.877-1.206,0.171-1.867c-1.048,0.661-3.664-1.52-1.44-1.2
				c-2.224-0.32,1.098-1.07,1.827-0.413C511.363,98.176,512.628,95.013,512.789,97.093z"/>
			<path style="&st18;" d="M514.177,100.115c-0.095-0.032-0.197,0.005-0.255,0.083l-0.75-0.244l0.75-0.244
				c0.058,0.077,0.16,0.113,0.255,0.082c0.12-0.039,0.184-0.167,0.146-0.285c-0.037-0.119-0.166-0.185-0.285-0.146
				c-0.096,0.031-0.158,0.12-0.158,0.215l-0.75,0.245l0.463-0.64c0.092,0.029,0.195,0,0.256-0.083
				c0.071-0.101,0.051-0.243-0.052-0.316c-0.101-0.074-0.243-0.052-0.318,0.049c-0.057,0.082-0.054,0.19,0.003,0.268l-0.467,0.64
				v-0.791c0.092-0.03,0.158-0.116,0.158-0.215c0-0.126-0.101-0.228-0.226-0.228c-0.126,0-0.228,0.102-0.228,0.228
				c0,0.1,0.065,0.186,0.157,0.215v0.791l-0.467-0.64c0.058-0.078,0.062-0.186,0-0.268c-0.07-0.101-0.214-0.124-0.313-0.049
				c-0.104,0.073-0.127,0.215-0.052,0.316c0.06,0.082,0.163,0.112,0.253,0.083l0.466,0.64l-0.753-0.245
				c0-0.095-0.061-0.184-0.155-0.215c-0.12-0.039-0.249,0.027-0.287,0.146c-0.039,0.118,0.026,0.247,0.147,0.285
				c0.094,0.031,0.197-0.005,0.252-0.082l0.752,0.244l-0.752,0.244c-0.055-0.078-0.158-0.114-0.252-0.083
				c-0.121,0.039-0.187,0.167-0.147,0.286c0.038,0.119,0.167,0.184,0.287,0.145c0.095-0.03,0.155-0.119,0.155-0.215l0.753-0.245
				l-0.466,0.641c-0.09-0.03-0.193,0-0.253,0.082c-0.075,0.101-0.052,0.243,0.052,0.316c0.1,0.075,0.243,0.052,0.313-0.05
				c0.062-0.082,0.058-0.189,0-0.266l0.467-0.641v0.792c-0.092,0.03-0.157,0.116-0.157,0.217c0,0.124,0.102,0.226,0.228,0.226
				c0.125,0,0.226-0.102,0.226-0.226c0-0.101-0.066-0.187-0.158-0.217v-0.792l0.467,0.641c-0.057,0.077-0.06,0.185-0.003,0.266
				c0.075,0.102,0.218,0.125,0.318,0.05c0.103-0.073,0.123-0.215,0.052-0.316c-0.061-0.082-0.164-0.112-0.256-0.082l-0.463-0.641
				l0.75,0.245c0,0.096,0.062,0.185,0.158,0.215c0.119,0.039,0.248-0.026,0.285-0.145
				C514.361,100.281,514.297,100.154,514.177,100.115z"/>
		</g>
		<g>
			<path style="&st40;" d="M514.572,103.802c0.235-1.059,0.656,0.662,0.231,0.946c0.425-0.285,2.079,0.344,0.912,0.346
				c1.167-0.002-0.339,0.928-0.831,0.512c0.492,0.417,0.404,2.185-0.046,0.974c0.45,1.211-0.898,0.066-0.744-0.63
				c-0.154,0.696-1.864,1.159-0.938,0.255c-0.926,0.904-0.254-0.733,0.368-0.903c-0.622,0.17-1.589-1.312-0.532-0.814
				c-1.057-0.498,0.707-0.365,0.97,0.073C513.699,104.124,514.807,102.743,514.572,103.802z"/>
			<path style="&st28;" d="M514.801,105.514c-0.043-0.031-0.098-0.027-0.138,0.003l-0.338-0.236l0.412-0.007
				c0.015,0.047,0.06,0.08,0.115,0.08c0.062-0.001,0.114-0.056,0.114-0.12c0-0.065-0.054-0.117-0.12-0.116
				c-0.052,0-0.095,0.036-0.111,0.084l-0.41,0.006l0.33-0.247c0.039,0.027,0.097,0.029,0.138-0.002
				c0.05-0.04,0.062-0.112,0.021-0.165c-0.037-0.053-0.111-0.062-0.165-0.024c-0.04,0.033-0.054,0.086-0.04,0.133l-0.327,0.248
				l0.12-0.394c0.049-0.001,0.095-0.034,0.109-0.084c0.021-0.061-0.015-0.126-0.078-0.147c-0.062-0.018-0.128,0.017-0.146,0.079
				c-0.015,0.05,0.003,0.103,0.046,0.13l-0.123,0.394l-0.133-0.389c0.041-0.029,0.059-0.083,0.041-0.132
				c-0.02-0.061-0.089-0.095-0.148-0.073c-0.063,0.021-0.096,0.088-0.075,0.15c0.018,0.05,0.065,0.08,0.115,0.08l0.132,0.389
				l-0.335-0.236c0.014-0.048-0.004-0.102-0.046-0.131c-0.053-0.038-0.126-0.024-0.164,0.028c-0.037,0.054-0.025,0.127,0.028,0.164
				c0.044,0.03,0.101,0.028,0.142-0.002l0.335,0.236l-0.41,0.007c-0.017-0.047-0.062-0.08-0.114-0.08
				c-0.066,0.001-0.118,0.055-0.118,0.12c0.004,0.066,0.058,0.117,0.12,0.116c0.056-0.001,0.098-0.035,0.112-0.084l0.41-0.006
				l-0.327,0.247c-0.039-0.029-0.098-0.03-0.14,0.001c-0.052,0.04-0.06,0.115-0.023,0.167c0.04,0.052,0.114,0.062,0.166,0.022
				c0.041-0.031,0.057-0.086,0.041-0.132l0.329-0.248l-0.121,0.394c-0.051,0-0.097,0.032-0.111,0.082
				c-0.021,0.062,0.018,0.129,0.077,0.147c0.063,0.02,0.129-0.016,0.149-0.076c0.014-0.051-0.006-0.104-0.046-0.131l0.12-0.394
				l0.135,0.388c-0.041,0.03-0.061,0.084-0.043,0.133c0.022,0.061,0.088,0.093,0.151,0.073c0.06-0.022,0.094-0.088,0.072-0.149
				c-0.019-0.051-0.063-0.081-0.112-0.08l-0.135-0.389l0.334,0.236c-0.014,0.048,0.004,0.101,0.047,0.13
				c0.055,0.039,0.129,0.025,0.163-0.028C514.87,105.625,514.855,105.551,514.801,105.514z"/>
		</g>
		<g>
			<path style="&st40;" d="M504.694,97.709c-0.103-1.336,1.015,0.544,0.616,1.036c0.398-0.492,2.583-0.345,1.202,0.079
				c1.381-0.424-0.062,1.22-0.793,0.906c0.73,0.314,1.266,2.436,0.295,1.167c0.971,1.268-1.04,0.403-1.108-0.475
				c0.068,0.878-1.78,2.044-1.019,0.642c-0.762,1.403-0.562-0.775,0.111-1.2c-0.674,0.425-2.354-0.977-0.926-0.77
				c-1.428-0.207,0.705-0.689,1.175-0.266C503.778,98.405,504.591,96.374,504.694,97.709z"/>
			<path style="&st29;" d="M505.584,99.65c-0.06-0.02-0.126,0.003-0.161,0.054l-0.482-0.156l0.482-0.158
				c0.035,0.05,0.102,0.073,0.161,0.053c0.078-0.026,0.12-0.108,0.095-0.184c-0.026-0.077-0.106-0.119-0.184-0.093
				c-0.061,0.02-0.101,0.076-0.101,0.138l-0.484,0.157l0.299-0.411c0.061,0.018,0.126-0.001,0.164-0.053
				c0.048-0.064,0.033-0.156-0.032-0.204c-0.066-0.047-0.155-0.032-0.203,0.032c-0.038,0.053-0.038,0.123,0,0.172l-0.298,0.412
				v-0.509c0.057-0.02,0.101-0.073,0.101-0.139c0-0.081-0.066-0.145-0.146-0.145c-0.081,0-0.146,0.064-0.146,0.145
				c0,0.066,0.044,0.12,0.104,0.139v0.509l-0.301-0.412c0.037-0.049,0.037-0.12,0-0.172c-0.047-0.064-0.138-0.079-0.203-0.032
				c-0.065,0.048-0.081,0.14-0.031,0.204c0.037,0.052,0.103,0.071,0.163,0.053l0.298,0.411l-0.484-0.157
				c0.003-0.062-0.036-0.119-0.1-0.138c-0.078-0.026-0.158,0.016-0.184,0.093c-0.022,0.076,0.018,0.158,0.095,0.184
				c0.06,0.02,0.126-0.003,0.162-0.053l0.481,0.158l-0.481,0.156c-0.036-0.051-0.103-0.073-0.162-0.054
				c-0.077,0.026-0.117,0.108-0.095,0.184c0.025,0.077,0.105,0.119,0.184,0.094c0.063-0.02,0.103-0.077,0.1-0.14l0.484-0.157
				l-0.298,0.412c-0.061-0.02-0.126,0-0.163,0.053c-0.05,0.064-0.034,0.156,0.031,0.203c0.065,0.048,0.156,0.033,0.203-0.032
				c0.037-0.053,0.037-0.122,0-0.172l0.301-0.411v0.508c-0.06,0.02-0.104,0.075-0.104,0.139c0,0.08,0.065,0.146,0.146,0.146
				c0.08,0,0.146-0.066,0.146-0.146c0-0.064-0.044-0.12-0.101-0.139v-0.508l0.298,0.411c-0.038,0.05-0.038,0.119,0,0.172
				c0.048,0.065,0.137,0.08,0.203,0.032c0.065-0.047,0.08-0.138,0.032-0.203c-0.038-0.052-0.104-0.072-0.164-0.053l-0.299-0.412
				l0.484,0.157c0,0.062,0.04,0.12,0.101,0.14c0.077,0.025,0.157-0.017,0.184-0.094C505.705,99.758,505.663,99.676,505.584,99.65z"
				/>
		</g>
		<path d="M520.052,54.58c-0.218,0.136-0.458,0.243-0.716,0.325c-0.086,0.027-0.172,0.052-0.264,0.075
			c-1.5,0.382-3.049,0.228-4.54-0.256c-0.487-0.158-0.902-0.383-1.246-0.768c-0.653-0.732-1.418-0.536-2.313-0.535
			c0.397-0.001,0.816-0.01,1.199,0.109c0.473,0.146,0.633,0.531,0.96,0.865c-0.204,0.055-0.413,0.083-0.625,0.025
			c-0.22-0.058-0.314,0.282-0.094,0.341c0.323,0.086,0.641,0.034,0.954-0.066c0.025-0.007,0.045-0.02,0.062-0.035
			c0.043,0.035,0.089,0.065,0.136,0.097c-0.228,0.109-0.444,0.142-0.709,0.143c-0.225,0.001-0.225,0.354,0,0.354
			c0.37-0.002,0.677-0.058,0.994-0.245c0.021-0.011,0.031-0.025,0.046-0.039c0.61,0.35,1.326,0.562,2.022,0.726
			c0.068,0.018,0.14,0.033,0.208,0.049c1.083,0.242,2.116,0.225,3.063-0.421c0.086-0.042,0.172-0.087,0.256-0.135
			c0.257-0.146,0.515-0.317,0.776-0.517C520.131,54.611,520.05,54.572,520.052,54.58z"/>
		<path d="M527.418,54.603c0.324,0.012,0.705,0.26,1.009,0.366c1.558,0.539,3.597,0.23,5.068-0.46
			c0.698-0.327,1.001-1.145,1.844-1.112c0.389,0.016,0.772,0.025,1.162,0.025c-0.278,0.001-0.556,0.02-0.834,0.055
			c-0.148,0.019-0.555,0.026-0.672,0.136c-0.063,0.059-0.126,0.115-0.187,0.169c-0.127,0.234-0.289,0.433-0.466,0.614
			c0.205,0.055,0.411,0.083,0.623,0.025c0.221-0.058,0.314,0.282,0.095,0.341c-0.323,0.086-0.642,0.034-0.953-0.066
			c-0.026-0.007-0.046-0.02-0.063-0.035c-0.042,0.035-0.089,0.065-0.134,0.097c0.226,0.109,0.443,0.142,0.706,0.143
			c0.229,0.001,0.229,0.354,0,0.354c-0.365-0.002-0.673-0.058-0.993-0.245c-0.02-0.011-0.031-0.025-0.042-0.039
			c0.011,0.014-1.621,0.703-1.804,0.752c-0.686,0.189-1.415,0.28-2.12,0.144c-0.893-0.172-1.654-0.686-2.391-1.193
			C527.311,54.619,527.362,54.6,527.418,54.603z"/>
		<path style="&st8;" d="M508.743,64.739c0,0,14.365-12.36,32.26-0.455l-16.131,14.277L508.743,64.739z"/>
		<line style="&st57;" x1="511.907" y1="62.587" x2="522.578" y2="76.538"/>
		<line style="&st57;" x1="515.543" y1="60.898" x2="523.906" y2="76.344"/>
		<line style="&st57;" x1="519.843" y1="59.726" x2="524.676" y2="76.613"/>
		<line style="&st57;" x1="523.872" y1="59.139" x2="524.954" y2="76.67"/>
		<line style="&st57;" x1="527.756" y1="59.219" x2="525.696" y2="76.662"/>
		<line style="&st57;" x1="531.834" y1="60.043" x2="526.323" y2="76.721"/>
		<line style="&st57;" x1="536.203" y1="61.582" x2="527.23" y2="76.682"/>
		<path style="&st50;" d="M511.057,49.509c0,0,1.276,0.174,2.037,0.269c0,0-0.529-7.776,0.241-9.307
			C513.335,40.471,510.844,46.479,511.057,49.509z"/>
		<path style="&st41;" d="M516.88,49.988c0,0,0.486-0.011,0.784,0.062c0.018,0.004-0.87-7.663-0.713-9.226
			C516.952,40.825,516.54,46.947,516.88,49.988z"/>
		<g>
			<path style="&st40;" d="M529.366,61.965c0.237-1.633,1.072,0.931,0.459,1.411c0.613-0.48,3.194,0.287,1.421,0.423
				c1.773-0.137-0.407,1.448-1.201,0.871c0.794,0.577,0.862,3.271,0.038,1.483c0.824,1.788-1.356,0.203-1.201-0.872
				c-0.155,1.075-2.697,1.972-1.396,0.493c-1.301,1.479-0.467-1.083,0.459-1.41c-0.926,0.327-2.563-1.814-0.902-1.178
				c-1.661-0.636,1.033-0.634,1.482,0C528.075,62.552,529.603,60.332,529.366,61.965z"/>
			<path style="&st42;" d="M529.911,64.54c-0.069-0.041-0.155-0.031-0.211,0.02l-0.539-0.32l0.624-0.057
				c0.028,0.07,0.103,0.116,0.18,0.107c0.101-0.008,0.172-0.096,0.164-0.195c-0.009-0.099-0.098-0.171-0.195-0.162
				c-0.08,0.007-0.144,0.066-0.16,0.14l-0.622,0.057l0.471-0.413c0.065,0.039,0.151,0.034,0.209-0.02
				c0.074-0.064,0.082-0.178,0.017-0.252c-0.062-0.075-0.178-0.083-0.252-0.018c-0.06,0.052-0.077,0.137-0.046,0.207l-0.473,0.413
				l0.141-0.61c0.075-0.006,0.141-0.062,0.157-0.139c0.023-0.096-0.04-0.192-0.134-0.214c-0.098-0.022-0.195,0.038-0.215,0.135
				c-0.018,0.078,0.018,0.156,0.083,0.194l-0.138,0.611l-0.249-0.576c0.058-0.049,0.079-0.132,0.049-0.206
				c-0.041-0.091-0.146-0.133-0.234-0.094c-0.093,0.04-0.136,0.145-0.096,0.236c0.029,0.074,0.107,0.115,0.181,0.107l0.246,0.576
				l-0.539-0.32c0.021-0.074-0.014-0.153-0.082-0.193c-0.083-0.052-0.194-0.023-0.243,0.061c-0.052,0.086-0.025,0.196,0.061,0.247
				c0.067,0.041,0.154,0.031,0.212-0.02l0.535,0.32l-0.622,0.057c-0.031-0.07-0.103-0.116-0.18-0.108
				c-0.101,0.01-0.172,0.097-0.163,0.195c0.008,0.099,0.098,0.172,0.195,0.162c0.08-0.007,0.142-0.065,0.156-0.139l0.624-0.058
				l-0.469,0.412c-0.065-0.038-0.152-0.032-0.212,0.02c-0.075,0.065-0.08,0.18-0.018,0.253c0.065,0.075,0.182,0.084,0.255,0.018
				c0.061-0.053,0.077-0.137,0.046-0.207l0.47-0.413l-0.138,0.611c-0.074,0.006-0.141,0.061-0.16,0.139
				c-0.021,0.097,0.04,0.193,0.138,0.215c0.097,0.022,0.191-0.039,0.214-0.136c0.018-0.078-0.017-0.155-0.082-0.193l0.137-0.611
				l0.246,0.574c-0.055,0.051-0.078,0.134-0.046,0.207c0.04,0.091,0.144,0.134,0.235,0.094c0.092-0.039,0.134-0.145,0.094-0.236
				c-0.031-0.073-0.105-0.114-0.18-0.107l-0.247-0.575l0.537,0.32c-0.019,0.075,0.014,0.154,0.081,0.194
				c0.087,0.051,0.198,0.023,0.249-0.062C530.022,64.702,529.994,64.591,529.911,64.54z"/>
		</g>
		<g>
			<path style="&st40;" d="M531.559,66.356c0.192-1.327,0.867,0.755,0.37,1.145c0.497-0.389,2.594,0.234,1.153,0.344
				c1.44-0.109-0.329,1.175-0.974,0.707c0.645,0.468,0.699,2.655,0.032,1.204c0.667,1.451-1.103,0.165-0.974-0.708
				c-0.129,0.872-2.194,1.601-1.137,0.401c-1.058,1.2-0.377-0.881,0.372-1.146c-0.749,0.265-2.082-1.472-0.733-0.955
				c-1.349-0.517,0.84-0.516,1.205,0C530.509,66.832,531.751,65.03,531.559,66.356z"/>
			<path style="&st29;" d="M531.998,68.446c-0.055-0.035-0.124-0.025-0.169,0.015l-0.438-0.258l0.508-0.048
				c0.021,0.058,0.082,0.095,0.146,0.089c0.083-0.007,0.14-0.079,0.132-0.159c-0.006-0.08-0.078-0.139-0.157-0.131
				c-0.062,0.005-0.114,0.052-0.129,0.112l-0.508,0.046l0.385-0.334c0.051,0.031,0.119,0.026,0.168-0.016
				c0.063-0.052,0.069-0.145,0.015-0.207c-0.051-0.06-0.143-0.066-0.207-0.014c-0.045,0.043-0.06,0.111-0.036,0.168l-0.381,0.335
				l0.112-0.497c0.062-0.005,0.113-0.048,0.128-0.112c0.018-0.078-0.03-0.157-0.108-0.174c-0.08-0.018-0.157,0.031-0.175,0.109
				c-0.015,0.063,0.014,0.126,0.069,0.157l-0.115,0.496l-0.2-0.467c0.049-0.04,0.062-0.108,0.04-0.168
				c-0.034-0.072-0.118-0.107-0.191-0.075c-0.075,0.032-0.11,0.118-0.078,0.191c0.026,0.06,0.086,0.093,0.149,0.088l0.2,0.467
				l-0.438-0.26c0.015-0.061-0.012-0.124-0.067-0.158c-0.07-0.041-0.159-0.019-0.199,0.051c-0.044,0.069-0.02,0.158,0.048,0.199
				c0.058,0.033,0.127,0.026,0.173-0.016l0.438,0.26l-0.507,0.046c-0.026-0.057-0.084-0.094-0.146-0.088
				c-0.084,0.007-0.14,0.08-0.136,0.159c0.01,0.08,0.081,0.139,0.161,0.131c0.062-0.005,0.114-0.053,0.129-0.113l0.504-0.046
				l-0.381,0.335c-0.054-0.031-0.123-0.027-0.172,0.016c-0.06,0.053-0.065,0.144-0.012,0.205c0.052,0.061,0.144,0.067,0.203,0.014
				c0.05-0.043,0.063-0.111,0.041-0.169l0.38-0.334l-0.111,0.497c-0.062,0.005-0.114,0.049-0.128,0.112
				c-0.018,0.078,0.031,0.156,0.108,0.174s0.157-0.031,0.175-0.109c0.015-0.063-0.016-0.126-0.069-0.158l0.111-0.496l0.204,0.467
				c-0.049,0.041-0.066,0.107-0.04,0.167c0.034,0.075,0.117,0.108,0.191,0.077c0.073-0.032,0.109-0.118,0.077-0.191
				c-0.025-0.06-0.085-0.094-0.149-0.088l-0.199-0.467l0.438,0.259c-0.015,0.061,0.012,0.125,0.065,0.159
				c0.071,0.041,0.161,0.018,0.201-0.052C532.091,68.577,532.069,68.487,531.998,68.446z"/>
		</g>
		<g>
			<path style="&st40;" d="M535.828,63.454c0.128-0.855,0.562,0.488,0.241,0.74c0.321-0.252,1.676,0.15,0.744,0.221
				c0.932-0.071-0.211,0.759-0.626,0.457c0.415,0.302,0.448,1.715,0.016,0.778c0.433,0.938-0.709,0.106-0.626-0.458
				c-0.083,0.563-1.414,1.034-0.732,0.259c-0.682,0.775-0.247-0.568,0.239-0.739c-0.486,0.171-1.345-0.95-0.475-0.618
				c-0.87-0.333,0.545-0.333,0.778,0C535.154,63.762,535.956,62.599,535.828,63.454z"/>
			<path style="&st42;" d="M536.116,64.805c-0.039-0.021-0.081-0.017-0.112,0.01l-0.281-0.168l0.327-0.03
				c0.014,0.038,0.051,0.061,0.094,0.058c0.052-0.005,0.09-0.05,0.086-0.102c-0.006-0.053-0.051-0.091-0.102-0.085
				c-0.045,0.003-0.076,0.034-0.084,0.073l-0.327,0.03l0.247-0.216c0.034,0.02,0.077,0.018,0.107-0.01
				c0.041-0.034,0.047-0.093,0.01-0.133c-0.031-0.04-0.092-0.043-0.131-0.009c-0.032,0.027-0.041,0.072-0.023,0.108l-0.25,0.216
				l0.076-0.32c0.035-0.004,0.073-0.033,0.081-0.074c0.012-0.05-0.02-0.101-0.071-0.112c-0.051-0.011-0.101,0.02-0.112,0.071
				c-0.01,0.041,0.01,0.082,0.044,0.102l-0.071,0.32l-0.132-0.302c0.032-0.026,0.043-0.069,0.026-0.108
				c-0.021-0.047-0.075-0.069-0.124-0.049c-0.048,0.021-0.068,0.075-0.048,0.124c0.014,0.038,0.054,0.06,0.094,0.057l0.13,0.301
				l-0.282-0.167c0.009-0.04-0.008-0.08-0.042-0.102c-0.045-0.027-0.103-0.012-0.132,0.033c-0.025,0.045-0.012,0.103,0.035,0.128
				c0.033,0.022,0.079,0.017,0.107-0.01l0.283,0.168l-0.325,0.029c-0.018-0.036-0.055-0.06-0.096-0.056
				c-0.051,0.004-0.09,0.05-0.086,0.102c0.004,0.051,0.05,0.089,0.102,0.085c0.042-0.004,0.074-0.035,0.086-0.073l0.325-0.03
				l-0.249,0.216c-0.03-0.02-0.076-0.017-0.108,0.011c-0.039,0.034-0.043,0.093-0.008,0.132c0.034,0.04,0.094,0.043,0.131,0.007
				c0.031-0.026,0.041-0.069,0.026-0.108l0.246-0.215l-0.071,0.32c-0.041,0.003-0.075,0.032-0.083,0.073
				c-0.012,0.051,0.02,0.101,0.068,0.112c0.052,0.012,0.104-0.02,0.114-0.07c0.009-0.042-0.011-0.082-0.042-0.102l0.071-0.32
				l0.128,0.301c-0.028,0.026-0.04,0.069-0.022,0.108c0.017,0.048,0.074,0.07,0.123,0.05c0.046-0.021,0.069-0.076,0.049-0.124
				c-0.018-0.039-0.058-0.061-0.098-0.057l-0.128-0.301l0.283,0.167c-0.01,0.038,0.006,0.08,0.042,0.102
				c0.046,0.027,0.104,0.011,0.13-0.033C536.172,64.888,536.157,64.83,536.116,64.805z"/>
		</g>
		
			<ellipse transform="matrix(0.9844 -0.1762 0.1762 0.9844 -7.13 92.4235)" style="&st62;" cx="516.821" cy="86.357" rx="15.409" ry="12.985"/>
		
			<ellipse transform="matrix(0.9844 -0.1762 0.1762 0.9844 -7.0495 92.3447)" style="&st9;" cx="516.483" cy="85.869" rx="14.821" ry="12.744"/>
	</g>
	<rect x="130.886" y="130.727" style="&st0;" width="202.242" height="8.291"/>
	<rect x="222.275" y="53.626" style="&st47;" width="13.479" height="75.204"/>
	<rect x="236.768" y="53.776" style="&st46;" width="13.479" height="75.204"/>
	<rect x="224.727" y="69.074" style="&st41;" width="7.796" height="44.608"/>
	<rect x="223.85" y="57.222" style="&st41;" width="9.55" height="6.904"/>
	<rect x="223.85" y="58.255" style="&st41;" width="9.55" height="6.904"/>
	<rect x="238.732" y="78.829" style="&st41;" width="9.55" height="6.904"/>
	<rect x="238.732" y="91.84" style="&st41;" width="9.55" height="6.904"/>
	<rect x="251.261" y="53.626" style="&st34;" width="13.479" height="75.204"/>
	<rect x="253.226" y="78.679" style="&st41;" width="9.55" height="6.904"/>
	<rect x="253.226" y="91.69" style="&st41;" width="9.55" height="6.904"/>
	<rect x="226.773" y="74.346" style="&st30;" width="3.8" height="4.385"/>
	<rect x="227.115" y="82.131" style="&st30;" width="3.8" height="4.385"/>
	<rect x="227.115" y="90.068" style="&st30;" width="3.8" height="4.385"/>
	<rect x="227.115" y="99.343" style="&st30;" width="3.8" height="4.385"/>
	<rect x="266.541" y="74.346" style="&st38;" width="13.479" height="54.484"/>
	<rect x="268.992" y="85.538" style="&st41;" width="7.796" height="32.318"/>
	<rect x="268.115" y="76.951" style="&st41;" width="9.55" height="5.002"/>
	<rect x="268.115" y="77.699" style="&st41;" width="9.55" height="5.002"/>
	<rect x="271.038" y="89.357" style="&st30;" width="3.8" height="3.177"/>
	<rect x="271.38" y="94.998" style="&st30;" width="3.8" height="3.177"/>
	<rect x="271.38" y="100.748" style="&st30;" width="3.8" height="3.177"/>
	<rect x="271.38" y="107.467" style="&st30;" width="3.8" height="3.177"/>
	<rect x="281.838" y="74.346" style="&st33;" width="13.479" height="54.484"/>
	<rect x="284.289" y="85.538" style="&st41;" width="7.796" height="32.318"/>
	<rect x="283.412" y="76.951" style="&st41;" width="9.55" height="5.002"/>
	<rect x="283.412" y="77.699" style="&st41;" width="9.55" height="5.002"/>
	<rect x="286.335" y="89.357" style="&st30;" width="3.8" height="3.177"/>
	<rect x="286.677" y="94.998" style="&st30;" width="3.799" height="3.177"/>
	<rect x="286.677" y="100.748" style="&st30;" width="3.799" height="3.177"/>
	<rect x="286.677" y="107.467" style="&st30;" width="3.799" height="3.177"/>
	<rect x="240.043" y="80.083" style="&st27;" width="7.101" height="2.048"/>
	<rect x="240.043" y="82.739" style="&st27;" width="7.101" height="2.047"/>
	<rect x="240.043" y="93.108" style="&st27;" width="7.101" height="2.048"/>
	<rect x="240.043" y="95.763" style="&st27;" width="7.101" height="2.048"/>
	<rect x="254.45" y="79.93" style="&st27;" width="7.101" height="2.048"/>
	<rect x="254.45" y="82.585" style="&st27;" width="7.101" height="2.047"/>
	<rect x="254.45" y="93.108" style="&st27;" width="7.101" height="2.048"/>
	<rect x="254.45" y="95.763" style="&st27;" width="7.101" height="2.048"/>
	<circle style="&st27;" cx="244.289" cy="121.907" r="4.304"/>
	<circle style="&st27;" cx="258.247" cy="62.56" r="4.304"/>
</g>
<g id="图层_14">
</g>
<g id="图层_6">
	<path style="&st53;" d="M201.557,378.418c0,2.201-2.292,3.985-5.117,3.985l0,0c-2.826,0-5.117-1.784-5.117-3.985v-22.609
		c0-2.2,2.291-3.986,5.117-3.986l0,0c2.825,0,5.117,1.786,5.117,3.986V378.418z"/>
	<path style="&st5;" d="M196.534,377.405c0,2.199-1.146,3.982-2.56,3.982l0,0c-1.413,0-2.558-1.783-2.558-3.982v-22.611
		c0-2.198,1.145-3.984,2.558-3.984l0,0c1.413,0,2.56,1.786,2.56,3.984V377.405z"/>
	<path style="&st53;" d="M457.296,377.911c0,2.203-2.291,3.986-5.117,3.986l0,0c-2.826,0-5.118-1.783-5.118-3.986v-22.609
		c0-2.2,2.292-3.985,5.118-3.985l0,0c2.826,0,5.117,1.785,5.117,3.985V377.911z"/>
	<path style="&st5;" d="M452.271,376.895c0,2.201-1.145,3.985-2.558,3.985l0,0c-1.412,0-2.558-1.784-2.558-3.985v-22.609
		c0-2.199,1.146-3.984,2.558-3.984l0,0c1.413,0,2.558,1.785,2.558,3.984V376.895z"/>
	<path style="&st53;" d="M225.783,370.125c0,2.202-2.292,3.984-5.118,3.984l0,0c-2.825,0-5.116-1.782-5.116-3.984v-22.61
		c0-2.199,2.292-3.984,5.116-3.984l0,0c2.826,0,5.118,1.785,5.118,3.984V370.125z"/>
	<path style="&st5;" d="M220.759,369.11c0,2.203-1.146,3.985-2.559,3.985l0,0c-1.413,0-2.557-1.782-2.557-3.985v-22.607
		c0-2.202,1.145-3.986,2.557-3.986l0,0c1.414,0,2.559,1.784,2.559,3.986V369.11z"/>
	<path style="&st53;" d="M432.86,370.125c0,2.202-2.29,3.984-5.117,3.984l0,0c-2.824,0-5.116-1.782-5.116-3.984v-22.61
		c0-2.199,2.292-3.984,5.116-3.984l0,0c2.827,0,5.117,1.785,5.117,3.984V370.125z"/>
	<path style="&st5;" d="M427.835,369.11c0,2.203-1.145,3.985-2.558,3.985l0,0c-1.411,0-2.558-1.782-2.558-3.985v-22.607
		c0-2.202,1.146-3.986,2.558-3.986l0,0c1.413,0,2.558,1.784,2.558,3.986V369.11z"/>
	<g>
		<path style="&st60;" d="M216.969,116.866h-4.515h-45.027h-7.546v2.013h2.453v8.553h-2.453v1.761h7.546h45.027h4.515
			c2.5,0,4.528-2.027,4.528-4.527v-3.271C221.497,118.893,219.469,116.866,216.969,116.866z"/>
		<g>
			<rect x="162.342" y="118.87" style="&st41;" width="54.397" height="8.553"/>
			<line style="&st20;" x1="162.342" y1="119.909" x2="216.739" y2="119.909"/>
			<line style="&st20;" x1="162.342" y1="120.569" x2="216.739" y2="120.569"/>
			<line style="&st20;" x1="162.342" y1="121.167" x2="216.739" y2="121.167"/>
			<line style="&st20;" x1="162.342" y1="121.889" x2="216.739" y2="121.889"/>
			<line style="&st20;" x1="162.342" y1="122.549" x2="216.739" y2="122.549"/>
			<line style="&st20;" x1="162.342" y1="123.147" x2="216.739" y2="123.147"/>
			<line style="&st20;" x1="162.342" y1="123.901" x2="216.739" y2="123.901"/>
			<line style="&st20;" x1="162.342" y1="124.561" x2="216.739" y2="124.561"/>
			<line style="&st20;" x1="162.342" y1="125.159" x2="216.739" y2="125.159"/>
			<line style="&st20;" x1="162.342" y1="125.756" x2="216.739" y2="125.756"/>
			<line style="&st20;" x1="162.342" y1="126.417" x2="216.739" y2="126.417"/>
			<line style="&st20;" x1="162.342" y1="127.014" x2="216.739" y2="127.014"/>
		</g>
	</g>
	<path style="&st56;" d="M216.969,104.146h-4.515h-45.027h-7.546v2.012h2.453v8.553h-2.453v1.76h7.546h45.027h4.515
		c2.5,0,4.528-2.027,4.528-4.527v-3.27C221.497,106.173,219.469,104.146,216.969,104.146z"/>
	<g>
		<rect x="162.342" y="106.15" style="&st41;" width="54.397" height="8.553"/>
		<line style="&st20;" x1="162.342" y1="107.188" x2="216.739" y2="107.188"/>
		<line style="&st20;" x1="162.342" y1="107.848" x2="216.739" y2="107.848"/>
		<line style="&st20;" x1="162.342" y1="108.446" x2="216.739" y2="108.446"/>
		<line style="&st20;" x1="162.342" y1="109.168" x2="216.739" y2="109.168"/>
		<line style="&st20;" x1="162.342" y1="109.829" x2="216.739" y2="109.829"/>
		<line style="&st20;" x1="162.342" y1="110.426" x2="216.739" y2="110.426"/>
		<line style="&st20;" x1="162.342" y1="111.181" x2="216.739" y2="111.181"/>
		<line style="&st20;" x1="162.342" y1="111.841" x2="216.739" y2="111.841"/>
		<line style="&st20;" x1="162.342" y1="112.439" x2="216.739" y2="112.439"/>
		<line style="&st20;" x1="162.342" y1="113.036" x2="216.739" y2="113.036"/>
		<line style="&st20;" x1="162.342" y1="113.697" x2="216.739" y2="113.697"/>
		<line style="&st20;" x1="162.342" y1="114.294" x2="216.739" y2="114.294"/>
	</g>
	<path style="&st21;" d="M216.969,91.16h-4.515h-45.027h-7.546v2.012h2.453v8.553h-2.453v1.761h7.546h45.027h4.515
		c2.5,0,4.528-2.027,4.528-4.528v-3.27C221.497,93.187,219.469,91.16,216.969,91.16z"/>
	<g>
		<rect x="162.342" y="93.164" style="&st41;" width="54.397" height="8.553"/>
		<line style="&st20;" x1="162.342" y1="94.202" x2="216.739" y2="94.202"/>
		<line style="&st20;" x1="162.342" y1="94.862" x2="216.739" y2="94.862"/>
		<line style="&st20;" x1="162.342" y1="95.459" x2="216.739" y2="95.459"/>
		<line style="&st20;" x1="162.342" y1="96.183" x2="216.739" y2="96.183"/>
		<line style="&st20;" x1="162.342" y1="96.843" x2="216.739" y2="96.843"/>
		<line style="&st20;" x1="162.342" y1="97.44" x2="216.739" y2="97.44"/>
		<line style="&st20;" x1="162.342" y1="98.195" x2="216.739" y2="98.195"/>
		<line style="&st20;" x1="162.342" y1="98.855" x2="216.739" y2="98.855"/>
		<line style="&st20;" x1="162.342" y1="99.453" x2="216.739" y2="99.453"/>
		<line style="&st20;" x1="162.342" y1="100.05" x2="216.739" y2="100.05"/>
		<line style="&st20;" x1="162.342" y1="100.71" x2="216.739" y2="100.71"/>
		<line style="&st20;" x1="162.342" y1="101.308" x2="216.739" y2="101.308"/>
	</g>
	<path style="&st23;" d="M216.969,78.079h-4.515h-45.027h-7.546v2.012h2.453v8.553h-2.453v1.761h7.546h45.027h4.515
		c2.5,0,4.528-2.027,4.528-4.528v-3.27C221.497,80.106,219.469,78.079,216.969,78.079z"/>
	<g>
		<rect x="162.342" y="80.083" style="&st41;" width="54.397" height="8.553"/>
		<line style="&st20;" x1="162.342" y1="81.121" x2="216.739" y2="81.121"/>
		<line style="&st20;" x1="162.342" y1="81.781" x2="216.739" y2="81.781"/>
		<line style="&st20;" x1="162.342" y1="82.379" x2="216.739" y2="82.379"/>
		<line style="&st20;" x1="162.342" y1="83.102" x2="216.739" y2="83.102"/>
		<line style="&st20;" x1="162.342" y1="83.763" x2="216.739" y2="83.763"/>
		<line style="&st20;" x1="162.342" y1="84.36" x2="216.739" y2="84.36"/>
		<line style="&st20;" x1="162.342" y1="85.114" x2="216.739" y2="85.114"/>
		<line style="&st20;" x1="162.342" y1="85.775" x2="216.739" y2="85.775"/>
		<line style="&st20;" x1="162.342" y1="86.372" x2="216.739" y2="86.372"/>
		<line style="&st20;" x1="162.342" y1="86.97" x2="216.739" y2="86.97"/>
		<line style="&st20;" x1="162.342" y1="87.63" x2="216.739" y2="87.63"/>
		<line style="&st20;" x1="162.342" y1="88.228" x2="216.739" y2="88.228"/>
	</g>
</g>
<g id="图层_5">
	<path style="&st63;" d="M449.764,302.907c-1.682,0.771-3.352,2.071-5.022,2.071c-12.53,0-25.062-2.601-37.991-0.455
		c-2.061,0.14-4.122,0.289-6.188,0.45c-2.065,0.162-4.131,0.335-6.201,0.517c-3.076,0.003-6.21,0.003-9.38,0.003
		c-29.058,0-61.207,0-91.328,0c-3.01,0-6.003,0-8.956-0.01c-2.153,0.038-4.215-0.065-6.24-0.252
		c-2.027-0.187-4.015-0.458-6.034-0.75c-7.433-1.276-14.663-1.16-21.855-0.38c-2.396,0.262-4.79,0.599-7.188,0.979
		c-12.496-0.103-29.204,12.911-35.887,3.803c-3.447-4.879-3.837-10.216-3.033-15.759c0.27-1.847,0.67-3.712,1.137-5.573
		c3.747-14.981,2.935-30.722-5.146-44.828c-6.318-11.027-25.885-21.328-19.675-34.529c8.627-18.34,36.213-25.213,58.405-28.866
		c29.256-4.812,59.884-7.665,89.735-8c4.821-0.056,9.816-0.053,14.932,0.017c5.12,0.069,10.38,0.249,15.8,0.679
		c18.482,1.982,37.126,3.534,55.282,6.672c2.595,0.447,5.178,0.929,7.751,1.448c19.339,3.82,39.388,10.328,50.25,23.99
		c6.68,9.109,1.67,19.518-7.765,26.502c-1.249,0.932-2.454,1.906-3.571,2.965c-1.115,1.055-2.146,2.192-3.047,3.45
		c-1.443,1.567-2.783,3.201-3.984,4.885c-4.797,6.732-7.288,14.182-7.26,22.578c-0.545,1.939-1.069,3.892-1.531,5.847
		c-2.308,9.785-2.753,19.758-0.296,28.972C447.967,301.583,449.764,302.907,449.764,302.907z"/>
	<linearGradient id="SVGID_1_" gradientUnits="userSpaceOnUse" x1="225.7832" y1="307.8345" x2="427.7427" y2="307.8345">
		<stop  offset="0" style="stop-color:#FFFFFF"/>
		<stop  offset="1" style="stop-color:#000000"/>
	</linearGradient>
	<ellipse style="&st26;" cx="326.763" cy="307.833" rx="100.98" ry="4.288"/>
</g>
<g id="图层_4">
	<path style="&st10;" d="M199.781,233.209c-5.622-6.955-16.48-12.81-28.262-12.141c-2.832,0.035-5.752,0.325-8.637,0.805
		c-14.45,2.394-28.015,9.514-36.347,19.201c-1.817,1.6-3.486,3.229-4.893,4.928c-2.814,3.395-4.581,7.061-4.919,10.912
		c-0.602,6.852,4.478,15.195,11.77,16.721c6.03,1.259,11.631,0.594,16.926-1.082c-0.045,0.843-0.1,1.696-0.137,2.535
		c-0.086,1.993-0.15,3.966-0.182,5.923c1.8,15.298-10.939,34.815,8.17,45.876c2.387,1.384,4.664,2.249,6.846,2.687
		c2.182,0.438,4.271,0.453,6.29,0.149c6.097-1.9,12.231-4.035,18.128-6.529c1.964-0.832,3.904-1.703,5.795-2.618
		c2.306-1.04,4.387-2.234,6.266-3.565c1.879-1.327,3.553-2.789,5.037-4.362c9.234-18.729,10.069-41.5,5.44-60.96
		c-0.642-2.239-1.218-4.441-1.681-6.592c-0.635-1.547-1.306-3.09-2.017-4.634c-0.711-1.545-1.459-3.087-2.248-4.639
		C200.587,234.517,200.132,233.614,199.781,233.209z"/>
	<path style="&st10;" d="M451.684,233.209c5.622-6.955,16.48-12.81,28.26-12.141c2.833,0.035,5.754,0.325,8.637,0.805
		c14.452,2.394,28.016,9.514,36.351,19.201c1.815,1.6,3.484,3.229,4.891,4.928c2.814,3.395,4.581,7.061,4.919,10.912
		c0.602,6.852-4.478,15.195-11.77,16.721c-6.029,1.259-11.629,0.594-16.926-1.082c0.044,0.843,0.099,1.696,0.136,2.535
		c0.085,1.993,0.15,3.966,0.184,5.923c-1.802,15.298,10.938,34.815-8.172,45.876c-2.389,1.384-4.666,2.249-6.847,2.687
		s-4.271,0.453-6.291,0.149c-6.095-1.9-12.23-4.035-18.125-6.529c-1.967-0.832-3.905-1.703-5.798-2.618
		c-2.304-1.04-4.385-2.234-6.264-3.565c-1.88-1.327-3.555-2.789-5.038-4.362c-9.232-18.729-10.069-41.5-5.439-60.96
		c0.641-2.239,1.217-4.441,1.683-6.592c0.632-1.547,1.302-3.09,2.012-4.634c0.714-1.545,1.462-3.087,2.25-4.639
		C450.878,234.517,451.335,233.614,451.684,233.209z"/>
</g>
<g id="图层_3">
</g>
<g id="图层_2">
</g>
<g id="图层_1">
	<path style="&st25;" d="M479.584,333.767c0.004,1.555-1.114,2.965-2.924,3.985c-1.809,1.021-4.307,1.649-7.067,1.649H182.41
		c-5.521,0-9.996-2.522-9.996-5.635c0,0,0-1.693,0-4.406c0.009-26.938,34.771-37.504,74.023-41.662
		c3.27-0.348,6.574-0.649,9.904-0.891c12.857-0.921,25.759-1.383,38.67-1.686c2.581-0.059,5.164-0.113,7.746-0.165
		c26.916-0.464,53.648,0.481,80.039,1.933c2.471,0.173,4.945,0.366,7.424,0.577c2.482,0.206,4.962,0.428,7.454,0.674
		c26.398,2.514,58.143,7.252,71.861,21.799c2.586,2.65,4.712,5.572,6.316,8.796c1.604,3.225,2.687,6.749,3.18,10.602
		C479.494,332.066,479.584,333.767,479.584,333.767z"/>
	<path style="&st53;" d="M165.558,353.623c-3.511,3.592-11.455,4.951-16.702,4.651c-6.043-0.347-12.017-2.695-14.845-7.101
		c-1.669-2.601-2.505-5.277-2.854-7.988c-0.35-2.709-0.214-5.452,0.059-8.194c0.422-5.399,1.038-10.969,1.218-16.551
		c0.06-1.861,0.073-3.726,0.02-5.587c0.723-11.777-5.125-22.188-12.073-32.899c-0.859-1.435-1.697-2.872-2.485-4.309
		c-3.939-7.182-6.613-14.298-2.262-21.414c4.177-7.809,20.049-6.506,28.402-0.65c1.255,0.976,2.42,1.997,3.506,3.056
		c18.215,18.415,22.391,41.838,24.301,63.882c0.197,1.938,0.333,3.873,0.4,5.806c0.132,3.868-0.007,7.732-0.477,11.585
		c-0.605,4.972-2.277,10.896-5.734,15.184C165.883,353.274,165.725,353.451,165.558,353.623z"/>
	<path style="&st53;" d="M485.906,353.623c3.512,3.592,11.457,4.951,16.701,4.651c6.044-0.347,12.018-2.695,14.845-7.101
		c1.672-2.601,2.506-5.277,2.856-7.988c0.349-2.709,0.211-5.452-0.059-8.194c-0.422-5.399-1.04-10.969-1.219-16.551
		c-0.062-1.861-0.073-3.726-0.02-5.587c-0.723-11.777,5.124-22.188,12.073-32.899c0.858-1.435,1.696-2.872,2.485-4.309
		c3.938-7.182,6.611-14.298,2.262-21.414c-4.177-7.809-20.051-6.506-28.404-0.65c-1.253,0.976-2.419,1.997-3.505,3.056
		c-18.214,18.415-22.393,41.838-24.301,63.882c-0.196,1.938-0.333,3.873-0.397,5.806c-0.136,3.868,0.004,7.732,0.475,11.585
		c0.605,4.972,2.276,10.896,5.736,15.184C485.582,353.274,485.737,353.451,485.906,353.623z"/>
	<path style="&st5;" d="M483.204,346.27c0,5.581-4.488,10.109-10.025,10.109H177.424c-5.536,0-10.023-4.528-10.023-10.109v-4.739
		c0-5.583,4.487-10.109,10.023-10.109h295.754c5.537,0,10.025,4.526,10.025,10.109V346.27z"/>
</g>
<g id="图层_8">
	<rect x="604.404" y="277.866" style="&st64;" width="6.649" height="84.232"/>
	<rect x="679.401" y="277.866" style="&st44;" width="6.65" height="84.232"/>
</g>
<g id="图层_10">
	<g>
		<path style="&st52;" d="M16.07,377.296c-4.742,0-8.981-0.653-11.793-1.678c-0.404-0.146-0.778-0.302-1.149-0.475
			c-0.503-0.114-1.399-0.511-2.106-1.025C0.502,374.486,0,374.733,0,375.48c0,1.108,2.216,2.217,3.128,2.427
			c0.371,0.174,0.746,0.327,1.149,0.474c2.812,1.026,7.051,1.678,11.793,1.678c8.468,0,15.333-2.079,15.333-4.648
			c0-0.481-0.242-0.945-0.688-1.381C28.775,375.921,22.953,377.296,16.07,377.296z"/>
		<path style="&st4;" d="M4.277,375.619c2.812,1.024,7.051,1.678,11.793,1.678c6.883,0,12.705-1.375,14.645-3.268
			c-1.94-1.894-7.762-3.268-14.645-3.268c-4.234,0-8.066,0.52-10.841,1.359c-0.554,0.169-1.067,0.351-1.532,0.542
			c-0.741,0.302-1.392,0.45-1.963,0.767c-0.205,0.307-0.459,0.513-0.712,0.689c0.707,0.515,1.603,0.911,2.106,1.025
			C3.499,375.317,3.874,375.472,4.277,375.619z"/>
	</g>
</g>
<g id="图层_9">
	<polyline style="&st14;" points="641.453,218.317 641.453,160.809 649.671,124.792 	"/>
	<line style="&st51;" x1="641.453" y1="175.773" x2="626.131" y2="153.606"/>
	<line style="&st51;" x1="635.938" y1="180.792" x2="616.327" y2="162.313"/>
	<line style="&st51;" x1="643.184" y1="153.606" x2="630.223" y2="134.858"/>
	<line style="&st51;" x1="654.115" y1="160.328" x2="641.864" y2="189.002"/>
	<line style="&st51;" x1="662.058" y1="169.442" x2="651.971" y2="183.78"/>
	<line style="&st14;" x1="660.88" y1="137.538" x2="645.773" y2="215.686"/>
	<line style="&st51;" x1="625.808" y1="132.815" x2="641.776" y2="210.291"/>
	<path style="&st52;" d="M18.01,371.376c0,1.838-0.744,3.325-1.663,3.325l0,0c-0.917,0-1.662-1.487-1.662-3.325V47.211
		c0-1.836,0.744-3.325,1.662-3.325l0,0c0.918,0,1.663,1.489,1.663,3.325V371.376z"/>
	<path style="&st17;" d="M17.929,371.117c0,1.836-0.351,3.323-0.785,3.323l0,0c-0.434,0-0.784-1.487-0.784-3.323V46.949
		c0-1.836,0.351-3.323,0.784-3.323l0,0c0.434,0,0.785,1.487,0.785,3.323V371.117z"/>
	<path style="&st17;" d="M45.983,28.064c-0.503-0.842-1.889-0.937-3.092-0.216L16.053,43.932c-1.206,0.722-1.775,1.988-1.271,2.829
		l0,0c0.504,0.84,1.888,0.936,3.094,0.213l26.836-16.082C45.918,30.169,46.486,28.903,45.983,28.064L45.983,28.064z"/>
	<path style="&st17;" d="M53.039,55.17c-0.844,0.252-1.887-0.751-2.33-2.24l-6.663-22.378c-0.443-1.488-0.119-2.899,0.724-3.149l0,0
		c0.844-0.251,1.887,0.751,2.329,2.241l6.665,22.378C54.206,53.508,53.882,54.919,53.039,55.17L53.039,55.17z"/>
	<g>
		<path style="&st55;" d="M51.044,55.001c-0.195-0.821,0.312-1.641,1.132-1.833l0.627-0.15c-0.062,0.007-0.123,0.011-0.183,0.024
			l-2.158,0.512c-0.818,0.195-1.327,1.015-1.132,1.834s1.016,1.326,1.835,1.131l1.531-0.362
			C51.941,56.24,51.223,55.757,51.044,55.001z"/>
		<path style="&st17;" d="M56.167,53.787c-0.194-0.818-1.016-1.326-1.834-1.131l-1.53,0.361l-0.627,0.15
			c-0.819,0.192-1.327,1.012-1.132,1.833c0.179,0.756,0.897,1.239,1.652,1.155c0.061-0.007,0.122-0.01,0.182-0.024l2.158-0.511
			C55.854,55.427,56.36,54.606,56.167,53.787z"/>
	</g>
	<path style="&st24;" d="M93.914,102.613c-6.08,3.054-11.622,5.27-16.632,9.176c-0.454,0.304-0.9,0.61-1.337,0.921
		c-0.515,0.248-1.032,0.478-1.557,0.686c-1.048,0.41-2.122,0.729-3.244,0.903c-0.641-0.073-1.275-0.087-1.903-0.051
		c-6.341,0.361-11.663,4.923-18.186,4.415c-2.351-0.182-3.993-0.946-5.386-2.891c-2.887-4.028-4.166-9.055-4.85-13.878
		c-0.757-5.343-1.011-10.76-0.437-16.134c0.35-3.26,0.961-6.535,1.806-9.705c0.601-2.258,1.363-4.511,2.35-6.634
		c1.441-3.102,5.737-11.021,9.19-11.911c1.129-0.293,2.239-0.411,3.33-0.376c1.429,0.246,2.794,0.624,4.08,1.138
		c0.951,0.506,1.909,1.03,2.87,1.569c0.96,0.541,1.921,1.104,2.88,1.681c4.539,3.216,9.357,6.946,13.542,11.368
		c0.867,0.896,1.709,1.82,2.56,2.809c0.69,0.838,1.381,1.704,2.069,2.596c0.688,0.895,1.371,1.819,2.04,2.777
		c4.066,5.151,6.384,11.02,6.972,17.527c0.053,0.592,0.091,1.188,0.117,1.79c0.026,0.657-0.007,1.322-0.183,1.99
		C93.979,102.457,93.948,102.535,93.914,102.613z"/>
	<path style="&st52;" d="M44.271,28.039c0,0-0.643,0.286-0.345,2.071l6.988,23.655l0.825-0.515L44.271,28.039z"/>
	<path style="&st52;" d="M44.3,31.13c-0.165-0.341-0.289-0.684-0.384-1.031c-4.073,1.64-28.998,16.77-28.998,16.77
		s0.74,1.204,2.773,0.178l26.457-15.537c0,0,0.068-0.039,0.158-0.089C44.303,31.323,44.298,31.227,44.3,31.13z"/>
	<path style="&st53;" d="M347.127,314.304c0.071-0.062,0.124-0.093,0.115-0.048c0.1-0.192,0.209-0.402,0.198-0.314
		c0.273-0.925,0.327-1.821,0.333-2.893c-2.573-1.294-5.366-0.557-7.538-0.735c-0.582,0.003-1.171-0.004-1.768-0.041
		c-0.686-0.133-1.373-0.285-2.06-0.472c-1.372-0.375-2.742-0.891-4.085-1.688c-0.804-0.155-1.629-0.32-2.474-0.491
		c-30.419-6.077-87.038-17.39-87.038-17.39s-2.521,3.53-5.54,7.758c-0.604,0.846-1.228,1.72-1.856,2.598
		c-0.45,0.639-0.914,1.299-1.378,2.01c-1.285,2.642-2.186,5.2-3.157,7.717c0.387,0.57,0.617,1.293,0.589,2.182
		c-0.071,2.222,0.499,4.805,2.534,5.637c0.66,0,1.181-0.022,1.435-0.088c7.786-2.013,15.397-5.599,23.334-6.225
		c16.473-1.298,33.866-5.69,50.307-3.028c8.756,1.417,17.198,5.414,25.847,7.858h0.03c0.687,0.008,1.374,0.013,2.061,0.018
		c1.295,0.394,2.529,0.401,3.734,0.215c0.602-0.092,1.197-0.234,1.79-0.4C344.195,315.713,345.606,314.873,347.127,314.304z"/>
	<path style="&st53;" d="M309.694,303.936c-0.552,0.002-1.111-0.003-1.679-0.026c-0.65-0.087-1.304-0.186-1.956-0.308
		c-1.304-0.244-2.604-0.579-3.88-1.098c-0.764-0.102-1.547-0.209-2.35-0.319c-28.895-3.955-82.678-11.315-82.678-11.315
		s-2.395,2.297-5.263,5.048c-0.574,0.551-1.167,1.119-1.763,1.69c-0.428,0.415-0.868,0.845-1.309,1.308
		c-1.464,2.062-2.403,4.046-3.564,5.997c0.661,1.127,1.475,2.149,2.524,2.534c1.347,0.493,2.748,0.817,4.158,1.11
		c1.401-0.396,2.774-0.893,4.098-1.494c0.673-0.244,1.354-0.473,2.043-0.688c0.613-0.142,1.229-0.265,1.847-0.357
		c0.618-0.094,1.239-0.157,1.861-0.184c0.632-0.036,1.269-0.058,1.908-0.061c0.083,0,0.168,0.004,0.251,0.005
		c0.379-0.315,0.839-0.574,1.402-0.745c4.566-1.385,8.587-4.199,13-6c1.947-0.795,4.229,0.847,4.736,2.689
		c0.607,2.206-0.748,3.944-2.689,4.736c-0.256,0.104-0.505,0.222-0.758,0.332c-0.029,0.043-0.051,0.09-0.082,0.132
		c2.01,0.039,4.011,0.052,6.013,0.026c0.684-0.009,1.367-0.021,2.052-0.046c7.94-0.807,14.94-1.807,23.225-2.811
		c0.732-0.134,1.465-0.259,2.197-0.366c4.393-0.642,8.768-0.654,13.019,1.321c0.454,0.094,0.914,0.192,1.378,0.294
		c2.61,0.572,5.359,1.271,7.982,2.109c0.524,0.168,1.044,0.341,1.559,0.518c2.527,0.043,5.1,0.071,7.704,0.09
		c0.651,0.005,1.305,0.009,1.957,0.011c1.229,0.257,2.402,0.262,3.547,0.141c0.572-0.061,1.138-0.152,1.7-0.261
		c2.672-0.853,4.672-1.853,7.672-1.853C316.557,303.097,312.557,304.097,309.694,303.936z"/>
</g>
<g id="图层_7">
	<polygon style="&st58;" points="725.95,267.799 566.351,267.799 581.87,255.396 709.325,255.396 	"/>
	<rect x="566.351" y="267.799" style="&st16;" width="159.599" height="10.066"/>
	<path style="&st1;" d="M645.277,232.354"/>
	<polyline style="&st41;" points="659.069,233.638 653.354,195.667 631.744,195.667 626.175,234.979 	"/>
	<path d="M623.777,251.923l-0.9,6.35c0,3.426,8.931,6.201,19.949,6.201c11.018,0,19.95-2.775,19.95-6.201l-0.728-4.836
		c-4.791,1.237-10.562,1.959-16.771,1.959C636.847,255.396,629.234,254.065,623.777,251.923z"/>
	<path style="&st41;" d="M625.228,241.983l-1.451,9.94c0,3.424,8.699,4.08,19.049,4.08c10.351,0,19.223,0.857,19.223-2.566
		l-1.724-11.454c-4.501,1.237-9.361,4.939-15.196,4.939C637.211,246.922,630.357,244.125,625.228,241.983z"/>
	<path d="M626.019,235.496l-0.791,6.35c0,3.425,7.85,6.202,17.538,6.202c9.684,0,17.537-2.777,17.537-6.202l-0.641-4.836
		c-4.213,1.236-9.283,1.959-14.743,1.959C637.51,238.968,630.815,237.637,626.019,235.496z"/>
	<path style="&st41;" d="M627.346,226.629l-1.354,9.072c0,3.424,7.844,3.48,16.748,3.48c8.901,0,16.991,1.769,16.991-1.655
		l-1.459-9.385c-3.872,1.236-8.534,1.959-13.552,1.959C637.91,230.101,631.756,228.77,627.346,226.629z"/>
	<path d="M628.58,217.627l-0.889,7.041c0,3.423,6.735,6.2,15.046,6.2c8.313,0,15.051-2.777,15.051-6.2l-0.867-5.287
		c-3.613,1.24-7.647,2.409-12.334,2.409C638.229,221.791,632.699,219.768,628.58,217.627z"/>
	<path d="M630.99,200.976l-0.912,6.537c0,3.423,5.345,5.729,12.364,5.729c7.021,0,12.683-2.393,12.683-5.818l-0.773-5.086
		c-3.051,1.234-6.389,1.825-10.346,1.825C638.633,204.164,634.469,203.118,630.99,200.976z"/>
	<line style="&st41;" x1="623.777" y1="251.923" x2="626.175" y2="234.979"/>
	<line style="&st41;" x1="659.069" y1="233.638" x2="662.048" y2="253.437"/>
	<path style="&st2;" d="M305.92,247.52c3.67,10.516-21.042,19.283-28.453,22.696c-12.896,5.937-25.639,12.387-37.486,20.29
		c-7.535,5.03-16.28,17.104-26.591,13.237c-12.805-4.81-9.415-25.18-15.546-34.809c-5.932-9.316-10.172-18.886-18.418-26.54
		c-4.274-3.966-12.621-11.089-5.336-17.167c0.734-0.738,1.508-1.416,2.312-2.04c0.803-0.622,1.642-1.191,2.503-1.73
		c2.878-1.952,5.987-3.555,9.209-4.986c1.072-0.479,2.162-0.937,3.257-1.381c21.918-8.933,42.794-22.49,59.704-38.98
		c1.167-1.138,2.342-2.091,3.643-2.554c1.298-0.46,2.719-0.423,4.335,0.353c12.691,6.108,12.644,28.785,19.761,39.55
		c6.883,10.411,16.481,18.683,23.591,28.855c0.848,1.213,1.644,2.461,2.367,3.763C305.55,247.012,305.917,247.509,305.92,247.52z"/>
	<path style="&st48;" d="M273.492,199.352c0.021,0.84,0.762,2.068,0.819,2.997c0.045,0.455,0.044,0.909-0.017,1.354
		c-0.125,0.892-0.502,1.732-1.303,2.443c-0.403,0.484-0.87,0.938-1.39,1.372c-3.294,2.752-7.297,5.196-11.492,6.266
		c-6.849,1.743-15.24-1.728-18.796,6.667c-0.357,0.474-0.729,0.932-1.104,1.384c-1.875,2.264-3.81,4.443-6.754,5.163
		c-2.72,0.668-5.64,0.238-8.317,1.043c-3.037,0.91-4.152,3.163-5.609,5.735c-1.463,2.587-3.429,5.319-6.18,6.656
		c-3.066,1.492-5.112,0.024-8.206,0.011c-1.705-0.004-3.555,0.841-4.997,1.671c-3.921,2.256-10.405,13.102-15.787,6.027
		c-0.398-0.519-0.675-1.155-0.778-1.913c-1.761-3.924-0.146-7.633,2.87-10.315c3.727-3.307,8.635-2.804,12.775-5.039
		c4.899-2.644,6.958-7.959,11.035-11.466c4.336-3.726,11.42-3.871,16.739-5.388c4.445-1.266,7.001-4.911,10.452-7.66
		c0.566-0.581,1.139-1.145,1.723-1.688c4.111-3.826,9.015-5.591,14.584-6.415c5.708-0.843,7.529-5.675,12.333-8.041
		c0.456-0.225,0.935-0.356,1.438-0.36c3.86-0.117,5.229,4.923,5.445,7.893L273.492,199.352z"/>
	<path style="&st48;" d="M286.411,223.31c0.938,1.083,1.676,2.259,1.771,3.802c0.223,3.638-4.649,6.273-7.458,7.671
		c-2.862,1.424-6.346,1.695-9.417,0.977c-3.672-0.856-6.708-1.163-10.272,0.144c-0.54,0.195-1.062,0.446-1.567,0.742
		c-4.087,2.422-4.595,7.427-8.232,10.091c-2.147,1.576-4.815,2.355-7.467,2.37c-2.547,0.016-5.354-0.65-7.751,0.506
		c-3.288,1.577-3.457,6.076-5.866,8.541c-3.038,3.107-8.031,4.742-12.32,4.806c-1.628,0.022-3.255-0.149-4.815,0.438
		c-4.302,1.613-5.546,9.776-10.652,9.102c-1.139-0.15-2.21-0.708-3.156-1.533c-0.473-0.411-0.91-0.892-1.277-1.427
		c-1.627-2.829-1.187-6.486,0.271-9.377c0.292-0.581,0.628-1.128,1.005-1.638c1.264-1.647,2.492-2.389,4.335-3.5
		c1.312-0.792,3.82-0.649,5.295-0.834c1.937-0.242,3.943-0.55,5.637-1.585c3.418-2.092,4.739-6.8,7.693-9.421
		c2.694-2.399,6.528-4.601,10.107-5.224c1.945-0.338,4.245-0.289,6.159,0.229c1.265,0.339,2.458,0.556,3.773,0.43
		c2.842-0.264,5.204-1.313,7.158-3.415c0.307-0.327,0.605-0.676,0.896-1.037c0.292-0.36,0.578-0.735,0.861-1.128
		c1.989-5.439,7.269-7.792,12.214-8.717c0.714-0.156,1.422-0.316,2.124-0.487c2.409-0.603,4.155-1.086,5.811-3.044
		c2.013-2.379,4.102-5.757,7.75-4.58c1.352,0.438,2.524,1.354,3.506,2.356c1.038,1.058,1.688,2.428,2.726,3.502
		C285.652,222.48,286.045,222.885,286.411,223.31z"/>
	<path style="&st48;" d="M303.013,243.096c0.952,1.088,1.575,2.48,1.597,3.933c0.006,0.488-0.047,1.016-0.179,1.621
		c-0.237,0.434-0.574,0.847-1.023,1.234c-0.458,0.515-0.986,1.004-1.567,1.478c-2.251,1.824-4.65,3.822-7.475,4.663
		c-3.255,0.961-6.113,1.104-9.426,0.547c-3.649-0.612-6.652-0.507-10.099,0.829c-0.591,0.228-1.169,0.51-1.726,0.841
		c-3.908,2.323-4.839,6.651-7.965,9.637c-2.645,2.523-6.285,3.816-9.915,3.996c-3.202,0.162-7.12-0.551-9.653,1.925
		c-1.368,1.336-1.983,3.182-2.834,4.845c-1.912,3.718-5.594,5.931-9.431,7.243c-3.818,1.305-8.043,0.66-11.747,2.115
		c-4.704,1.85-6.382,10.38-11.914,9.93c-1.223-0.101-2.352-0.619-3.333-1.422c-0.49-0.402-0.939-0.873-1.312-1.409
		c-1.841-3.215-0.846-7.091,0.979-10.013c2.21-3.53,5.285-4.997,9.233-5.942c4.761-1.14,8.836-1.449,11.732-5.903
		c0.438-0.675,0.913-1.346,1.414-2.001c2.859-3.733,6.558-6.731,10.842-8.663c4.228-1.901,7.853-2.021,12.362-1.62
		c3.354,0.296,6.591-0.235,9.26-2.394c2.788-2.255,4.254-5.642,6.737-8.169c2.721-2.77,6.608-4.204,10.327-5.029
		c0.779-0.197,1.554-0.394,2.318-0.607c3.062-0.851,5.036-1.689,7.141-4.135c2.137-2.482,4.631-5.412,8.279-4.253
		c3.161,1.002,4.581,4.071,6.868,6.197C302.679,242.737,302.85,242.912,303.013,243.096z"/>
	<path style="&st36;" d="M344.249,289.009c-0.263-1.497-0.567-2.981-0.938-4.448c-0.741-2.934-1.742-5.796-3.157-8.539
		c-0.786-1.371-1.653-2.774-2.557-4.173c-0.489-1.896-0.632-3.853-0.606-5.828c0.017-1.483,0.106-2.972,0.248-4.467
		c1.159-10.076,0.504-19.483,2.2-28.831c0.1-0.551,0.209-1.1,0.325-1.65c0.104-5.561,3.08-10.516,3.343-16.271
		c0.072-0.543,0.135-1.092,0.202-1.649c0.137-1.112,0.285-2.251,0.475-3.428c0.031-0.485,0.076-0.971,0.138-1.45
		c-0.053-2.745,2.069-7.769,1.631-11.352c-0.055-0.448-0.149-0.872-0.285-1.247c-1.117-0.945-2.295-1.255-3.525-1.286
		c-3.206,1.521-6.277,3.397-9.663,4.546c-12.233,4.15-27.216,5.079-40.083,4.812c-12.14-0.25-28.959,6.851-39.91-0.882
		c-1.515-1.072-20.546-6.527-20.546-4.226c0,0,0,0.549,0,1.574c-0.373,1.742-0.312,3.604-0.031,5.53
		c0.278,1.92,0.774,3.904,1.27,5.887c0.746,0.992,1.487,1.983,2.186,2.975c0.695,0.992,1.347,1.983,1.905,2.977
		c6.816,12.889,0.867,26.771,4.018,39.238c0.264,1.551,0.459,3.103,0.567,4.649c0.646,9.281-2.025,18.237-6.923,28.135
		c-0.194,2.252-0.51,4.51-0.959,6.778c-0.45,2.268-1.038,4.543-1.781,6.827c-0.019,1.09-0.014,2.19-0.01,3.288
		c0.003,1.1,0.005,2.198,0.005,3.3c0.001,1.321,0.001,2.643,0.001,3.966c10.908-4.96,21.815-9.917,33.715-8.925
		c8.923,0.991,17.848,0.991,26.606,0.025c1.709-0.271,3.423-0.479,5.134-0.612c8.026-1.52,15.654-0.55,23.156,1.489
		c1.251,0.337,2.499,0.708,3.745,1.096c7.793,2.96,16.717,3.951,24.174,4.232c0,0-0.145-1.092-0.478-3.021
		C345.818,301.865,345.818,294.924,344.249,289.009z"/>
	<path style="&st41;" d="M263.023,206.03c-0.627,0.002-1.165-0.125-1.628-0.341c-2.543-0.051-5.116-0.606-7.344-1.675
		c-0.15-0.049-0.303-0.09-0.455-0.144c-0.985-0.28-1.977-0.667-2.969-1.162c-0.25,1.239-0.496,2.415-0.727,3.562
		c-0.232,1.147-0.451,2.262-0.637,3.378c-0.62,1.982-1.611,5.949,0.373,5.949c3.966,1.984,7.933,0.991,11.579,1.064
		c1.404,0.025,2.845,0.056,4.351,0.102c0,0,0.019-0.254,0.056-0.699c0.037-0.441,0.088-1.073,0.154-1.827
		c-0.156-0.573-0.25-1.139-0.285-1.69c-0.788-3.125,2.888-4.385,3.851-6.814C267.279,205.932,265.183,206.022,263.023,206.03z"/>
	<path style="&st41;" d="M265.39,249.227c0,0-1.02,0-2.535-0.003c-1.321,0.021-2.746,0.162-4.141,0.253
		c-1.394,0.088-2.759,0.128-3.954-0.051c-9.09-2.099,0.824-11.021-3.142-16.972c0.992,0,2.974,0,3.828-0.263
		c1.286-0.141,2.554-0.295,3.732-0.357c2.355-0.125,4.339,0.124,5.329,1.611c2.976,1.984,0.994,7.933,0.903,13.114
		C265.39,248.163,265.39,249.227,265.39,249.227z"/>
	<path style="&st41;" d="M281.695,265.663c0,0-4.077,0-8.153,0c-2.038,0-4.077,0-5.604,0c-2.436,0.504-3.43-0.485-2.539-2.661
		c-0.005-1.596-0.009-3.728-0.009-5.858c0-4.26,0-8.521,0-8.521h16.305V265.663z"/>
	<path style="&st41;" d="M314.305,265.663c0,0-4.074,0-8.152,0c-4.075,0-8.151,0-8.151,0v-17.041h16.304c0,0,0,4.262,0,8.521
		C314.305,261.402,314.305,265.663,314.305,265.663z"/>
	<path style="&st41;" d="M336.958,265.667c-3.038,3.477-7.997-0.489-8.989-4.457c-0.246-1.237-0.309-2.54-0.2-3.812
		c1.192-3.128,1.192-7.095,4.168-8.087c5.949-0.992,4.957,6.941,4.797,9.522c-0.123,1.626-0.219,3.196-0.014,4.46
		C336.867,264.705,336.958,265.667,336.958,265.667z"/>
	<path style="&st41;" d="M251.436,267.662c-2.792,0.49-5.766,2.473-7.75-1.495c-0.495-0.989-0.991-1.98-1.439-2.974
		c-0.451-0.99-0.854-1.983-1.163-2.975c-2.357-5.948,2.602-11.899,8.242-7.609c0.738,0.915,1.206,2.155,1.175,3.641
		c0.308,0.99,0.612,1.976,0.85,2.957c0.476,1.964,0.682,3.905,0.102,5.807C251.471,266.617,251.436,267.662,251.436,267.662z"/>
	<path style="&st41;" d="M265.39,281.84c0,0-1.02,0-2.549,0c-1.53,0-3.565,0-5.583,0.004c-1.673,0.188-4.647,1.181-4.647,0.188
		c-6.941-10.907,1.981-21.814,12.891-15.866c0.991,0,0,3.968-0.108,7.153c-0.004,2.129-0.004,4.26-0.004,5.855
		C265.39,280.773,265.39,281.84,265.39,281.84z"/>
	<rect x="281.549" y="264.798" style="&st41;" width="16.306" height="17.042"/>
	<path style="&st41;" d="M329.077,281.712c-1.305,0.092-2.633,0.275-3.989,0.468c-3.933,0.534-8.024,1.094-11-1.14
		c-0.991-0.991,0-4.956,0.218-7.722c0-2.131,0-4.259,0-5.857c2.759-5.259,8.707-2.284,11.682-2.284c3.717,0,2.974,5.02,2.722,9.643
		c-0.064,1.532-0.079,3.024,0.159,4.268C328.968,280.664,329.077,281.712,329.077,281.712z"/>
	<path style="&st41;" d="M345.759,294.267c-3.907,3.632-9.858,3.632-13.898,0.12c-0.846-0.779-1.486-1.719-1.836-2.793
		c-0.348-1.077-0.402-2.291-0.073-3.613c0-2.972,1.984-6.94,5.949-7.932c5.208-0.742,7.625,2.976,8.88,7.176
		c0.418,1.401,0.706,2.853,0.924,4.2C345.796,293.085,345.759,294.267,345.759,294.267z"/>
	<path style="&st41;" d="M314.287,296.613c-3.174,0.294-6.148,0.294-8.847,0.146c-1.379-0.17-2.688-0.507-3.898-1.109
		c-1.212-0.602-2.328-1.471-3.32-2.71c-1.981-2.975-0.991-5.95-0.22-8.438c0-1.597,0-2.661,0-2.661s9.17,0,13.757,0
		c1.53,0,2.547,0,2.547,0s0,1.064,0,2.636c-0.108,1.753-0.162,3.374-0.162,5.049c0,1.673,0.055,3.38,0.159,5.271
		C314.295,295.914,314.287,296.613,314.287,296.613z"/>
	<path style="&st41;" d="M282.271,297.242c-5.863,1.649-10.82-2.317-16.769,0.657c0-2.975,0-4.959-0.235-7.612
		c-0.023-2.065-0.023-4.187-0.023-5.785c0-1.597,0-2.661,0-2.661h16.305c0,0,0,1.064,0,2.661c-0.587,1.742-0.385,3.604-0.072,5.464
		c0.311,1.849,0.738,3.656,0.601,5.299C282.195,296.482,282.271,297.242,282.271,297.242z"/>
	<path style="&st41;" d="M248.632,297.106c-1.242-0.026-2.536,0.132-3.851,0.344c-4.07,0.449-9.029,1.441-10.019-0.543
		c-0.497-1.652-0.689-3.305-0.63-4.89c0.06-1.582,0.373-3.1,0.893-4.474c1.72-4.519,7.67-9.478,12.626-5.511
		c0.992,0.992,0.992,2.977,1.242,4.96c-0.005,1.237-0.067,2.602-0.133,3.969c-0.063,1.361-0.129,2.726-0.133,3.964
		C248.623,296.264,248.632,297.106,248.632,297.106z"/>
	<path style="&st41;" d="M268.849,306.188c-6.322-0.357-14.256,0.635-18.222-3.332c-5.949-5.949,6.942-7.932,10.907-6.942
		c3.968,1.985,6.941,3.967,6.908,8.8C268.695,305.574,268.849,306.188,268.849,306.188z"/>
	<path style="&st41;" d="M297.779,304.181c-1.13,0.413-2.411,0.785-3.742,1.046c-1.332,0.266-2.713,0.413-4.047,0.348
		c-3.666-0.735-7.632-0.735-6.64-5.694c0-0.989,1.981-1.981,4.462-2.881c1.238-0.464,2.478-0.837,3.469-1.086
		c4.959-0.989,7.933,1.985,6.609,7.02C297.828,303.658,297.779,304.181,297.779,304.181z"/>
	<path style="&st41;" d="M331.222,309.281c-2.261-1.468-4.243-1.468-6.322-1.986c-1.132-0.283-2.272-0.537-3.355-0.83
		c-3.243-0.882-5.971-2.121-6.467-5.592c-0.494-2.974,1.986-4.71,5.207-5.206c1.611-0.247,3.409-0.185,5.113,0.188
		c1.635-0.234,2.921,0.15,3.908,0.923c2.63,3.104,3.621,7.07,1.938,10.813C331.227,308.583,331.222,309.281,331.222,309.281z"/>
	<rect x="281.695" y="232.187" style="&st41;" width="16.307" height="17.04"/>
	<path style="&st41;" d="M329.38,249.246c-3.393,0.065-6.368,0.065-9.28,0.029c-1.109-0.009-2.202-0.025-3.245-0.048
		c-1.53,0-2.55,0-2.55,0v-17.04c0,0,1.02,0,2.537,0.011c2.021-0.453,3.785-0.665,5.312-0.654c7.798,0.911,7.798,8.843,7.332,15.042
		C329.437,248.182,329.38,249.246,329.38,249.246z"/>
	<path style="&st41;" d="M281.695,232.923c0,0-1.018,0-2.547,0c-1.53,0-3.567,0-5.606,0c-3.083-0.469-6.059,0.522-7.049-0.469
		c-1.985-2.976-0.991-7.932-1.061-12.116c0.032-0.885,0.053-1.82,0.062-2.66c0.008-0.84,0.008-1.583,0.008-2.08
		c1.981-0.992,4.957-0.992,6.795-0.589c1.09,0.129,2.176,0.296,3.271,0.446c2.187,0.302,4.408,0.539,6.789,0.143
		c-0.992,1.984-0.992,2.977-0.826,4.461c0.165,1.456,0.497,2.907,0.164,4.327c0,2.146,0,4.275,0,5.872
		C281.695,231.856,281.695,232.923,281.695,232.923z"/>
	<path style="&st41;" d="M314.305,233.657h-16.304c0,0,0-1.065,0-2.661c0-1.601,0-3.729,0-5.89c0.111-1.285-0.083-2.916-0.054-4.601
		c0.027-1.685,0.274-3.413,1.265-4.873c0.989-1.459,2.728-1.499,4.724-1.099c1.994,0.421,4.248,1.268,6.277,1.469
		c1.335,0.15,2.635,0.339,3.874,0.587c0,0,0,1.985,0.218,2.691c0,1.597,0,3.726,0,5.856
		C314.305,229.395,314.305,233.657,314.305,233.657z"/>
	<path style="&st41;" d="M296.453,203.724c-1.902,0.058-3.807,0.058-5.715-0.013c-1.52,0.226-3.046,0.429-4.583,0.521
		c-2.812,2.909-4.179,7.7-4.789,11.365c5.951,0,10.907,0,16.616,0.288c0,0-0.014-1.188-0.057-2.831
		C298.135,209.952,298.182,206.082,296.453,203.724z"/>
	<path style="&st41;" d="M332.079,198.935c-4.585,1.554-9.214,2.412-14.026,2.88c-0.976,0.096-1.952,0.199-2.929,0.302
		c-0.211,0.272-0.437,0.54-0.624,0.833c-0.304,0.478-0.573,0.979-0.808,1.501c-0.939,2.09-1.302,4.523-0.874,7.274
		c0.23,1.51,0.649,3.129,1.268,4.864c0,0,1.983,0,2.762,0.041c1.533-0.011,3.57-0.013,5.602-0.022c1.272-0.008,2.404-0.014,3.612,0
		c1.21,0.016,2.499,0.049,4.082,0.104c0,0,0.172-1.332,0.412-3.438c0.129-1.868,0.103-3.887,0.091-5.966
		c0.03-0.375,0.058-0.756,0.084-1.14c0.082-1.67,0.548-2.992,1.156-4.201c0.201-0.405,0.416-0.794,0.642-1.182
		c-0.472-1.626,1.934-1.959,2.44-3.028C334.026,198.193,333.068,198.6,332.079,198.935z"/>
	<path style="&st41;" d="M338.12,234.828c-7.175,2.585-12.133-7.331-9.094-12.734c0.625-1.318,1.586-2.531,2.911-3.526
		c0.743-1.116,1.591-1.812,2.473-2.175c0.294-0.123,0.593-0.207,0.893-0.261c1.111-0.306,2-0.23,2.714,0.113
		c0.355,0.172,0.668,0.412,0.94,0.703c1.904,4.6,0.913,8.564,0.563,13.313c-0.199,0.392-0.4,0.78-0.602,1.167
		c-0.2,0.391-0.403,0.775-0.596,1.165C338.183,233.94,338.12,234.828,338.12,234.828z"/>
	<path style="&st22;" d="M94.101,100.736c-0.582-1.75-2.843-2.792-6.159-3.146c-3.602,3.424-10.174,7.06-18.101,9.687
		c-8.02,2.66-15.54,3.658-20.474,3.019c-0.94,1.046-1.75,2.337-2.357,4.038c-0.213,0.714-0.228,1.394-0.022,2.015
		c1.449,4.358,13.168,4.397,26.179,0.085C86.175,112.123,95.548,105.093,94.101,100.736z"/>
	<path style="&st6;" d="M69.84,107.277c7.927-2.627,14.5-6.263,18.101-9.687c-4.938-0.526-12.237,0.483-20.018,3.062
		c-1.858,0.617-3.643,1.287-5.331,2c-1.69,0.711-3.285,1.462-4.776,2.247c-3.033,1.75-6.148,2.826-8.45,5.397
		C54.301,110.935,61.821,109.937,69.84,107.277z"/>
	<path style="&st7;" d="M611.649,172.078c0,0,6.682-5.019,12.865-0.181C624.514,171.897,613.402,174.96,611.649,172.078z"/>
	<path style="&st7;" d="M645.508,149.915c0,0,8.344,0.453,9.969,8.133C655.477,158.047,644.997,153.25,645.508,149.915z"/>
	<path style="&st7;" d="M657.788,165.572c0,0,3.254-7.697,11.028-6.621C668.816,158.951,660.751,167.185,657.788,165.572z"/>
	<path style="&st7;" d="M659.06,153.325c0,0,1.197-9.545,7.432-6.784C666.492,146.541,661.644,155.958,659.06,153.325z"/>
	<path style="&st7;" d="M640.417,145.884c0,0,0.508-8.342,8.198-9.913C648.616,135.971,643.75,146.419,640.417,145.884z"/>
	<path style="&st7;" d="M612.555,142.479c0,0,10.452-1.291,14.177,7.877C626.732,150.356,612.66,146.729,612.555,142.479z"/>
	<path style="&st7;" d="M666.939,181.135c0,0-4.726,9.411-14.418,7.422C652.521,188.557,663.344,178.863,666.939,181.135z"/>
	<path style="&st7;" d="M621.902,159.414c0,0,5.697-0.803,7.813,4.171C629.715,163.584,621.999,161.733,621.902,159.414z"/>
	<path style="&st7;" d="M644.468,187.5c0,0,1.7-5.497,7.104-5.296C651.572,182.205,646.609,188.401,644.468,187.5z"/>
	<ellipse style="&st37;" cx="626.224" cy="137.87" rx="6.63" ry="6.014"/>
	<ellipse style="&st32;" cx="660.878" cy="137.538" rx="4.427" ry="4.016"/>
	<path style="&st35;" d="M665.25,169.792c0,1.242-1.105,2.247-2.476,2.247c-1.367,0-2.476-1.005-2.476-2.247
		c0-1.24,1.108-2.245,2.476-2.245C664.144,167.547,665.25,168.552,665.25,169.792z"/>
	<path style="&st31;" d="M620.25,162.313c0,1.968-1.754,3.558-3.923,3.558c-2.168,0-3.922-1.59-3.922-3.558
		c0-1.967,1.754-3.558,3.922-3.558C618.496,158.755,620.25,160.346,620.25,162.313z"/>
	<ellipse style="&st37;" cx="649.672" cy="124.792" rx="10.736" ry="9.737"/>
</g>
<g id="图层_11">
	<path style="&st13;" d="M50.176,109.463c0.697-0.812,1.472-1.54,2.313-2.158c0.781-0.57,3.736-1.781,3.965-2.755
		c0.031-0.136,0.077-0.265,0.102-0.406c0.096-0.54,0.151-1.098,0.142-1.665c-1.006-5.603-5.439-11.329-6.071-17.542
		c-0.175-0.594-0.324-1.186-0.435-1.781c-0.089-0.529-0.162-1.059-0.233-1.586c-0.177-1.587-0.335-3.181-0.562-4.724
		c-0.038-0.618-0.066-1.245-0.089-1.877c-0.153-4.45,0.006-9.344,0.622-14.668c0,0-4.798,7.019-8.188,16.802
		c-0.126,0.364-0.25,0.729-0.371,1.098c-1.196,3.785-2.304,7.225-2.656,11.949c-0.045,0.419-0.085,0.842-0.12,1.265
		c-0.714,9.022,1.492,18.792,7.975,25.401C47.094,114.189,48.375,111.554,50.176,109.463z"/>
</g>
</svg>
