<?xml version="1.0" encoding="utf-8"?>
<!-- Generator: Adobe Illustrator 16.0.4, SVG Export Plug-In . SVG Version: 6.00 Build 0)  -->
<!DOCTYPE svg PUBLIC "-//W3C//DTD SVG 1.1//EN" "http://www.w3.org/Graphics/SVG/1.1/DTD/svg11.dtd">
<svg version="1.1" id="Layer_1" xmlns="http://www.w3.org/2000/svg" xmlns:xlink="http://www.w3.org/1999/xlink" x="0px" y="0px"
	 width="725.949px" height="382.404px" viewBox="0 0 725.949 382.404" enable-background="new 0 0 725.949 382.404"
	 xml:space="preserve">
<g id="图层_13" display="none">
	<rect x="-53.921" y="-187.803" display="inline" fill="#8BC9AE" width="841.89" height="595.279"/>
</g>
<rect x="470.491" fill="#A55D2C" width="105.259" height="138.739"/>
<rect x="478.255" y="10.261" fill="#FFFFFF" width="89.688" height="118.216"/>
<rect x="130.886" y="130.727" fill="#47261C" width="202.242" height="8.291"/>
<rect x="222.275" y="53.626" fill="#359783" width="13.479" height="75.204"/>
<rect x="236.768" y="53.776" fill="#357A81" width="13.479" height="75.204"/>
<rect x="224.727" y="69.074" fill="#FFFFFF" width="7.796" height="44.608"/>
<rect x="223.85" y="57.222" fill="#FFFFFF" width="9.55" height="6.904"/>
<rect x="223.85" y="58.255" fill="#FFFFFF" width="9.55" height="6.904"/>
<rect x="238.732" y="78.829" fill="#FFFFFF" width="9.55" height="6.904"/>
<rect x="238.732" y="91.84" fill="#FFFFFF" width="9.55" height="6.904"/>
<rect x="251.261" y="53.626" fill="#FD5D47" width="13.479" height="75.204"/>
<rect x="253.226" y="78.679" fill="#FFFFFF" width="9.55" height="6.904"/>
<rect x="253.226" y="91.69" fill="#FFFFFF" width="9.55" height="6.904"/>
<rect x="226.773" y="74.346" stroke="#FFFFFF" stroke-miterlimit="10" width="3.8" height="4.385"/>
<rect x="227.115" y="82.131" stroke="#FFFFFF" stroke-miterlimit="10" width="3.801" height="4.385"/>
<rect x="227.115" y="90.068" stroke="#FFFFFF" stroke-miterlimit="10" width="3.801" height="4.385"/>
<rect x="227.115" y="99.343" stroke="#FFFFFF" stroke-miterlimit="10" width="3.801" height="4.385"/>
<rect x="266.541" y="74.346" fill="#FF846E" width="13.479" height="54.484"/>
<rect x="268.992" y="85.538" fill="#FFFFFF" width="7.796" height="32.318"/>
<rect x="268.115" y="76.951" fill="#FFFFFF" width="9.551" height="5.002"/>
<rect x="268.115" y="77.699" fill="#FFFFFF" width="9.551" height="5.002"/>
<rect x="271.038" y="89.357" stroke="#FFFFFF" stroke-miterlimit="10" width="3.8" height="3.177"/>
<rect x="271.38" y="94.998" stroke="#FFFFFF" stroke-miterlimit="10" width="3.8" height="3.177"/>
<rect x="271.38" y="100.748" stroke="#FFFFFF" stroke-miterlimit="10" width="3.8" height="3.177"/>
<rect x="271.38" y="107.467" stroke="#FFFFFF" stroke-miterlimit="10" width="3.8" height="3.177"/>
<rect x="281.838" y="74.346" fill="#FCEB70" width="13.479" height="54.484"/>
<rect x="284.289" y="85.538" fill="#FFFFFF" width="7.796" height="32.318"/>
<rect x="283.412" y="76.951" fill="#FFFFFF" width="9.55" height="5.002"/>
<rect x="283.412" y="77.699" fill="#FFFFFF" width="9.55" height="5.002"/>
<rect x="286.335" y="89.357" stroke="#FFFFFF" stroke-miterlimit="10" width="3.8" height="3.177"/>
<rect x="286.677" y="94.998" stroke="#FFFFFF" stroke-miterlimit="10" width="3.799" height="3.177"/>
<rect x="286.677" y="100.748" stroke="#FFFFFF" stroke-miterlimit="10" width="3.799" height="3.177"/>
<rect x="286.677" y="107.467" stroke="#FFFFFF" stroke-miterlimit="10" width="3.799" height="3.177"/>
<rect x="240.043" y="80.083" fill="#C6BDBD" width="7.101" height="2.048"/>
<rect x="240.043" y="82.739" fill="#C6BDBD" width="7.101" height="2.047"/>
<rect x="240.043" y="93.108" fill="#C6BDBD" width="7.101" height="2.048"/>
<rect x="240.043" y="95.763" fill="#C6BDBD" width="7.101" height="2.048"/>
<rect x="254.45" y="79.93" fill="#C6BDBD" width="7.101" height="2.048"/>
<rect x="254.45" y="82.585" fill="#C6BDBD" width="7.101" height="2.047"/>
<rect x="254.45" y="93.108" fill="#C6BDBD" width="7.101" height="2.048"/>
<rect x="254.45" y="95.763" fill="#C6BDBD" width="7.101" height="2.048"/>
<circle fill="#C6BDBD" cx="244.289" cy="121.907" r="4.304"/>
<circle fill="#C6BDBD" cx="258.247" cy="62.56" r="4.304"/>
<g id="图层_14">
</g>
<g id="图层_6">
	<path fill="#D6D5C4" d="M201.557,378.418c0,2.201-2.292,3.985-5.117,3.985l0,0c-2.826,0-5.117-1.784-5.117-3.985v-22.609
		c0-2.199,2.291-3.985,5.117-3.985l0,0c2.825,0,5.117,1.786,5.117,3.985V378.418z"/>
	<path fill="#E8E6D9" d="M196.534,377.405c0,2.198-1.146,3.981-2.561,3.981l0,0c-1.413,0-2.558-1.783-2.558-3.981v-22.611
		c0-2.198,1.145-3.984,2.558-3.984l0,0c1.413,0,2.561,1.786,2.561,3.984V377.405z"/>
	<path fill="#D6D5C4" d="M457.296,377.911c0,2.203-2.291,3.986-5.117,3.986l0,0c-2.826,0-5.118-1.783-5.118-3.986v-22.609
		c0-2.2,2.292-3.984,5.118-3.984l0,0c2.826,0,5.117,1.784,5.117,3.984V377.911z"/>
	<path fill="#E8E6D9" d="M452.271,376.895c0,2.201-1.145,3.985-2.558,3.985l0,0c-1.412,0-2.559-1.784-2.559-3.985v-22.608
		c0-2.199,1.146-3.984,2.559-3.984l0,0c1.412,0,2.558,1.785,2.558,3.984V376.895z"/>
	<path fill="#D6D5C4" d="M225.783,370.125c0,2.202-2.292,3.984-5.118,3.984l0,0c-2.825,0-5.116-1.782-5.116-3.984v-22.61
		c0-2.198,2.292-3.983,5.116-3.983l0,0c2.826,0,5.118,1.785,5.118,3.983V370.125z"/>
	<path fill="#E8E6D9" d="M220.759,369.11c0,2.202-1.146,3.984-2.559,3.984l0,0c-1.413,0-2.558-1.782-2.558-3.984v-22.607
		c0-2.202,1.146-3.986,2.558-3.986l0,0c1.413,0,2.559,1.784,2.559,3.986V369.11z"/>
	<path fill="#D6D5C4" d="M432.86,370.125c0,2.202-2.29,3.984-5.117,3.984l0,0c-2.823,0-5.115-1.782-5.115-3.984v-22.61
		c0-2.198,2.292-3.983,5.115-3.983l0,0c2.827,0,5.117,1.785,5.117,3.983V370.125z"/>
	<path fill="#E8E6D9" d="M427.835,369.11c0,2.202-1.146,3.984-2.559,3.984l0,0c-1.411,0-2.558-1.782-2.558-3.984v-22.607
		c0-2.202,1.146-3.986,2.558-3.986l0,0c1.413,0,2.559,1.784,2.559,3.986V369.11z"/>
	<g>
		<path fill="#A4200E" d="M216.969,116.866h-4.515h-45.027h-7.546v2.013h2.453v8.553h-2.453v1.761h7.546h45.027h4.515
			c2.5,0,4.528-2.027,4.528-4.527v-3.271C221.497,118.893,219.469,116.866,216.969,116.866z"/>
		<g>
			<rect x="162.342" y="118.87" fill="#FFFFFF" width="54.396" height="8.553"/>
			
				<line opacity="0.5" fill="none" stroke="#AD9D97" stroke-width="0.25" stroke-miterlimit="10" enable-background="new    " x1="162.342" y1="119.909" x2="216.739" y2="119.909"/>
			
				<line opacity="0.5" fill="none" stroke="#AD9D97" stroke-width="0.25" stroke-miterlimit="10" enable-background="new    " x1="162.342" y1="120.569" x2="216.739" y2="120.569"/>
			
				<line opacity="0.5" fill="none" stroke="#AD9D97" stroke-width="0.25" stroke-miterlimit="10" enable-background="new    " x1="162.342" y1="121.167" x2="216.739" y2="121.167"/>
			
				<line opacity="0.5" fill="none" stroke="#AD9D97" stroke-width="0.25" stroke-miterlimit="10" enable-background="new    " x1="162.342" y1="121.889" x2="216.739" y2="121.889"/>
			
				<line opacity="0.5" fill="none" stroke="#AD9D97" stroke-width="0.25" stroke-miterlimit="10" enable-background="new    " x1="162.342" y1="122.549" x2="216.739" y2="122.549"/>
			
				<line opacity="0.5" fill="none" stroke="#AD9D97" stroke-width="0.25" stroke-miterlimit="10" enable-background="new    " x1="162.342" y1="123.147" x2="216.739" y2="123.147"/>
			
				<line opacity="0.5" fill="none" stroke="#AD9D97" stroke-width="0.25" stroke-miterlimit="10" enable-background="new    " x1="162.342" y1="123.901" x2="216.739" y2="123.901"/>
			
				<line opacity="0.5" fill="none" stroke="#AD9D97" stroke-width="0.25" stroke-miterlimit="10" enable-background="new    " x1="162.342" y1="124.561" x2="216.739" y2="124.561"/>
			
				<line opacity="0.5" fill="none" stroke="#AD9D97" stroke-width="0.25" stroke-miterlimit="10" enable-background="new    " x1="162.342" y1="125.159" x2="216.739" y2="125.159"/>
			
				<line opacity="0.5" fill="none" stroke="#AD9D97" stroke-width="0.25" stroke-miterlimit="10" enable-background="new    " x1="162.342" y1="125.756" x2="216.739" y2="125.756"/>
			
				<line opacity="0.5" fill="none" stroke="#AD9D97" stroke-width="0.25" stroke-miterlimit="10" enable-background="new    " x1="162.342" y1="126.417" x2="216.739" y2="126.417"/>
			
				<line opacity="0.5" fill="none" stroke="#AD9D97" stroke-width="0.25" stroke-miterlimit="10" enable-background="new    " x1="162.342" y1="127.014" x2="216.739" y2="127.014"/>
		</g>
	</g>
	<path fill="#3E7F59" d="M216.969,104.146h-4.515h-45.027h-7.546v2.012h2.453v8.553h-2.453v1.76h7.546h45.027h4.515
		c2.5,0,4.528-2.027,4.528-4.527v-3.27C221.497,106.173,219.469,104.146,216.969,104.146z"/>
	<g>
		<rect x="162.342" y="106.15" fill="#FFFFFF" width="54.396" height="8.553"/>
		
			<line opacity="0.5" fill="none" stroke="#AD9D97" stroke-width="0.25" stroke-miterlimit="10" enable-background="new    " x1="162.342" y1="107.188" x2="216.739" y2="107.188"/>
		
			<line opacity="0.5" fill="none" stroke="#AD9D97" stroke-width="0.25" stroke-miterlimit="10" enable-background="new    " x1="162.342" y1="107.848" x2="216.739" y2="107.848"/>
		
			<line opacity="0.5" fill="none" stroke="#AD9D97" stroke-width="0.25" stroke-miterlimit="10" enable-background="new    " x1="162.342" y1="108.446" x2="216.739" y2="108.446"/>
		
			<line opacity="0.5" fill="none" stroke="#AD9D97" stroke-width="0.25" stroke-miterlimit="10" enable-background="new    " x1="162.342" y1="109.168" x2="216.739" y2="109.168"/>
		
			<line opacity="0.5" fill="none" stroke="#AD9D97" stroke-width="0.25" stroke-miterlimit="10" enable-background="new    " x1="162.342" y1="109.829" x2="216.739" y2="109.829"/>
		
			<line opacity="0.5" fill="none" stroke="#AD9D97" stroke-width="0.25" stroke-miterlimit="10" enable-background="new    " x1="162.342" y1="110.426" x2="216.739" y2="110.426"/>
		
			<line opacity="0.5" fill="none" stroke="#AD9D97" stroke-width="0.25" stroke-miterlimit="10" enable-background="new    " x1="162.342" y1="111.181" x2="216.739" y2="111.181"/>
		
			<line opacity="0.5" fill="none" stroke="#AD9D97" stroke-width="0.25" stroke-miterlimit="10" enable-background="new    " x1="162.342" y1="111.841" x2="216.739" y2="111.841"/>
		
			<line opacity="0.5" fill="none" stroke="#AD9D97" stroke-width="0.25" stroke-miterlimit="10" enable-background="new    " x1="162.342" y1="112.439" x2="216.739" y2="112.439"/>
		
			<line opacity="0.5" fill="none" stroke="#AD9D97" stroke-width="0.25" stroke-miterlimit="10" enable-background="new    " x1="162.342" y1="113.036" x2="216.739" y2="113.036"/>
		
			<line opacity="0.5" fill="none" stroke="#AD9D97" stroke-width="0.25" stroke-miterlimit="10" enable-background="new    " x1="162.342" y1="113.697" x2="216.739" y2="113.697"/>
		
			<line opacity="0.5" fill="none" stroke="#AD9D97" stroke-width="0.25" stroke-miterlimit="10" enable-background="new    " x1="162.342" y1="114.294" x2="216.739" y2="114.294"/>
	</g>
	<path fill="#5B545D" d="M216.969,91.16h-4.515h-45.027h-7.546v2.012h2.453v8.553h-2.453v1.761h7.546h45.027h4.515
		c2.5,0,4.528-2.027,4.528-4.528v-3.27C221.497,93.187,219.469,91.16,216.969,91.16z"/>
	<g>
		<rect x="162.342" y="93.164" fill="#FFFFFF" width="54.396" height="8.553"/>
		
			<line opacity="0.5" fill="none" stroke="#AD9D97" stroke-width="0.25" stroke-miterlimit="10" enable-background="new    " x1="162.342" y1="94.202" x2="216.739" y2="94.202"/>
		
			<line opacity="0.5" fill="none" stroke="#AD9D97" stroke-width="0.25" stroke-miterlimit="10" enable-background="new    " x1="162.342" y1="94.862" x2="216.739" y2="94.862"/>
		
			<line opacity="0.5" fill="none" stroke="#AD9D97" stroke-width="0.25" stroke-miterlimit="10" enable-background="new    " x1="162.342" y1="95.459" x2="216.739" y2="95.459"/>
		
			<line opacity="0.5" fill="none" stroke="#AD9D97" stroke-width="0.25" stroke-miterlimit="10" enable-background="new    " x1="162.342" y1="96.183" x2="216.739" y2="96.183"/>
		
			<line opacity="0.5" fill="none" stroke="#AD9D97" stroke-width="0.25" stroke-miterlimit="10" enable-background="new    " x1="162.342" y1="96.843" x2="216.739" y2="96.843"/>
		
			<line opacity="0.5" fill="none" stroke="#AD9D97" stroke-width="0.25" stroke-miterlimit="10" enable-background="new    " x1="162.342" y1="97.44" x2="216.739" y2="97.44"/>
		
			<line opacity="0.5" fill="none" stroke="#AD9D97" stroke-width="0.25" stroke-miterlimit="10" enable-background="new    " x1="162.342" y1="98.195" x2="216.739" y2="98.195"/>
		
			<line opacity="0.5" fill="none" stroke="#AD9D97" stroke-width="0.25" stroke-miterlimit="10" enable-background="new    " x1="162.342" y1="98.855" x2="216.739" y2="98.855"/>
		
			<line opacity="0.5" fill="none" stroke="#AD9D97" stroke-width="0.25" stroke-miterlimit="10" enable-background="new    " x1="162.342" y1="99.453" x2="216.739" y2="99.453"/>
		
			<line opacity="0.5" fill="none" stroke="#AD9D97" stroke-width="0.25" stroke-miterlimit="10" enable-background="new    " x1="162.342" y1="100.05" x2="216.739" y2="100.05"/>
		
			<line opacity="0.5" fill="none" stroke="#AD9D97" stroke-width="0.25" stroke-miterlimit="10" enable-background="new    " x1="162.342" y1="100.71" x2="216.739" y2="100.71"/>
		
			<line opacity="0.5" fill="none" stroke="#AD9D97" stroke-width="0.25" stroke-miterlimit="10" enable-background="new    " x1="162.342" y1="101.308" x2="216.739" y2="101.308"/>
	</g>
	<path fill="#F7F47F" d="M216.969,78.079h-4.515h-45.027h-7.546v2.012h2.453v8.553h-2.453v1.761h7.546h45.027h4.515
		c2.5,0,4.528-2.027,4.528-4.528v-3.27C221.497,80.106,219.469,78.079,216.969,78.079z"/>
	<g>
		<rect x="162.342" y="80.083" fill="#FFFFFF" width="54.396" height="8.553"/>
		
			<line opacity="0.5" fill="none" stroke="#AD9D97" stroke-width="0.25" stroke-miterlimit="10" enable-background="new    " x1="162.342" y1="81.121" x2="216.739" y2="81.121"/>
		
			<line opacity="0.5" fill="none" stroke="#AD9D97" stroke-width="0.25" stroke-miterlimit="10" enable-background="new    " x1="162.342" y1="81.781" x2="216.739" y2="81.781"/>
		
			<line opacity="0.5" fill="none" stroke="#AD9D97" stroke-width="0.25" stroke-miterlimit="10" enable-background="new    " x1="162.342" y1="82.379" x2="216.739" y2="82.379"/>
		
			<line opacity="0.5" fill="none" stroke="#AD9D97" stroke-width="0.25" stroke-miterlimit="10" enable-background="new    " x1="162.342" y1="83.102" x2="216.739" y2="83.102"/>
		
			<line opacity="0.5" fill="none" stroke="#AD9D97" stroke-width="0.25" stroke-miterlimit="10" enable-background="new    " x1="162.342" y1="83.763" x2="216.739" y2="83.763"/>
		
			<line opacity="0.5" fill="none" stroke="#AD9D97" stroke-width="0.25" stroke-miterlimit="10" enable-background="new    " x1="162.342" y1="84.36" x2="216.739" y2="84.36"/>
		
			<line opacity="0.5" fill="none" stroke="#AD9D97" stroke-width="0.25" stroke-miterlimit="10" enable-background="new    " x1="162.342" y1="85.114" x2="216.739" y2="85.114"/>
		
			<line opacity="0.5" fill="none" stroke="#AD9D97" stroke-width="0.25" stroke-miterlimit="10" enable-background="new    " x1="162.342" y1="85.775" x2="216.739" y2="85.775"/>
		
			<line opacity="0.5" fill="none" stroke="#AD9D97" stroke-width="0.25" stroke-miterlimit="10" enable-background="new    " x1="162.342" y1="86.372" x2="216.739" y2="86.372"/>
		
			<line opacity="0.5" fill="none" stroke="#AD9D97" stroke-width="0.25" stroke-miterlimit="10" enable-background="new    " x1="162.342" y1="86.97" x2="216.739" y2="86.97"/>
		
			<line opacity="0.5" fill="none" stroke="#AD9D97" stroke-width="0.25" stroke-miterlimit="10" enable-background="new    " x1="162.342" y1="87.63" x2="216.739" y2="87.63"/>
		
			<line opacity="0.5" fill="none" stroke="#AD9D97" stroke-width="0.25" stroke-miterlimit="10" enable-background="new    " x1="162.342" y1="88.228" x2="216.739" y2="88.228"/>
	</g>
</g>
<g id="图层_5">
	<path fill="#DDDACE" d="M449.764,302.907c-1.683,0.771-3.353,2.07-5.022,2.07c-12.529,0-25.062-2.601-37.99-0.455
		c-2.062,0.141-4.122,0.289-6.188,0.451c-2.065,0.162-4.131,0.334-6.201,0.517c-3.075,0.003-6.21,0.003-9.38,0.003
		c-29.058,0-61.207,0-91.328,0c-3.01,0-6.003,0-8.955-0.01c-2.153,0.037-4.216-0.065-6.24-0.252
		c-2.027-0.188-4.016-0.459-6.034-0.75c-7.433-1.276-14.663-1.16-21.855-0.381c-2.396,0.262-4.79,0.6-7.188,0.979
		c-12.496-0.103-29.204,12.911-35.887,3.803c-3.447-4.879-3.837-10.216-3.033-15.759c0.27-1.848,0.67-3.712,1.137-5.573
		c3.747-14.981,2.936-30.722-5.146-44.827c-6.318-11.027-25.886-21.328-19.676-34.529c8.627-18.34,36.214-25.213,58.405-28.866
		c29.256-4.812,59.884-7.665,89.735-8c4.821-0.056,9.815-0.053,14.932,0.017c5.12,0.069,10.38,0.249,15.8,0.679
		c18.482,1.982,37.126,3.534,55.282,6.672c2.595,0.447,5.178,0.929,7.751,1.448c19.339,3.82,39.388,10.328,50.25,23.99
		c6.68,9.109,1.67,19.518-7.765,26.502c-1.249,0.932-2.454,1.906-3.571,2.965c-1.115,1.056-2.146,2.192-3.047,3.45
		c-1.443,1.567-2.783,3.201-3.984,4.886c-4.797,6.731-7.288,14.182-7.26,22.578c-0.545,1.938-1.069,3.892-1.531,5.846
		c-2.308,9.785-2.753,19.759-0.296,28.973C447.967,301.583,449.764,302.907,449.764,302.907z"/>
	
		<linearGradient id="SVGID_1_" gradientUnits="userSpaceOnUse" x1="196.5886" y1="153.5713" x2="398.5471" y2="153.5713" gradientTransform="matrix(1 0 0 -1 29.1948 461.4043)">
		<stop  offset="0" style="stop-color:#FFFFFF"/>
		<stop  offset="1" style="stop-color:#000000"/>
	</linearGradient>
	<ellipse fill="url(#SVGID_1_)" cx="326.763" cy="307.833" rx="100.979" ry="4.288"/>
</g>
<g id="图层_4">
	<path fill="#EAEADC" d="M199.781,233.209c-5.621-6.955-16.479-12.81-28.262-12.142c-2.832,0.035-5.752,0.326-8.637,0.806
		c-14.45,2.394-28.015,9.515-36.347,19.201c-1.817,1.6-3.486,3.229-4.894,4.928c-2.813,3.396-4.581,7.062-4.919,10.912
		c-0.602,6.853,4.479,15.194,11.771,16.721c6.029,1.259,11.631,0.595,16.926-1.082c-0.045,0.843-0.101,1.696-0.137,2.535
		c-0.087,1.993-0.15,3.966-0.183,5.923c1.8,15.299-10.938,34.815,8.17,45.876c2.388,1.385,4.664,2.249,6.847,2.688
		c2.182,0.438,4.271,0.453,6.289,0.148c6.098-1.899,12.231-4.035,18.129-6.528c1.964-0.832,3.903-1.703,5.795-2.618
		c2.306-1.04,4.387-2.234,6.266-3.565c1.879-1.327,3.553-2.789,5.037-4.361c9.234-18.729,10.069-41.5,5.439-60.961
		c-0.642-2.238-1.218-4.44-1.681-6.592c-0.635-1.547-1.306-3.09-2.017-4.634c-0.711-1.545-1.459-3.087-2.248-4.639
		C200.587,234.517,200.132,233.614,199.781,233.209z"/>
	<path fill="#EAEADC" d="M451.684,233.209c5.622-6.955,16.479-12.81,28.26-12.142c2.833,0.035,5.754,0.326,8.637,0.806
		c14.452,2.394,28.017,9.515,36.352,19.201c1.814,1.6,3.484,3.229,4.891,4.928c2.814,3.396,4.581,7.062,4.919,10.912
		c0.603,6.853-4.478,15.194-11.77,16.721c-6.029,1.259-11.629,0.595-16.926-1.082c0.044,0.843,0.099,1.696,0.136,2.535
		c0.085,1.993,0.149,3.966,0.184,5.923c-1.802,15.299,10.938,34.815-8.172,45.876c-2.389,1.385-4.666,2.249-6.847,2.688
		c-2.181,0.438-4.271,0.453-6.291,0.148c-6.095-1.899-12.23-4.035-18.125-6.528c-1.967-0.832-3.905-1.703-5.798-2.618
		c-2.305-1.04-4.386-2.234-6.265-3.565c-1.88-1.327-3.555-2.789-5.038-4.361c-9.231-18.729-10.068-41.5-5.438-60.961
		c0.641-2.238,1.217-4.44,1.683-6.592c0.632-1.547,1.303-3.09,2.013-4.634c0.714-1.545,1.462-3.087,2.25-4.639
		C450.878,234.517,451.335,233.614,451.684,233.209z"/>
</g>
<g id="图层_3">
</g>
<g id="图层_2">
</g>
<g id="图层_1">
	<path fill="#F9F9F9" d="M479.584,333.767c0.004,1.556-1.114,2.966-2.925,3.985c-1.809,1.021-4.307,1.649-7.066,1.649H182.41
		c-5.521,0-9.996-2.522-9.996-5.636c0,0,0-1.692,0-4.405c0.009-26.938,34.771-37.504,74.022-41.662
		c3.271-0.348,6.574-0.649,9.904-0.891c12.856-0.922,25.759-1.384,38.67-1.687c2.581-0.06,5.164-0.113,7.746-0.165
		c26.916-0.464,53.647,0.48,80.039,1.934c2.471,0.172,4.945,0.365,7.424,0.576c2.482,0.206,4.962,0.428,7.454,0.674
		c26.397,2.514,58.143,7.252,71.86,21.8c2.586,2.649,4.712,5.571,6.316,8.796c1.604,3.225,2.687,6.749,3.18,10.602
		C479.493,332.066,479.584,333.767,479.584,333.767z"/>
	<path fill="#D6D5C4" d="M165.558,353.623c-3.511,3.592-11.455,4.951-16.702,4.651c-6.043-0.348-12.017-2.695-14.845-7.102
		c-1.669-2.601-2.505-5.277-2.854-7.988c-0.351-2.709-0.215-5.451,0.059-8.193c0.422-5.399,1.038-10.97,1.218-16.551
		c0.061-1.861,0.073-3.727,0.021-5.588c0.723-11.776-5.125-22.188-12.073-32.898c-0.859-1.436-1.697-2.872-2.485-4.309
		c-3.938-7.183-6.612-14.299-2.262-21.414c4.177-7.81,20.049-6.506,28.402-0.65c1.255,0.977,2.42,1.997,3.506,3.057
		c18.215,18.414,22.391,41.838,24.301,63.881c0.197,1.938,0.333,3.873,0.4,5.807c0.132,3.868-0.008,7.731-0.478,11.585
		c-0.604,4.972-2.277,10.896-5.733,15.184C165.883,353.274,165.725,353.451,165.558,353.623z"/>
	<path fill="#D6D5C4" d="M485.906,353.623c3.513,3.592,11.457,4.951,16.701,4.651c6.044-0.348,12.019-2.695,14.845-7.102
		c1.672-2.601,2.506-5.277,2.856-7.988c0.349-2.709,0.211-5.451-0.06-8.193c-0.422-5.399-1.039-10.97-1.219-16.551
		c-0.062-1.861-0.073-3.727-0.02-5.588c-0.724-11.776,5.124-22.188,12.072-32.898c0.858-1.436,1.696-2.872,2.485-4.309
		c3.938-7.183,6.611-14.299,2.262-21.414c-4.177-7.81-20.051-6.506-28.403-0.65c-1.253,0.977-2.419,1.997-3.505,3.057
		c-18.215,18.414-22.394,41.838-24.302,63.881c-0.195,1.938-0.333,3.873-0.396,5.807c-0.136,3.868,0.004,7.731,0.475,11.585
		c0.605,4.972,2.276,10.896,5.736,15.184C485.582,353.274,485.737,353.451,485.906,353.623z"/>
	<path fill="#E8E6D9" d="M483.203,346.27c0,5.581-4.487,10.109-10.024,10.109H177.424c-5.536,0-10.023-4.528-10.023-10.109v-4.738
		c0-5.583,4.487-10.109,10.023-10.109h295.754c5.537,0,10.024,4.526,10.024,10.109L483.203,346.27L483.203,346.27z"/>
</g>
<g id="图层_8">
	<rect x="604.404" y="277.866" fill="#433B4B" width="6.649" height="84.231"/>
	<rect x="679.401" y="277.866" fill="#312839" width="6.65" height="84.231"/>
</g>
<g id="图层_10">
	<g>
		<path fill="#D3D3D3" d="M16.07,377.296c-4.741,0-8.98-0.653-11.793-1.678c-0.403-0.146-0.777-0.302-1.148-0.476
			c-0.503-0.113-1.399-0.511-2.106-1.024C0.502,374.486,0,374.733,0,375.48c0,1.107,2.216,2.217,3.128,2.427
			c0.371,0.174,0.746,0.327,1.148,0.474c2.812,1.026,7.052,1.678,11.793,1.678c8.469,0,15.333-2.078,15.333-4.647
			c0-0.481-0.241-0.945-0.688-1.381C28.775,375.921,22.953,377.296,16.07,377.296z"/>
		<path fill="#E8E4E3" d="M4.277,375.619c2.812,1.023,7.052,1.678,11.793,1.678c6.884,0,12.705-1.375,14.646-3.268
			c-1.94-1.895-7.762-3.269-14.646-3.269c-4.233,0-8.065,0.521-10.841,1.359c-0.554,0.169-1.066,0.351-1.532,0.542
			c-0.74,0.302-1.392,0.45-1.963,0.767c-0.205,0.308-0.459,0.514-0.712,0.689c0.707,0.515,1.604,0.911,2.106,1.024
			C3.499,375.317,3.874,375.472,4.277,375.619z"/>
	</g>
</g>
<g id="图层_9">
	<polyline fill="none" stroke="#594947" stroke-miterlimit="10" points="641.452,218.317 641.452,160.809 649.671,124.792 	"/>
	<line fill="none" stroke="#594947" stroke-miterlimit="10" x1="641.452" y1="175.773" x2="626.131" y2="153.606"/>
	<line fill="none" stroke="#594947" stroke-miterlimit="10" x1="635.938" y1="180.792" x2="616.326" y2="162.313"/>
	<line fill="none" stroke="#594947" stroke-miterlimit="10" x1="643.184" y1="153.606" x2="630.223" y2="134.858"/>
	<line fill="none" stroke="#594947" stroke-miterlimit="10" x1="654.115" y1="160.328" x2="641.864" y2="189.002"/>
	<line fill="none" stroke="#594947" stroke-miterlimit="10" x1="662.058" y1="169.442" x2="651.971" y2="183.78"/>
	<line fill="none" stroke="#594947" stroke-miterlimit="10" x1="660.88" y1="137.538" x2="645.773" y2="215.687"/>
	<line fill="none" stroke="#594947" stroke-miterlimit="10" x1="625.808" y1="132.815" x2="641.776" y2="210.291"/>
	<path fill="#D3D3D3" d="M18.01,371.376c0,1.838-0.744,3.325-1.663,3.325l0,0c-0.917,0-1.662-1.487-1.662-3.325V47.211
		c0-1.836,0.744-3.325,1.662-3.325l0,0c0.918,0,1.663,1.489,1.663,3.325V371.376z"/>
	<path fill="#F2F2F2" d="M17.929,371.117c0,1.836-0.351,3.323-0.785,3.323l0,0c-0.434,0-0.784-1.487-0.784-3.323V46.949
		c0-1.836,0.352-3.323,0.784-3.323l0,0c0.435,0,0.785,1.487,0.785,3.323V371.117z"/>
	<path fill="#F2F2F2" d="M45.983,28.064c-0.503-0.842-1.889-0.937-3.092-0.216L16.053,43.932c-1.206,0.722-1.775,1.988-1.271,2.829
		l0,0c0.504,0.84,1.888,0.937,3.094,0.213l26.836-16.082C45.918,30.169,46.486,28.903,45.983,28.064L45.983,28.064z"/>
	<path fill="#F2F2F2" d="M53.039,55.17c-0.845,0.252-1.888-0.751-2.33-2.24l-6.663-22.378c-0.443-1.488-0.119-2.899,0.724-3.149l0,0
		c0.844-0.251,1.888,0.751,2.329,2.241l6.665,22.378C54.206,53.508,53.882,54.919,53.039,55.17L53.039,55.17z"/>
	<g>
		<path fill="#D8D6D6" d="M51.044,55.001c-0.195-0.821,0.312-1.641,1.132-1.833l0.627-0.15c-0.062,0.007-0.123,0.011-0.183,0.024
			l-2.158,0.512c-0.818,0.195-1.327,1.015-1.132,1.834c0.194,0.819,1.016,1.326,1.835,1.131l1.53-0.362
			C51.941,56.24,51.223,55.757,51.044,55.001z"/>
		<path fill="#F2F2F2" d="M56.167,53.787c-0.194-0.818-1.017-1.326-1.834-1.131l-1.53,0.361l-0.627,0.15
			c-0.819,0.192-1.327,1.012-1.132,1.833c0.179,0.756,0.896,1.239,1.651,1.155c0.062-0.007,0.122-0.01,0.183-0.024l2.158-0.511
			C55.854,55.427,56.36,54.606,56.167,53.787z"/>
	</g>
	<path fill="#F9D8CD" d="M93.914,102.613c-6.08,3.054-11.622,5.27-16.632,9.176c-0.454,0.304-0.9,0.61-1.338,0.921
		c-0.515,0.248-1.031,0.478-1.557,0.686c-1.048,0.41-2.122,0.729-3.244,0.903c-0.641-0.073-1.274-0.087-1.902-0.051
		c-6.342,0.361-11.663,4.923-18.187,4.415c-2.351-0.182-3.993-0.946-5.386-2.891c-2.887-4.028-4.166-9.055-4.851-13.878
		c-0.757-5.343-1.011-10.76-0.437-16.134c0.35-3.26,0.961-6.535,1.806-9.705c0.602-2.258,1.363-4.511,2.351-6.634
		c1.44-3.102,5.736-11.021,9.189-11.911c1.129-0.293,2.239-0.411,3.33-0.376c1.429,0.246,2.794,0.624,4.08,1.138
		c0.951,0.506,1.909,1.03,2.87,1.569c0.96,0.541,1.921,1.104,2.88,1.681c4.539,3.216,9.357,6.946,13.542,11.368
		c0.867,0.896,1.709,1.82,2.56,2.809c0.69,0.838,1.382,1.704,2.069,2.596c0.688,0.895,1.371,1.819,2.04,2.777
		c4.066,5.151,6.384,11.02,6.972,17.527c0.054,0.592,0.092,1.188,0.117,1.79c0.026,0.657-0.007,1.322-0.183,1.99
		C93.979,102.457,93.948,102.535,93.914,102.613z"/>
	<path fill="#D3D3D3" d="M44.271,28.039c0,0-0.643,0.286-0.345,2.071l6.988,23.655l0.824-0.515L44.271,28.039z"/>
	<path fill="#D3D3D3" d="M44.3,31.13c-0.165-0.341-0.289-0.684-0.384-1.031c-4.073,1.64-28.998,16.77-28.998,16.77
		s0.74,1.204,2.772,0.178L44.148,31.51c0,0,0.068-0.039,0.158-0.089C44.303,31.323,44.298,31.227,44.3,31.13z"/>
	<path fill="#D6D5C4" d="M347.127,314.304c0.071-0.062,0.124-0.093,0.115-0.048c0.1-0.191,0.209-0.402,0.197-0.313
		c0.273-0.926,0.327-1.821,0.333-2.894c-2.572-1.294-5.365-0.557-7.538-0.734c-0.582,0.003-1.171-0.005-1.768-0.041
		c-0.687-0.134-1.373-0.285-2.06-0.473c-1.372-0.375-2.742-0.891-4.086-1.688c-0.804-0.155-1.629-0.32-2.474-0.491
		c-30.419-6.077-87.038-17.391-87.038-17.391s-2.521,3.531-5.54,7.759c-0.604,0.846-1.228,1.72-1.855,2.598
		c-0.45,0.64-0.914,1.3-1.378,2.011c-1.285,2.642-2.187,5.199-3.157,7.717c0.387,0.569,0.617,1.293,0.589,2.182
		c-0.071,2.222,0.499,4.805,2.534,5.637c0.66,0,1.181-0.021,1.435-0.088c7.786-2.013,15.397-5.599,23.334-6.225
		c16.474-1.298,33.866-5.69,50.308-3.028c8.756,1.417,17.197,5.414,25.847,7.858h0.03c0.687,0.008,1.374,0.013,2.061,0.018
		c1.295,0.395,2.529,0.401,3.734,0.215c0.602-0.092,1.197-0.233,1.79-0.399C344.195,315.713,345.606,314.873,347.127,314.304z"/>
	<path fill="#D6D5C4" d="M309.694,303.937c-0.552,0.002-1.11-0.004-1.679-0.026c-0.649-0.087-1.304-0.187-1.956-0.308
		c-1.304-0.244-2.604-0.58-3.88-1.099c-0.764-0.103-1.547-0.209-2.35-0.319c-28.896-3.955-82.679-11.314-82.679-11.314
		s-2.395,2.297-5.263,5.048c-0.574,0.551-1.167,1.119-1.763,1.69c-0.429,0.414-0.868,0.845-1.31,1.308
		c-1.464,2.062-2.402,4.046-3.563,5.997c0.661,1.127,1.475,2.149,2.523,2.534c1.348,0.493,2.748,0.816,4.158,1.109
		c1.401-0.396,2.774-0.893,4.099-1.493c0.673-0.244,1.354-0.474,2.043-0.688c0.612-0.142,1.229-0.265,1.847-0.357
		c0.618-0.094,1.239-0.157,1.861-0.184c0.632-0.036,1.269-0.058,1.907-0.062c0.083,0,0.168,0.004,0.251,0.006
		c0.379-0.315,0.84-0.574,1.402-0.745c4.566-1.386,8.587-4.199,13-6c1.947-0.795,4.229,0.847,4.736,2.688
		c0.606,2.207-0.748,3.944-2.689,4.736c-0.256,0.104-0.505,0.222-0.758,0.332c-0.029,0.043-0.051,0.09-0.082,0.132
		c2.01,0.039,4.011,0.052,6.013,0.026c0.685-0.009,1.367-0.021,2.053-0.046c7.939-0.808,14.939-1.808,23.225-2.812
		c0.732-0.134,1.465-0.259,2.197-0.365c4.393-0.643,8.768-0.654,13.019,1.32c0.454,0.094,0.914,0.192,1.378,0.294
		c2.61,0.572,5.359,1.271,7.982,2.109c0.523,0.168,1.044,0.341,1.559,0.518c2.527,0.043,5.101,0.071,7.704,0.09
		c0.651,0.006,1.305,0.01,1.957,0.012c1.229,0.257,2.402,0.262,3.547,0.141c0.572-0.061,1.138-0.152,1.7-0.261
		c2.672-0.854,4.672-1.854,7.672-1.854C316.557,303.097,312.557,304.097,309.694,303.937z"/>
</g>
<g id="图层_7">
	<polygon fill="#707185" points="725.949,267.799 566.351,267.799 581.869,255.396 709.324,255.396 	"/>
	<rect x="566.351" y="267.799" fill="#58586E" width="159.599" height="10.066"/>
	<path fill="#FFFFFF" stroke="#000000" stroke-miterlimit="10" d="M645.277,232.354"/>
	<polyline fill="#FFFFFF" points="659.069,233.638 653.354,195.667 631.743,195.667 626.175,234.979 	"/>
	<path d="M623.777,251.923l-0.899,6.35c0,3.427,8.931,6.201,19.948,6.201c11.019,0,19.95-2.774,19.95-6.201l-0.728-4.836
		c-4.791,1.237-10.562,1.959-16.771,1.959C636.847,255.396,629.234,254.065,623.777,251.923z"/>
	<path fill="#FFFFFF" d="M625.228,241.983l-1.451,9.939c0,3.424,8.699,4.08,19.049,4.08c10.352,0,19.224,0.857,19.224-2.566
		l-1.725-11.453c-4.501,1.236-9.36,4.938-15.195,4.938C637.211,246.922,630.357,244.125,625.228,241.983z"/>
	<path d="M626.019,235.496l-0.791,6.351c0,3.424,7.85,6.201,17.538,6.201c9.684,0,17.537-2.777,17.537-6.201l-0.642-4.837
		c-4.213,1.236-9.282,1.959-14.742,1.959C637.51,238.968,630.815,237.638,626.019,235.496z"/>
	<path fill="#FFFFFF" d="M627.346,226.629l-1.354,9.072c0,3.424,7.845,3.479,16.748,3.479c8.901,0,16.991,1.77,16.991-1.654
		l-1.459-9.385c-3.872,1.235-8.534,1.959-13.552,1.959C637.909,230.101,631.756,228.771,627.346,226.629z"/>
	<path d="M628.579,217.627l-0.889,7.041c0,3.423,6.735,6.2,15.046,6.2c8.313,0,15.051-2.777,15.051-6.2l-0.866-5.287
		c-3.613,1.24-7.647,2.409-12.334,2.409C638.229,221.791,632.698,219.769,628.579,217.627z"/>
	<path d="M630.99,200.976l-0.912,6.537c0,3.424,5.346,5.729,12.364,5.729c7.021,0,12.684-2.394,12.684-5.818l-0.773-5.086
		c-3.051,1.234-6.389,1.825-10.346,1.825C638.633,204.164,634.469,203.118,630.99,200.976z"/>
	<line fill="none" x1="623.777" y1="251.923" x2="626.175" y2="234.979"/>
	<line fill="none" x1="659.069" y1="233.638" x2="662.048" y2="253.437"/>
	<path fill="#4D54AA" d="M305.92,247.521c3.67,10.516-21.042,19.283-28.453,22.695c-12.896,5.938-25.639,12.387-37.486,20.29
		c-7.535,5.03-16.279,17.104-26.591,13.237c-12.805-4.811-9.415-25.18-15.546-34.809c-5.932-9.316-10.172-18.887-18.418-26.541
		c-4.274-3.965-12.621-11.088-5.336-17.166c0.734-0.738,1.508-1.416,2.312-2.041c0.804-0.621,1.643-1.19,2.503-1.729
		c2.879-1.952,5.987-3.556,9.209-4.985c1.072-0.479,2.162-0.938,3.258-1.382c21.918-8.933,42.794-22.489,59.704-38.98
		c1.167-1.138,2.342-2.091,3.643-2.554c1.298-0.46,2.719-0.423,4.335,0.353c12.691,6.108,12.644,28.785,19.761,39.55
		c6.883,10.411,16.481,18.683,23.591,28.854c0.849,1.213,1.645,2.461,2.367,3.764C305.55,247.013,305.917,247.509,305.92,247.521z"
		/>
	<path fill="#6EA5DD" d="M273.492,199.353c0.021,0.84,0.762,2.067,0.818,2.996c0.045,0.455,0.044,0.909-0.017,1.354
		c-0.125,0.892-0.502,1.731-1.303,2.442c-0.403,0.484-0.87,0.938-1.391,1.373c-3.294,2.752-7.297,5.195-11.492,6.266
		c-6.849,1.742-15.239-1.729-18.796,6.667c-0.356,0.474-0.729,0.932-1.104,1.384c-1.875,2.264-3.811,4.443-6.754,5.163
		c-2.721,0.668-5.641,0.237-8.317,1.043c-3.037,0.91-4.152,3.163-5.609,5.735c-1.463,2.586-3.429,5.318-6.18,6.656
		c-3.065,1.491-5.112,0.023-8.206,0.01c-1.705-0.004-3.555,0.842-4.997,1.672c-3.921,2.256-10.404,13.102-15.787,6.027
		c-0.397-0.52-0.675-1.156-0.777-1.914c-1.762-3.924-0.146-7.633,2.87-10.314c3.727-3.307,8.635-2.805,12.774-5.039
		c4.899-2.645,6.958-7.959,11.035-11.466c4.336-3.726,11.42-3.871,16.739-5.388c4.444-1.267,7.001-4.912,10.452-7.66
		c0.565-0.582,1.139-1.146,1.723-1.688c4.111-3.825,9.015-5.591,14.584-6.415c5.708-0.843,7.529-5.675,12.333-8.041
		c0.456-0.225,0.935-0.356,1.438-0.36c3.86-0.117,5.229,4.922,5.445,7.893L273.492,199.353z"/>
	<path fill="#6EA5DD" d="M286.411,223.31c0.938,1.084,1.676,2.26,1.771,3.803c0.223,3.638-4.648,6.272-7.458,7.671
		c-2.862,1.424-6.346,1.694-9.417,0.977c-3.672-0.856-6.708-1.163-10.271,0.144c-0.54,0.195-1.062,0.447-1.567,0.742
		c-4.087,2.422-4.595,7.428-8.232,10.092c-2.146,1.576-4.814,2.354-7.467,2.369c-2.547,0.017-5.354-0.649-7.751,0.506
		c-3.288,1.578-3.457,6.076-5.866,8.541c-3.038,3.107-8.03,4.742-12.319,4.807c-1.628,0.021-3.255-0.148-4.815,0.438
		c-4.302,1.613-5.546,9.776-10.651,9.103c-1.14-0.149-2.211-0.708-3.156-1.533c-0.474-0.411-0.91-0.892-1.277-1.427
		c-1.627-2.829-1.187-6.486,0.271-9.377c0.292-0.581,0.628-1.128,1.005-1.639c1.264-1.646,2.492-2.389,4.335-3.5
		c1.312-0.791,3.819-0.648,5.295-0.834c1.937-0.241,3.943-0.549,5.637-1.584c3.418-2.092,4.739-6.801,7.693-9.422
		c2.693-2.398,6.527-4.601,10.106-5.224c1.945-0.338,4.245-0.289,6.159,0.229c1.266,0.338,2.458,0.556,3.773,0.43
		c2.842-0.264,5.204-1.312,7.157-3.415c0.308-0.327,0.605-0.677,0.896-1.037c0.292-0.36,0.578-0.735,0.861-1.128
		c1.988-5.439,7.269-7.792,12.214-8.717c0.714-0.156,1.422-0.316,2.124-0.487c2.409-0.603,4.154-1.086,5.811-3.044
		c2.014-2.379,4.103-5.757,7.75-4.58c1.353,0.438,2.524,1.354,3.506,2.355c1.038,1.059,1.688,2.429,2.727,3.502
		C285.652,222.479,286.045,222.885,286.411,223.31z"/>
	<path fill="#6EA5DD" d="M303.013,243.097c0.952,1.088,1.575,2.479,1.597,3.932c0.007,0.488-0.047,1.017-0.179,1.621
		c-0.237,0.435-0.574,0.848-1.022,1.234c-0.458,0.516-0.986,1.004-1.567,1.479c-2.251,1.824-4.65,3.822-7.475,4.662
		c-3.256,0.961-6.113,1.104-9.427,0.547c-3.648-0.611-6.651-0.506-10.099,0.83c-0.591,0.228-1.169,0.51-1.727,0.841
		c-3.907,2.323-4.839,6.651-7.965,9.637c-2.645,2.522-6.285,3.815-9.915,3.996c-3.201,0.162-7.12-0.551-9.652,1.925
		c-1.368,1.336-1.983,3.182-2.834,4.846c-1.912,3.717-5.595,5.931-9.432,7.242c-3.817,1.305-8.043,0.66-11.747,2.115
		c-4.703,1.85-6.382,10.38-11.914,9.93c-1.223-0.101-2.352-0.619-3.332-1.422c-0.49-0.402-0.939-0.873-1.312-1.408
		c-1.841-3.215-0.846-7.092,0.979-10.014c2.21-3.529,5.284-4.997,9.232-5.941c4.761-1.141,8.836-1.449,11.732-5.903
		c0.438-0.675,0.913-1.347,1.414-2.001c2.858-3.733,6.558-6.73,10.842-8.663c4.228-1.901,7.853-2.021,12.361-1.62
		c3.354,0.296,6.592-0.234,9.261-2.395c2.788-2.254,4.254-5.642,6.736-8.168c2.722-2.771,6.608-4.205,10.327-5.029
		c0.779-0.197,1.555-0.395,2.318-0.607c3.062-0.851,5.036-1.688,7.141-4.135c2.138-2.482,4.631-5.412,8.279-4.253
		c3.161,1.002,4.581,4.071,6.868,6.196C302.679,242.737,302.85,242.912,303.013,243.097z"/>
	<path fill="#FEA32B" d="M344.249,289.009c-0.264-1.496-0.567-2.98-0.938-4.447c-0.741-2.935-1.742-5.797-3.157-8.539
		c-0.785-1.371-1.652-2.774-2.557-4.174c-0.489-1.896-0.632-3.853-0.605-5.828c0.017-1.482,0.105-2.972,0.247-4.467
		c1.159-10.076,0.505-19.482,2.2-28.83c0.101-0.552,0.209-1.101,0.325-1.65c0.104-5.561,3.08-10.516,3.343-16.271
		c0.072-0.543,0.136-1.092,0.202-1.648c0.137-1.112,0.285-2.252,0.476-3.428c0.03-0.485,0.075-0.972,0.138-1.451
		c-0.053-2.744,2.069-7.769,1.631-11.352c-0.055-0.447-0.149-0.872-0.285-1.247c-1.117-0.944-2.295-1.255-3.524-1.286
		c-3.206,1.521-6.277,3.397-9.663,4.547c-12.233,4.149-27.217,5.078-40.083,4.812c-12.141-0.25-28.959,6.851-39.91-0.882
		c-1.516-1.072-20.546-6.527-20.546-4.227c0,0,0,0.549,0,1.574c-0.373,1.742-0.312,3.604-0.031,5.53
		c0.278,1.92,0.774,3.903,1.27,5.887c0.746,0.992,1.487,1.983,2.187,2.976c0.695,0.992,1.347,1.982,1.905,2.977
		c6.815,12.889,0.866,26.771,4.018,39.238c0.264,1.551,0.459,3.103,0.567,4.648c0.646,9.281-2.025,18.237-6.923,28.135
		c-0.194,2.252-0.511,4.511-0.959,6.778c-0.45,2.269-1.038,4.543-1.781,6.827c-0.02,1.09-0.015,2.189-0.01,3.288
		c0.003,1.1,0.005,2.198,0.005,3.3c0.001,1.321,0.001,2.644,0.001,3.966c10.907-4.96,21.814-9.917,33.715-8.925
		c8.923,0.991,17.848,0.991,26.605,0.025c1.709-0.271,3.424-0.479,5.135-0.612c8.025-1.521,15.653-0.55,23.155,1.489
		c1.251,0.337,2.499,0.708,3.745,1.096c7.793,2.96,16.717,3.951,24.174,4.232c0,0-0.145-1.093-0.478-3.021
		C345.818,301.865,345.818,294.924,344.249,289.009z"/>
	<path fill="#FFFFFF" d="M263.023,206.03c-0.627,0.002-1.165-0.125-1.628-0.342c-2.543-0.051-5.116-0.605-7.344-1.674
		c-0.15-0.05-0.303-0.091-0.455-0.145c-0.985-0.28-1.977-0.667-2.969-1.162c-0.25,1.238-0.496,2.415-0.728,3.562
		c-0.231,1.146-0.45,2.262-0.637,3.377c-0.62,1.982-1.611,5.949,0.373,5.949c3.966,1.984,7.933,0.991,11.579,1.064
		c1.404,0.025,2.845,0.056,4.351,0.102c0,0,0.02-0.254,0.057-0.699c0.037-0.44,0.088-1.072,0.153-1.826
		c-0.155-0.573-0.25-1.139-0.284-1.69c-0.788-3.125,2.888-4.385,3.851-6.813C267.279,205.933,265.183,206.022,263.023,206.03z"/>
	<path fill="#FFFFFF" d="M265.39,249.228c0,0-1.02,0-2.535-0.004c-1.32,0.021-2.746,0.162-4.141,0.254
		c-1.395,0.088-2.759,0.127-3.954-0.052c-9.09-2.099,0.824-11.021-3.142-16.972c0.991,0,2.974,0,3.827-0.264
		c1.286-0.141,2.555-0.295,3.732-0.356c2.355-0.125,4.339,0.124,5.329,1.61c2.976,1.984,0.994,7.934,0.903,13.115
		C265.39,248.163,265.39,249.228,265.39,249.228z"/>
	<path fill="#FFFFFF" d="M281.695,265.663c0,0-4.076,0-8.152,0c-2.038,0-4.077,0-5.604,0c-2.436,0.504-3.43-0.484-2.539-2.661
		c-0.005-1.597-0.009-3.728-0.009-5.858c0-4.26,0-8.521,0-8.521h16.305V265.663L281.695,265.663z"/>
	<path fill="#FFFFFF" d="M314.305,265.663c0,0-4.074,0-8.152,0c-4.074,0-8.15,0-8.15,0v-17.041h16.304c0,0,0,4.262,0,8.521
		C314.305,261.401,314.305,265.663,314.305,265.663z"/>
	<path fill="#FFFFFF" d="M336.958,265.667c-3.038,3.477-7.997-0.489-8.989-4.457c-0.246-1.236-0.309-2.54-0.2-3.812
		c1.192-3.127,1.192-7.095,4.168-8.086c5.949-0.992,4.957,6.94,4.797,9.521c-0.123,1.626-0.219,3.195-0.014,4.46
		C336.867,264.705,336.958,265.667,336.958,265.667z"/>
	<path fill="#FFFFFF" d="M251.436,267.662c-2.792,0.489-5.766,2.473-7.75-1.495c-0.495-0.989-0.991-1.98-1.438-2.975
		c-0.451-0.989-0.854-1.982-1.163-2.975c-2.357-5.947,2.602-11.898,8.242-7.609c0.737,0.916,1.206,2.156,1.175,3.642
		c0.308,0.99,0.611,1.976,0.85,2.957c0.477,1.964,0.683,3.905,0.103,5.808C251.471,266.617,251.436,267.662,251.436,267.662z"/>
	<path fill="#FFFFFF" d="M265.39,281.84c0,0-1.02,0-2.549,0c-1.53,0-3.565,0-5.583,0.004c-1.673,0.188-4.647,1.181-4.647,0.188
		c-6.94-10.907,1.981-21.814,12.892-15.866c0.991,0,0,3.968-0.108,7.153c-0.004,2.129-0.004,4.26-0.004,5.854
		C265.39,280.772,265.39,281.84,265.39,281.84z"/>
	<rect x="281.549" y="264.798" fill="#FFFFFF" width="16.306" height="17.042"/>
	<path fill="#FFFFFF" d="M329.077,281.712c-1.306,0.092-2.634,0.275-3.989,0.469c-3.934,0.533-8.024,1.094-11-1.141
		c-0.991-0.991,0-4.956,0.218-7.723c0-2.131,0-4.258,0-5.856c2.759-5.259,8.707-2.284,11.682-2.284c3.718,0,2.975,5.02,2.723,9.643
		c-0.064,1.533-0.079,3.024,0.159,4.269C328.968,280.664,329.077,281.712,329.077,281.712z"/>
	<path fill="#FFFFFF" d="M345.759,294.267c-3.907,3.633-9.858,3.633-13.898,0.121c-0.846-0.779-1.485-1.72-1.836-2.794
		c-0.348-1.077-0.401-2.29-0.072-3.612c0-2.973,1.983-6.94,5.948-7.933c5.208-0.741,7.625,2.976,8.88,7.177
		c0.419,1.4,0.706,2.853,0.925,4.199C345.796,293.085,345.759,294.267,345.759,294.267z"/>
	<path fill="#FFFFFF" d="M314.287,296.612c-3.175,0.295-6.148,0.295-8.848,0.146c-1.379-0.17-2.688-0.507-3.897-1.109
		c-1.212-0.602-2.328-1.471-3.32-2.709c-1.98-2.976-0.991-5.95-0.22-8.438c0-1.597,0-2.661,0-2.661s9.17,0,13.757,0
		c1.53,0,2.547,0,2.547,0s0,1.064,0,2.637c-0.108,1.752-0.162,3.373-0.162,5.049c0,1.673,0.055,3.38,0.159,5.271
		C314.295,295.914,314.287,296.612,314.287,296.612z"/>
	<path fill="#FFFFFF" d="M282.271,297.242c-5.862,1.649-10.819-2.317-16.769,0.657c0-2.976,0-4.959-0.235-7.612
		c-0.022-2.065-0.022-4.187-0.022-5.785c0-1.597,0-2.661,0-2.661h16.305c0,0,0,1.064,0,2.661c-0.587,1.742-0.385,3.604-0.072,5.464
		c0.312,1.85,0.738,3.656,0.602,5.299C282.195,296.481,282.271,297.242,282.271,297.242z"/>
	<path fill="#FFFFFF" d="M248.632,297.106c-1.242-0.026-2.536,0.131-3.852,0.344c-4.069,0.449-9.028,1.441-10.019-0.543
		c-0.497-1.652-0.689-3.305-0.63-4.891c0.06-1.582,0.373-3.1,0.893-4.474c1.721-4.519,7.67-9.478,12.626-5.511
		c0.992,0.992,0.992,2.977,1.242,4.96c-0.005,1.237-0.066,2.602-0.133,3.969c-0.063,1.36-0.129,2.726-0.133,3.964
		C248.623,296.265,248.632,297.106,248.632,297.106z"/>
	<path fill="#FFFFFF" d="M268.849,306.188c-6.322-0.356-14.256,0.636-18.222-3.331c-5.949-5.949,6.941-7.933,10.907-6.942
		c3.968,1.985,6.94,3.967,6.907,8.8C268.695,305.574,268.849,306.188,268.849,306.188z"/>
	<path fill="#FFFFFF" d="M297.779,304.181c-1.13,0.413-2.41,0.785-3.741,1.047c-1.332,0.266-2.714,0.412-4.048,0.348
		c-3.665-0.735-7.632-0.735-6.64-5.694c0-0.989,1.981-1.981,4.462-2.881c1.238-0.464,2.479-0.837,3.469-1.086
		c4.959-0.989,7.934,1.985,6.609,7.021C297.828,303.658,297.779,304.181,297.779,304.181z"/>
	<path fill="#FFFFFF" d="M331.222,309.281c-2.261-1.468-4.243-1.468-6.322-1.986c-1.132-0.283-2.271-0.537-3.354-0.83
		c-3.243-0.882-5.972-2.12-6.467-5.592c-0.494-2.974,1.985-4.71,5.207-5.206c1.61-0.247,3.408-0.186,5.112,0.188
		c1.636-0.233,2.921,0.15,3.908,0.924c2.63,3.104,3.621,7.07,1.938,10.812C331.227,308.583,331.222,309.281,331.222,309.281z"/>
	<rect x="281.695" y="232.187" fill="#FFFFFF" width="16.308" height="17.041"/>
	<path fill="#FFFFFF" d="M329.38,249.246c-3.394,0.065-6.368,0.065-9.28,0.028c-1.108-0.008-2.202-0.024-3.245-0.047
		c-1.529,0-2.55,0-2.55,0v-17.041c0,0,1.021,0,2.537,0.012c2.021-0.453,3.785-0.665,5.312-0.654
		c7.799,0.911,7.799,8.844,7.332,15.042C329.437,248.183,329.38,249.246,329.38,249.246z"/>
	<path fill="#FFFFFF" d="M281.695,232.923c0,0-1.018,0-2.547,0s-3.566,0-5.605,0c-3.083-0.469-6.06,0.521-7.049-0.469
		c-1.985-2.977-0.991-7.932-1.062-12.116c0.032-0.885,0.053-1.819,0.062-2.659c0.008-0.841,0.008-1.584,0.008-2.08
		c1.98-0.992,4.957-0.992,6.795-0.59c1.09,0.129,2.176,0.297,3.271,0.446c2.188,0.302,4.408,0.539,6.789,0.144
		c-0.991,1.983-0.991,2.977-0.825,4.461c0.164,1.455,0.496,2.906,0.163,4.326c0,2.146,0,4.275,0,5.872
		C281.695,231.856,281.695,232.923,281.695,232.923z"/>
	<path fill="#FFFFFF" d="M314.305,233.657h-16.304c0,0,0-1.065,0-2.661c0-1.601,0-3.729,0-5.89c0.11-1.285-0.083-2.916-0.055-4.602
		c0.027-1.686,0.274-3.413,1.266-4.873c0.989-1.459,2.728-1.499,4.724-1.099c1.994,0.421,4.248,1.268,6.277,1.469
		c1.335,0.149,2.635,0.339,3.874,0.587c0,0,0,1.985,0.218,2.691c0,1.597,0,3.726,0,5.855
		C314.305,229.396,314.305,233.657,314.305,233.657z"/>
	<path fill="#FFFFFF" d="M296.453,203.724c-1.902,0.059-3.808,0.059-5.716-0.013c-1.52,0.226-3.046,0.429-4.583,0.521
		c-2.812,2.91-4.179,7.701-4.788,11.365c5.95,0,10.906,0,16.615,0.288c0,0-0.014-1.188-0.057-2.831
		C298.135,209.952,298.182,206.082,296.453,203.724z"/>
	<path fill="#FFFFFF" d="M332.079,198.935c-4.585,1.555-9.214,2.412-14.026,2.881c-0.976,0.096-1.952,0.199-2.929,0.302
		c-0.211,0.272-0.438,0.54-0.624,0.833c-0.305,0.478-0.573,0.979-0.809,1.501c-0.938,2.09-1.302,4.522-0.874,7.274
		c0.23,1.51,0.649,3.129,1.269,4.863c0,0,1.982,0,2.762,0.041c1.533-0.011,3.57-0.013,5.603-0.021c1.271-0.008,2.403-0.015,3.611,0
		c1.21,0.016,2.499,0.049,4.082,0.104c0,0,0.172-1.332,0.412-3.438c0.129-1.868,0.104-3.887,0.091-5.967
		c0.03-0.375,0.059-0.756,0.084-1.14c0.082-1.67,0.548-2.992,1.156-4.201c0.201-0.405,0.416-0.794,0.642-1.182
		c-0.472-1.626,1.935-1.959,2.44-3.028C334.026,198.192,333.068,198.601,332.079,198.935z"/>
	<path fill="#FFFFFF" d="M338.12,234.828c-7.176,2.585-12.134-7.331-9.095-12.734c0.625-1.317,1.586-2.53,2.911-3.526
		c0.743-1.115,1.591-1.812,2.474-2.174c0.294-0.123,0.593-0.207,0.893-0.262c1.111-0.306,2-0.23,2.714,0.113
		c0.355,0.172,0.668,0.412,0.94,0.703c1.903,4.6,0.913,8.564,0.562,13.312c-0.199,0.393-0.399,0.78-0.602,1.168
		c-0.2,0.391-0.403,0.774-0.597,1.164C338.183,233.94,338.12,234.828,338.12,234.828z"/>
	<path fill="#F6F7E8" d="M94.101,100.736c-0.582-1.75-2.843-2.792-6.159-3.146c-3.602,3.424-10.174,7.06-18.101,9.687
		c-8.021,2.66-15.54,3.658-20.474,3.019c-0.94,1.046-1.75,2.337-2.357,4.038c-0.213,0.714-0.228,1.394-0.022,2.015
		c1.449,4.358,13.168,4.397,26.18,0.085C86.175,112.123,95.548,105.093,94.101,100.736z"/>
	<path fill="#E8E6E6" d="M69.84,107.277c7.927-2.627,14.5-6.263,18.101-9.687c-4.938-0.526-12.236,0.483-20.018,3.062
		c-1.858,0.617-3.644,1.287-5.331,2c-1.69,0.711-3.285,1.462-4.776,2.247c-3.032,1.75-6.147,2.826-8.449,5.397
		C54.301,110.935,61.821,109.937,69.84,107.277z"/>
	<path fill="#B0F7B0" d="M611.649,172.078c0,0,6.682-5.019,12.865-0.181C624.514,171.897,613.402,174.96,611.649,172.078z"/>
	<path fill="#B0F7B0" d="M645.508,149.915c0,0,8.344,0.453,9.969,8.133C655.477,158.047,644.996,153.25,645.508,149.915z"/>
	<path fill="#B0F7B0" d="M657.787,165.572c0,0,3.255-7.697,11.028-6.621C668.816,158.951,660.75,167.185,657.787,165.572z"/>
	<path fill="#B0F7B0" d="M659.06,153.325c0,0,1.197-9.545,7.432-6.784C666.491,146.541,661.644,155.958,659.06,153.325z"/>
	<path fill="#B0F7B0" d="M640.416,145.884c0,0,0.509-8.342,8.198-9.913C648.615,135.971,643.75,146.419,640.416,145.884z"/>
	<path fill="#B0F7B0" d="M612.555,142.479c0,0,10.452-1.291,14.177,7.877C626.732,150.356,612.659,146.729,612.555,142.479z"/>
	<path fill="#B0F7B0" d="M666.939,181.135c0,0-4.726,9.411-14.418,7.422C652.521,188.557,663.344,178.863,666.939,181.135z"/>
	<path fill="#B0F7B0" d="M621.902,159.414c0,0,5.697-0.803,7.813,4.171C629.715,163.584,621.998,161.733,621.902,159.414z"/>
	<path fill="#B0F7B0" d="M644.468,187.5c0,0,1.7-5.497,7.104-5.296C651.572,182.205,646.609,188.401,644.468,187.5z"/>
	<ellipse fill="#FECE17" cx="626.224" cy="137.87" rx="6.63" ry="6.014"/>
	<ellipse fill="#FCCF17" cx="660.878" cy="137.538" rx="4.427" ry="4.016"/>
	<path fill="#FEA210" d="M665.25,169.792c0,1.242-1.105,2.247-2.477,2.247c-1.367,0-2.476-1.005-2.476-2.247
		c0-1.24,1.107-2.245,2.476-2.245C664.144,167.547,665.25,168.552,665.25,169.792z"/>
	<path fill="#FBC823" d="M620.25,162.313c0,1.968-1.755,3.558-3.924,3.558c-2.168,0-3.922-1.59-3.922-3.558
		c0-1.967,1.754-3.558,3.922-3.558C618.495,158.755,620.25,160.346,620.25,162.313z"/>
	<ellipse fill="#FECE17" cx="649.672" cy="124.792" rx="10.735" ry="9.737"/>
</g>
<g id="图层_11">
	<path fill="#EDC2BC" d="M50.176,109.463c0.697-0.812,1.472-1.54,2.312-2.158c0.781-0.57,3.736-1.781,3.966-2.755
		c0.03-0.136,0.076-0.265,0.102-0.406c0.096-0.54,0.151-1.098,0.142-1.665c-1.006-5.603-5.438-11.329-6.07-17.542
		c-0.175-0.594-0.324-1.186-0.436-1.781c-0.089-0.529-0.162-1.059-0.232-1.586c-0.177-1.587-0.335-3.181-0.562-4.724
		c-0.038-0.618-0.065-1.245-0.089-1.877c-0.153-4.45,0.006-9.344,0.622-14.668c0,0-4.798,7.019-8.188,16.802
		c-0.126,0.364-0.25,0.729-0.371,1.098c-1.196,3.785-2.305,7.225-2.656,11.949c-0.045,0.419-0.085,0.842-0.12,1.265
		c-0.714,9.022,1.492,18.792,7.975,25.401C47.094,114.189,48.375,111.554,50.176,109.463z"/>
</g>
<g>
	<path fill="#FBCBC7" d="M523.215,111.567l-6.899-0.414c-4.046-0.253-8.092,0.212-12.138-0.233
		c-7.575-0.819-15.667-6.483-17.994-13.918c-2.285-7.252,0.607-15.385,5.29-21.048c0.324-0.395,0.719-0.769,1.013-1.164
		c0.606-0.769,1.234-1.517,1.859-2.266c3.197-3.702,6.758-7.222,9.559-10.985c0.486-0.677,1.013-1.325,1.498-2.022
		c1.747-2.931,4.012-5.518,6.686-7.637c0.644-0.517,1.32-0.994,2.023-1.427c7.828-5.057,18.671-2.266,24.062,5.219
		c0.657,0.718,1.305,1.467,1.933,2.215c1.91,2.235,3.701,4.592,5.521,6.898l1.821,2.306c2.29,1.935,4.434,4.038,6.413,6.292
		c0.656,0.769,1.253,1.538,1.84,2.356c1.488,1.565,2.717,3.358,3.642,5.311c0.437,0.933,0.796,1.9,1.072,2.893
		c3.378,11.753-3.469,24.943-15.85,27.087c-4.754,0.819-9.771,0.678-14.575,0.769c-2.164,0-4.34-0.091-6.503-0.233
		C523.397,111.552,523.304,111.552,523.215,111.567z"/>
	<polygon fill="#C40011" points="539.692,128.418 506.939,128.418 519.875,91.399 526.735,91.399 	"/>
	<g>
		<defs>
			<polygon id="SVGID_2_" points="539.692,128.418 506.939,128.418 519.875,91.399 526.735,91.399 			"/>
		</defs>
		<clipPath id="SVGID_3_">
			<use xlink:href="#SVGID_2_"  overflow="visible"/>
		</clipPath>
		<g clip-path="url(#SVGID_3_)">
			<polygon fill="#C40011" points="539.692,128.418 506.939,128.418 519.875,91.399 526.735,91.399 			"/>
		</g>
	</g>
	<line fill="none" stroke="#FFFFFF" stroke-miterlimit="10" x1="517.924" y1="101.241" x2="518.016" y2="105.014"/>
	<polyline fill="none" stroke="#FFFFFF" stroke-miterlimit="10" points="517.358,101.676 517.924,102.586 518.573,101.747 	"/>
	<polyline fill="none" stroke="#FFFFFF" stroke-miterlimit="10" points="517.358,102.748 517.924,103.658 518.573,102.798 	"/>
	<line fill="none" stroke="#FFFFFF" stroke-miterlimit="10" x1="515.547" y1="105.964" x2="515.638" y2="109.747"/>
	<polyline fill="none" stroke="#FFFFFF" stroke-miterlimit="10" points="514.982,106.409 515.547,107.319 516.195,106.46 	"/>
	<polyline fill="none" stroke="#FFFFFF" stroke-miterlimit="10" points="514.982,107.481 515.547,108.372 516.195,107.532 	"/>
	<line fill="none" stroke="#FFFFFF" stroke-miterlimit="10" x1="519.159" y1="105.964" x2="519.25" y2="109.747"/>
	<polyline fill="none" stroke="#FFFFFF" stroke-miterlimit="10" points="518.603,106.409 519.159,107.319 519.805,106.46 	"/>
	<polyline fill="none" stroke="#FFFFFF" stroke-miterlimit="10" points="518.603,107.481 519.159,108.372 519.805,107.532 	"/>
	<line fill="none" stroke="#FFFFFF" stroke-miterlimit="10" x1="522.557" y1="105.964" x2="522.658" y2="109.747"/>
	<polyline fill="none" stroke="#FFFFFF" stroke-miterlimit="10" points="522.021,106.409 522.557,107.319 523.215,106.46 	"/>
	<polyline fill="none" stroke="#FFFFFF" stroke-miterlimit="10" points="522.021,107.481 522.557,108.372 523.215,107.532 	"/>
	<line fill="none" stroke="#FFFFFF" stroke-miterlimit="10" x1="526.451" y1="105.964" x2="526.522" y2="109.747"/>
	<polyline fill="none" stroke="#FFFFFF" stroke-miterlimit="10" points="525.895,106.409 526.431,107.319 527.089,106.46 	"/>
	<polyline fill="none" stroke="#FFFFFF" stroke-miterlimit="10" points="525.895,107.481 526.431,108.372 527.089,107.532 	"/>
	<line fill="none" stroke="#FFFFFF" stroke-miterlimit="10" x1="530.325" y1="105.964" x2="530.416" y2="109.747"/>
	<polyline fill="none" stroke="#FFFFFF" stroke-miterlimit="10" points="529.769,106.409 530.325,107.319 530.973,106.46 	"/>
	<polyline fill="none" stroke="#FFFFFF" stroke-miterlimit="10" points="529.769,107.481 530.325,108.372 530.973,107.532 	"/>
	<line fill="none" stroke="#FFFFFF" stroke-miterlimit="10" x1="528.625" y1="101.19" x2="528.716" y2="104.993"/>
	<polyline fill="none" stroke="#FFFFFF" stroke-miterlimit="10" points="528.06,101.655 528.625,102.545 529.273,101.706 	"/>
	<polyline fill="none" stroke="#FFFFFF" stroke-miterlimit="10" points="528.06,102.708 528.625,103.618 529.273,102.778 	"/>
	<line fill="none" stroke="#FFFFFF" stroke-miterlimit="10" x1="531.468" y1="110.627" x2="531.539" y2="114.43"/>
	<polyline fill="none" stroke="#FFFFFF" stroke-miterlimit="10" points="530.912,111.092 531.438,111.982 532.096,111.143 	"/>
	<polyline fill="none" stroke="#FFFFFF" stroke-miterlimit="10" points="530.912,112.145 531.438,113.055 532.096,112.215 	"/>
	<line fill="none" stroke="#FFFFFF" stroke-miterlimit="10" x1="528.322" y1="110.678" x2="528.412" y2="114.481"/>
	<polyline fill="none" stroke="#FFFFFF" stroke-miterlimit="10" points="527.756,111.143 528.322,112.053 528.969,111.194 	"/>
	<polyline fill="none" stroke="#FFFFFF" stroke-miterlimit="10" points="527.756,112.195 528.322,113.105 528.969,112.266 	"/>
	<line fill="none" stroke="#FFFFFF" stroke-miterlimit="10" x1="524.236" y1="110.678" x2="524.306" y2="114.481"/>
	<polyline fill="none" stroke="#FFFFFF" stroke-miterlimit="10" points="523.68,111.143 524.215,112.053 524.872,111.194 	"/>
	<polyline fill="none" stroke="#FFFFFF" stroke-miterlimit="10" points="523.68,112.195 524.215,113.105 524.872,112.266 	"/>
	<line fill="none" stroke="#FFFFFF" stroke-miterlimit="10" x1="520.23" y1="110.283" x2="520.321" y2="114.076"/>
	<polyline fill="none" stroke="#FFFFFF" stroke-miterlimit="10" points="519.675,110.749 520.23,111.628 520.888,110.789 	"/>
	<polyline fill="none" stroke="#FFFFFF" stroke-miterlimit="10" points="519.675,111.8 520.23,112.701 520.888,111.871 	"/>
	<line fill="none" stroke="#FFFFFF" stroke-miterlimit="10" x1="515.567" y1="110.678" x2="515.658" y2="114.481"/>
	<polyline fill="none" stroke="#FFFFFF" stroke-miterlimit="10" points="515.012,111.143 515.547,112.053 516.225,111.194 	"/>
	<polyline fill="none" stroke="#FFFFFF" stroke-miterlimit="10" points="515.012,112.195 515.547,113.105 516.225,112.266 	"/>
	<line fill="none" stroke="#FFFFFF" stroke-miterlimit="10" x1="513.534" y1="115.573" x2="513.606" y2="119.346"/>
	<polyline fill="none" stroke="#FFFFFF" stroke-miterlimit="10" points="512.978,116.039 513.514,116.929 514.172,116.089 	"/>
	<polyline fill="none" stroke="#FFFFFF" stroke-miterlimit="10" points="512.978,117.09 513.514,118.001 514.172,117.131 	"/>
	<line fill="none" stroke="#FFFFFF" stroke-miterlimit="10" x1="518.016" y1="115.573" x2="518.107" y2="119.346"/>
	<polyline fill="none" stroke="#FFFFFF" stroke-miterlimit="10" points="517.459,116.039 518.016,116.929 518.663,116.089 	"/>
	<polyline fill="none" stroke="#FFFFFF" stroke-miterlimit="10" points="517.459,117.09 518.016,118.001 518.663,117.131 	"/>
	<line fill="none" stroke="#FFFFFF" stroke-miterlimit="10" x1="522.324" y1="115.573" x2="522.426" y2="119.346"/>
	<polyline fill="none" stroke="#FFFFFF" stroke-miterlimit="10" points="521.768,116.039 522.324,116.929 522.983,116.089 	"/>
	<polyline fill="none" stroke="#FFFFFF" stroke-miterlimit="10" points="521.768,117.09 522.324,118.001 522.983,117.131 	"/>
	<line fill="none" stroke="#FFFFFF" stroke-miterlimit="10" x1="526.714" y1="115.573" x2="526.805" y2="119.346"/>
	<polyline fill="none" stroke="#FFFFFF" stroke-miterlimit="10" points="526.148,116.039 526.684,116.929 527.342,116.089 	"/>
	<polyline fill="none" stroke="#FFFFFF" stroke-miterlimit="10" points="526.148,117.09 526.684,118.001 527.342,117.131 	"/>
	<line fill="none" stroke="#FFFFFF" stroke-miterlimit="10" x1="531.185" y1="115.644" x2="531.256" y2="119.417"/>
	<polyline fill="none" stroke="#FFFFFF" stroke-miterlimit="10" points="530.628,116.089 531.165,117 531.813,116.16 	"/>
	<polyline fill="none" stroke="#FFFFFF" stroke-miterlimit="10" points="530.628,117.161 531.165,118.071 531.813,117.202 	"/>
	<line fill="none" stroke="#FFFFFF" stroke-miterlimit="10" x1="534.077" y1="120.287" x2="534.168" y2="124.08"/>
	<polyline fill="none" stroke="#FFFFFF" stroke-miterlimit="10" points="533.521,120.752 534.077,121.632 534.725,120.792 	"/>
	<polyline fill="none" stroke="#FFFFFF" stroke-miterlimit="10" points="533.521,121.794 534.077,122.704 534.725,121.865 	"/>
	<line fill="none" stroke="#FFFFFF" stroke-miterlimit="10" x1="529.394" y1="120.256" x2="529.485" y2="124.06"/>
	<polyline fill="none" stroke="#FFFFFF" stroke-miterlimit="10" points="528.827,120.722 529.394,121.612 530.041,120.772 	"/>
	<polyline fill="none" stroke="#FFFFFF" stroke-miterlimit="10" points="528.827,121.773 529.394,122.684 530.041,121.844 	"/>
	<line fill="none" stroke="#FFFFFF" stroke-miterlimit="10" x1="524.164" y1="120.166" x2="524.266" y2="123.969"/>
	<polyline fill="none" stroke="#FFFFFF" stroke-miterlimit="10" points="523.61,120.631 524.164,121.521 524.823,120.681 	"/>
	<polyline fill="none" stroke="#FFFFFF" stroke-miterlimit="10" points="523.61,121.683 524.164,122.593 524.823,121.753 	"/>
	<line fill="none" stroke="#FFFFFF" stroke-miterlimit="10" x1="519.977" y1="120.166" x2="520.068" y2="123.969"/>
	<polyline fill="none" stroke="#FFFFFF" stroke-miterlimit="10" points="519.412,120.631 519.947,121.521 520.604,120.681 	"/>
	<polyline fill="none" stroke="#FFFFFF" stroke-miterlimit="10" points="519.412,121.683 519.947,122.593 520.604,121.753 	"/>
	<line fill="none" stroke="#FFFFFF" stroke-miterlimit="10" x1="515.214" y1="120.166" x2="515.316" y2="123.969"/>
	<polyline fill="none" stroke="#FFFFFF" stroke-miterlimit="10" points="514.657,120.631 515.214,121.521 515.87,120.681 	"/>
	<polyline fill="none" stroke="#FFFFFF" stroke-miterlimit="10" points="514.657,121.683 515.214,122.593 515.87,121.753 	"/>
	<line fill="none" stroke="#FFFFFF" stroke-miterlimit="10" x1="513.211" y1="124.343" x2="513.302" y2="128.136"/>
	<polyline fill="none" stroke="#FFFFFF" stroke-miterlimit="10" points="512.655,124.808 513.211,125.719 513.868,124.849 	"/>
	<polyline fill="none" stroke="#FFFFFF" stroke-miterlimit="10" points="512.655,125.85 513.211,126.76 513.868,125.921 	"/>
	<line fill="none" stroke="#FFFFFF" stroke-miterlimit="10" x1="517.621" y1="124.343" x2="517.712" y2="128.136"/>
	<polyline fill="none" stroke="#FFFFFF" stroke-miterlimit="10" points="517.054,124.808 517.621,125.719 518.269,124.849 	"/>
	<polyline fill="none" stroke="#FFFFFF" stroke-miterlimit="10" points="517.054,125.85 517.621,126.76 518.269,125.921 	"/>
	<line fill="none" stroke="#FFFFFF" stroke-miterlimit="10" x1="522.213" y1="124.343" x2="522.304" y2="128.136"/>
	<polyline fill="none" stroke="#FFFFFF" stroke-miterlimit="10" points="521.656,124.808 522.213,125.719 522.861,124.849 	"/>
	<polyline fill="none" stroke="#FFFFFF" stroke-miterlimit="10" points="521.656,125.85 522.213,126.76 522.861,125.921 	"/>
	<line fill="none" stroke="#FFFFFF" stroke-miterlimit="10" x1="526.714" y1="124.343" x2="526.805" y2="128.136"/>
	<polyline fill="none" stroke="#FFFFFF" stroke-miterlimit="10" points="526.148,124.808 526.714,125.719 527.362,124.849 	"/>
	<polyline fill="none" stroke="#FFFFFF" stroke-miterlimit="10" points="526.148,125.85 526.714,126.76 527.362,125.921 	"/>
	<line fill="none" stroke="#FFFFFF" stroke-miterlimit="10" x1="532.025" y1="124.454" x2="532.096" y2="128.237"/>
	<polyline fill="none" stroke="#FFFFFF" stroke-miterlimit="10" points="531.468,124.899 532.005,125.81 532.653,124.939 	"/>
	<polyline fill="none" stroke="#FFFFFF" stroke-miterlimit="10" points="531.468,125.972 532.005,126.851 532.653,126.012 	"/>
	<line fill="none" stroke="#FFFFFF" stroke-miterlimit="10" x1="536.526" y1="124.454" x2="536.617" y2="128.237"/>
	<polyline fill="none" stroke="#FFFFFF" stroke-miterlimit="10" points="535.97,124.899 536.506,125.81 537.152,124.939 	"/>
	<polyline fill="none" stroke="#FFFFFF" stroke-miterlimit="10" points="535.97,125.972 536.506,126.851 537.152,126.012 	"/>
	<line fill="none" stroke="#FFFFFF" stroke-miterlimit="10" x1="509.509" y1="124.454" x2="509.6" y2="128.237"/>
	<polyline fill="none" stroke="#FFFFFF" stroke-miterlimit="10" points="508.973,124.899 509.509,125.81 510.156,124.939 	"/>
	<polyline fill="none" stroke="#FFFFFF" stroke-miterlimit="10" points="508.973,125.972 509.509,126.851 510.156,126.012 	"/>
	<line fill="none" stroke="#FFFFFF" stroke-miterlimit="10" x1="511.298" y1="120.166" x2="511.39" y2="123.969"/>
	<polyline fill="none" stroke="#FFFFFF" stroke-miterlimit="10" points="510.764,120.631 511.298,121.521 511.956,120.681 	"/>
	<polyline fill="none" stroke="#FFFFFF" stroke-miterlimit="10" points="510.764,121.683 511.298,122.593 511.956,121.753 	"/>
	<ellipse fill="#FFFFFF" cx="523.306" cy="98.186" rx="4.612" ry="5.452"/>
	<ellipse fill="#FCF7F0" cx="523.094" cy="79.646" rx="18.024" ry="20.098"/>
	<path fill="#FBCBC7" d="M504.776,76.035c0,0,18.581-8.537,18.439-18.439s-12.451,1.912-12.451,1.912l-6.788,15.061l0.84,1.467"/>
	<path fill="#FBCBC7" d="M541.35,76.035c0,0-18.58-8.537-18.398-18.439c0.183-9.902,12.451,1.912,12.451,1.912l6.787,15.061
		L541.35,76.035"/>
	<path fill="#282528" d="M541.653,55.896h-39.607c-0.51,1.019-0.953,2.07-1.326,3.146h43.059
		C543.12,57.97,542.432,56.917,541.653,55.896z"/>
	<path fill="#282528" d="M538.761,52.144l-1.911-2.306h-30.891c-0.819,1.012-1.559,2.074-2.267,3.146h35.767
		C539.226,52.72,538.993,52.417,538.761,52.144z"/>
	<path fill="#282528" d="M532.187,40.158c0-0.142,0.142-1.072,0.324-2.448h-13.959c-1.255,1.011-2.499,2.073-3.753,3.146h17.388
		V40.158z"/>
	<path fill="#282528" d="M532.681,25.026c-0.211,0.091-0.413,0.212-0.626,0.324c-2.216,1.355-4.237,4.48-6.069,6.069
		c-0.718,0.657-1.446,1.285-2.194,1.912c-0.557,0.486-1.143,0.951-1.75,1.446h10.842C533.49,30.225,534.006,24.439,532.681,25.026z"
		/>
	<path fill="#282528" d="M532.934,43.769h-21.332c-1.091,1.025-2.14,2.074-3.145,3.146h26.207
		C533.98,45.929,533.401,44.874,532.934,43.769z"/>
	<path fill="#282528" d="M546.478,64.079c-0.323-0.718-0.657-1.446-1.01-2.145H499.95c-0.354,1.632-0.54,3.296-0.557,4.966
		c-0.032,0.251,0.025,0.505,0.162,0.718c0.17,0.165,0.391,0.265,0.627,0.283c14.107,2.894,28.607,3.342,42.866,1.325
		c0.789-0.122,1.559-0.253,2.327-0.375C548.087,68.873,547.106,65.637,546.478,64.079z"/>
	<path fill="#FFFFFF" d="M543.778,59.042h-43.059c-0.334,0.946-0.606,1.912-0.819,2.893h45.518
		C544.921,60.954,544.355,59.992,543.778,59.042z"/>
	<path fill="#FFFFFF" d="M539.459,53.044h-35.757c-0.606,0.931-1.144,1.912-1.657,2.893h39.607
		C540.956,54.915,540.207,53.954,539.459,53.044z"/>
	<path fill="#FFFFFF" d="M534.664,46.975h-26.207c-0.86,0.931-1.699,1.912-2.498,2.893h30.891
		C536.112,48.917,535.352,47.986,534.664,46.975z"/>
	<path fill="#FFFFFF" d="M532.217,40.906H514.82c-1.093,0.951-2.165,1.911-3.218,2.893h21.332
		C532.556,42.875,532.315,41.9,532.217,40.906z"/>
	<path fill="#FFFFFF" d="M532.913,34.837h-10.842c-1.144,0.951-2.327,1.912-3.52,2.893h13.969
		C532.63,36.86,532.772,35.849,532.913,34.837z"/>
	<ellipse opacity="0.3" fill="#FFC5C5" enable-background="new    " cx="513.14" cy="85.128" rx="3.146" ry="2.124"/>
	<ellipse opacity="0.3" fill="#FFC5C5" enable-background="new    " cx="533.147" cy="85.128" rx="3.146" ry="2.124"/>
	<circle fill="#FCF7F0" cx="504.776" cy="78.786" r="3.105"/>
	<circle fill="#FCF7F0" cx="541.139" cy="78.573" r="3.105"/>
	<path fill="#5B2B0B" d="M514.91,76.753c0.122,0.556,1.011,1.011,2.073,1.011s2.023-0.445,2.074-1.011H514.91z"/>
	<path fill="#5B2B0B" d="M527.686,76.753c0.121,0.556,1.01,1.011,2.072,1.011s2.024-0.445,2.074-1.011H527.686z"/>
	<path fill="#ED6464" d="M524.357,93.756h-2.214c-0.05-0.005-0.087-0.043-0.092-0.091l0,0c0.005-0.048,0.042-0.086,0.092-0.091
		h2.214c0.049,0.004,0.088,0.043,0.091,0.091l0,0C524.445,93.713,524.406,93.751,524.357,93.756z"/>
	<path fill="#F4B1AE" d="M523.215,81.911c0.142,0.698,0.283,1.396,0.415,2.074c0.155,0.666,0.263,1.342,0.321,2.023
		c0,0.557,0,1.163,0,1.73c0,0.338-0.023,0.676-0.068,1.011c0.001,0.345-0.061,0.688-0.183,1.012
		c-0.374,0.819-1.093,0.394-1.467-0.122c-0.292-0.348-0.405-0.812-0.304-1.254"/>
	<path d="M546.478,64.261h-46.922c-0.12,0.95-0.181,1.906-0.183,2.863c-0.032,0.251,0.025,0.505,0.162,0.718
		c0.17,0.165,0.392,0.265,0.627,0.283c14.123,2.91,28.64,3.368,42.917,1.355c0.79-0.122,1.559-0.253,2.327-0.375
		c2.681,0,1.699-3.237,1.011-4.805L546.478,64.261z"/>
	<circle cx="532.539" cy="23.721" r="6.898"/>
</g>
</svg>
