<?xml version="1.0" encoding="utf-8"?>
<!-- Generator: Adobe Illustrator 16.0.4, SVG Export Plug-In . SVG Version: 6.00 Build 0)  -->
<!DOCTYPE svg PUBLIC "-//W3C//DTD SVG 1.1//EN" "http://www.w3.org/Graphics/SVG/1.1/DTD/svg11.dtd" [
	<!ENTITY st0 "clip-path:url(#SVGID_2_);fill:#76E6D8;">
	<!ENTITY st1 "clip-path:url(#SVGID_4_);fill:none;stroke:#FFFFFF;stroke-width:2;stroke-miterlimit:10;">
	<!ENTITY st2 "clip-path:url(#SVGID_4_);fill:none;stroke:#FFFFFF;stroke-miterlimit:10;">
]>
<svg version="1.1" id="Layer_1" xmlns="http://www.w3.org/2000/svg" xmlns:xlink="http://www.w3.org/1999/xlink" x="0px" y="0px"
	 width="151.941px" height="151.941px" viewBox="0 0 151.941 151.941" style="enable-background:new 0 0 151.941 151.941;"
	 xml:space="preserve">
<g>
	<defs>
		<rect id="SVGID_1_" x="-205.232" y="-283.753" width="595.28" height="841.89"/>
	</defs>
	<clipPath id="SVGID_2_">
		<use xlink:href="#SVGID_1_"  style="overflow:visible;"/>
	</clipPath>
	<path style="&st0;" d="M116.985,151.941H34.956C15.73,151.941,0,136.211,0,116.985V34.956C0,15.73,15.73,0,34.956,0h82.029
		c19.227,0,34.956,15.73,34.956,34.956v82.029C151.941,136.211,136.211,151.941,116.985,151.941"/>
</g>
<g>
	<defs>
		<rect id="SVGID_3_" x="-205.232" y="-283.753" width="595.28" height="841.89"/>
	</defs>
	<clipPath id="SVGID_4_">
		<use xlink:href="#SVGID_3_"  style="overflow:visible;"/>
	</clipPath>
	<path style="&st1;" d="M95.395,120.874h-38.85c-4.42,0-8.037-3.616-8.037-8.037V39.104c0-4.42,3.617-8.037,8.037-8.037h38.85
		c4.421,0,8.037,3.617,8.037,8.037v73.733C103.432,117.258,99.816,120.874,95.395,120.874z"/>
	<circle style="&st2;" cx="75.971" cy="113.061" r="4.402"/>
	<circle style="&st2;" cx="66.871" cy="36.816" r="1.258"/>
	<path style="&st2;" d="M83.222,37.571H72.405c-0.415,0-0.754-0.34-0.754-0.755s0.339-0.754,0.754-0.754h10.817
		c0.415,0,0.755,0.339,0.755,0.754S83.637,37.571,83.222,37.571z"/>
	<rect x="54.451" y="41.716" style="&st2;" width="43.465" height="64.997"/>
	<line style="&st2;" x1="60.513" y1="47.825" x2="73.327" y2="47.825"/>
	<line style="&st2;" x1="60.513" y1="50.825" x2="73.327" y2="50.825"/>
	<line style="&st2;" x1="60.513" y1="53.825" x2="73.327" y2="53.825"/>
	<line style="&st2;" x1="60.513" y1="78.825" x2="73.327" y2="78.825"/>
	<line style="&st2;" x1="60.513" y1="81.825" x2="73.327" y2="81.825"/>
	<line style="&st2;" x1="60.513" y1="84.825" x2="73.327" y2="84.825"/>
	<line style="&st2;" x1="77.513" y1="78.825" x2="90.327" y2="78.825"/>
	<line style="&st2;" x1="77.513" y1="81.825" x2="90.327" y2="81.825"/>
	<line style="&st2;" x1="77.513" y1="84.825" x2="90.327" y2="84.825"/>
	<line style="&st2;" x1="60.513" y1="89.825" x2="73.327" y2="89.825"/>
	<line style="&st2;" x1="60.513" y1="92.825" x2="73.327" y2="92.825"/>
	<line style="&st2;" x1="60.513" y1="95.825" x2="73.327" y2="95.825"/>
	<line style="&st2;" x1="77.513" y1="89.825" x2="90.327" y2="89.825"/>
	<line style="&st2;" x1="77.513" y1="92.825" x2="90.327" y2="92.825"/>
	<line style="&st2;" x1="77.513" y1="95.825" x2="90.327" y2="95.825"/>
	<line style="&st2;" x1="60.513" y1="56.825" x2="89.985" y2="56.825"/>
	<line style="&st2;" x1="60.513" y1="59.825" x2="89.985" y2="59.825"/>
	<line style="&st2;" x1="60.513" y1="62.825" x2="89.985" y2="62.825"/>
	<line style="&st2;" x1="60.513" y1="65.825" x2="89.985" y2="65.825"/>
	<line style="&st2;" x1="60.513" y1="68.825" x2="89.985" y2="68.825"/>
	<line style="&st2;" x1="60.513" y1="71.825" x2="89.985" y2="71.825"/>
</g>
</svg>
