<?xml version="1.0" encoding="utf-8"?>
<!-- Generator: Adobe Illustrator 16.0.4, SVG Export Plug-In . SVG Version: 6.00 Build 0)  -->
<!DOCTYPE svg PUBLIC "-//W3C//DTD SVG 1.1//EN" "http://www.w3.org/Graphics/SVG/1.1/DTD/svg11.dtd" [
	<!ENTITY st0 "clip-path:url(#SVGID_2_);fill:none;stroke:#FFFFFF;stroke-width:2;stroke-miterlimit:10;">
	<!ENTITY st1 "clip-path:url(#SVGID_2_);fill:none;stroke:#FFFFFF;stroke-miterlimit:10;">
	<!ENTITY st2 "clip-path:url(#SVGID_2_);fill:#FF9394;">
	<!ENTITY st3 "clip-path:url(#SVGID_2_);fill:#FFFFFF;">
]>
<svg version="1.1" id="Layer_1" xmlns="http://www.w3.org/2000/svg" xmlns:xlink="http://www.w3.org/1999/xlink" x="0px" y="0px"
	 width="151.941px" height="151.941px" viewBox="0 0 151.941 151.941" style="enable-background:new 0 0 151.941 151.941;"
	 xml:space="preserve">
<g>
	<defs>
		<rect id="SVGID_1_" x="-249.072" y="-339.657" width="595.28" height="841.89"/>
	</defs>
	<clipPath id="SVGID_2_">
		<use xlink:href="#SVGID_1_"  style="overflow:visible;"/>
	</clipPath>
	<path style="&st2;" d="M116.985,151.941H34.956C15.73,151.941,0,136.211,0,116.985V34.956C0,15.73,15.73,0,34.956,0h82.029
		c19.227,0,34.956,15.73,34.956,34.956v82.029C151.941,136.211,136.211,151.941,116.985,151.941"/>
	<polyline style="&st1;" points="99.743,50.093 54.333,50.093 44.281,98.455 119.013,98.455 108.961,50.093 104.346,50.093 	"/>
	<line style="&st0;" x1="51.713" y1="47.243" x2="39.479" y2="101.358"/>
	<circle style="&st1;" cx="38.615" cy="72.773" r="4.194"/>
	<circle style="&st1;" cx="42.984" cy="54.334" r="1.426"/>
	<circle style="&st1;" cx="41.258" cy="62.137" r="1.426"/>
	<circle style="&st1;" cx="36.239" cy="83.277" r="1.426"/>
	<circle style="&st1;" cx="33.926" cy="92.053" r="1.426"/>
	<polygon style="&st0;" points="92.224,78.917 96.125,73.48 92.426,72.227 	"/>
	<polygon style="&st0;" points="111.635,46.979 105.734,46.979 97.795,70.707 93.043,69.117 100.45,46.979 37.115,46.979 
		23.403,101.927 125.347,101.927 	"/>
	<polyline style="&st0;" points="105.734,46.979 109.187,36.659 104.435,35.069 100.45,46.979 	"/>
	<polyline style="&st0;" points="100.451,46.979 93.043,69.117 97.795,70.707 105.734,46.979 	"/>
	<path style="&st0;" d="M106.987,35.339L106.987,35.339c-0.911-0.305-1.406-1.299-1.103-2.21l0.338-1.009
		c0.306-0.91,1.3-1.406,2.209-1.101c0.911,0.304,1.407,1.299,1.103,2.209l-0.337,1.009
		C108.892,35.148,107.898,35.644,106.987,35.339z"/>
	
		<rect x="95.145" y="51.143" transform="matrix(0.9484 0.3172 -0.3172 0.9484 22.2553 -27.6849)" style="&st3;" width="2.037" height="6.746"/>
</g>
</svg>
