<?xml version="1.0" encoding="utf-8"?>
<!-- Generator: Adobe Illustrator 19.0.0, SVG Export Plug-In . SVG Version: 6.00 Build 0)  -->
<svg version="1.1" xmlns="http://www.w3.org/2000/svg" xmlns:xlink="http://www.w3.org/1999/xlink" x="0px" y="0px"
	 viewBox="0 0 808 414.8" style="enable-background:new 0 0 808 414.8;" xml:space="preserve">
<style type="text/css">
	.st0{fill:#B9E4CD;}
	.st1{fill:#272B35;}
	.st2{fill:#FFFFFF;stroke:#231815;stroke-miterlimit:10;}
	.st3{fill:#231815;}
	.st4{fill:#5DBDB1;}
	.st5{enable-background:new    ;}
	.st6{fill:#4FCBAF;}
	.st7{fill:#773E10;}
	.st8{fill:#B5E6E3;}
	.st9{fill:#9960AD;}
	.st10{fill:#E9C1EB;}
	.st11{fill:#FFC5C9;}
	.st12{fill:#F59C9C;}
	.st13{fill:#4C3A3E;}
	.st14{fill:#F7C7C3;}
	.st15{fill:#9CD8F2;}
	.st16{fill:#55BCE8;}
	.st17{fill:#FFD241;}
	.st18{fill:#FF9F31;}
	.st19{fill:#494938;}
	.st20{fill:#381F19;}
	.st21{fill:#748025;}
	.st22{fill:none;stroke:#231815;stroke-miterlimit:10;}
	.st23{fill:#E6803D;}
	.st24{fill:#B35046;}
	.st25{fill:none;stroke:#CE847C;stroke-width:3;stroke-miterlimit:10;}
	.st26{fill:#90331D;}
</style>
<g id="图层_7">
	<g id="XMLID_331_">
		<path id="XMLID_189_" class="st0" d="M546.1,144.2c0,0-15.6-5.1-18.2-14.2c0,0-5.4,15.4,17.4,25.7L546.1,144.2z"/>
		<path id="XMLID_188_" class="st0" d="M590.6,152.1c0,0,16.3,2,22.5-5.1c0,0-1.7,16.3-26.6,15.9L590.6,152.1z"/>
		<path id="XMLID_187_" class="st0" d="M588.5,110.4l-23-5.1c-6.5-1.4-13,0.8-17.3,5.3l53.6,12C599.9,116.6,595,111.9,588.5,110.4z"
			/>
		<path id="XMLID_186_" class="st1" d="M602.4,132.2c0.7-3.3,0.5-6.6-0.5-9.7l-53.6-12c-2.2,2.3-3.8,5.2-4.6,8.5l-0.8,3.8l58.7,13.1
			C601.7,135.4,602.4,132.2,602.4,132.2z"/>
		<circle id="XMLID_185_" class="st2" cx="560.1" cy="119.9" r="5.3"/>
		<circle id="XMLID_184_" class="st3" cx="560.1" cy="119.9" r="1.3"/>
		<circle id="XMLID_183_" class="st2" cx="588.4" cy="126.2" r="5.3"/>
		<circle id="XMLID_182_" class="st3" cx="588.4" cy="126.2" r="1.3"/>
		<path id="XMLID_181_" class="st4" d="M550.5,179.1L550.5,179.1c-7.7-1.7-12.7-9.5-10.9-17.2l2.4-10.7c1.7-7.7,9.5-12.7,17.2-10.9
			v0c7.7,1.7,12.7,9.5,10.9,17.2l-2.4,10.7C566,175.9,558.3,180.8,550.5,179.1z"/>
		<path id="XMLID_180_" class="st0" d="M551.8,190.2c0.7-1.7,1.2-3.5,1.8-5.2l-3.3-1c-0.3,1.3-0.7,2.5-1.3,3.7
			c-0.3,0.7-0.6,1.3-1,1.9c-0.4,0.6-1,0.9-1.7,1c-0.6,0.1-1.2,0.2-1.8,0.1c-0.3,0-0.5-0.1-0.8-0.2c-0.3-0.2-0.8-0.7-1.1-0.1
			c-1.4,3,3.1,3.4,4.7,3.4c0.4,0,0.8,0,1.2-0.1c0.3-0.1,0.7-0.2,1-0.3C550.8,192.9,551.3,191.5,551.8,190.2z"/>
		<path id="XMLID_179_" class="st0" d="M565.9,193.5c0-1.8,0.2-3.7,0.4-5.5l3.4,0.4c-0.2,1.3-0.3,2.6-0.3,3.9c0,0.7,0,1.5,0.2,2.2
			c0.2,0.7,0.6,1.2,1.1,1.6c0.5,0.4,1,0.7,1.6,0.8c0.3,0.1,0.5,0.1,0.8,0.1c0.4,0,1-0.3,1,0.3c0.1,3.3-4.2,2-5.6,1.3
			c-0.4-0.2-0.7-0.3-1.1-0.6c-0.3-0.2-0.5-0.4-0.8-0.7C565.7,196.4,565.9,194.9,565.9,193.5z"/>
		<circle id="XMLID_178_" class="st4" cx="572.7" cy="137.5" r="2.8"/>
		<circle id="XMLID_177_" class="st4" cx="565.1" cy="135.8" r="2.8"/>
		<circle id="XMLID_176_" class="st4" cx="580.2" cy="139.1" r="2.8"/>
		<circle id="XMLID_175_" class="st4" cx="587.8" cy="140.8" r="2.8"/>
		<circle id="XMLID_174_" class="st4" cx="595.3" cy="142.5" r="2.8"/>
		<g id="XMLID_171_" class="st5">
			<path id="XMLID_173_" class="st0" d="M570.5,129.1c0.7,2.1,0.9,4.3,0.4,6.6l-11.5,51.7c3.8,0.8,7.5,1.6,11.3,2.4
				c9.8,2.2,19.6-4,21.8-13.9l8.9-40C601.5,135.9,585.7,132.4,570.5,129.1z"/>
			<path id="XMLID_172_" class="st0" d="M580.1,134c0.2-0.9,0.5-1.8,0.9-2.6c-16.9-3.8-38.3-8.5-38.3-8.5l-8.9,40
				c-2.2,9.8,4,19.6,13.9,21.8c6.7,1.5,13.4,3.2,20.1,4.6L580.1,134z"/>
		</g>
		<path id="XMLID_170_" class="st6" d="M568.5,183.5l-16.2-3.6c-4.9-1.1-8.1-6-7-11l3.7-16.6c1.1-4.9,6-8.1,11-7l16.2,3.6
			c4.9,1.1,8.1,6,7,11l-3.7,16.6C578.4,181.5,573.5,184.6,568.5,183.5z"/>
		<polygon id="XMLID_169_" class="st6" points="566.6,134.8 576.3,137 569.4,145 		"/>
		<g id="XMLID_103_">
			<circle id="XMLID_107_" class="st6" cx="558.9" cy="137.6" r="2.8"/>
			<circle id="XMLID_105_" class="st6" cx="551.4" cy="135.8" r="2.8"/>
			<circle id="XMLID_104_" class="st6" cx="543.9" cy="134.1" r="2.8"/>
		</g>
		<g id="XMLID_110_">
			<circle id="XMLID_109_" class="st6" cx="595.9" cy="146" r="2.8"/>
			<circle id="XMLID_108_" class="st6" cx="588.3" cy="144.5" r="2.8"/>
			<circle id="XMLID_106_" class="st6" cx="580.7" cy="143" r="2.8"/>
		</g>
	</g>
</g>
<g id="猫">
	<path id="XMLID_1_" class="st7" d="M797.6,305.2H8.5c-3.3,0-5.9-2.7-5.9-5.9v-9.8c0-3.3,2.7-5.9,5.9-5.9h789.1
		c3.3,0,5.9,2.7,5.9,5.9v9.8C803.6,302.5,800.9,305.2,797.6,305.2z"/>
	<path id="XMLID_12_" class="st3" d="M190.2,234.9c-8.3-3.2-11.2,10.3-13.8,15.2c-2,3.7-4.3,7.2-7.3,10.2
		c-6.1,6.1-14.4,9.4-22.9,10.8c-4.4,0.7-8.9,1-13.3,1.1c-6.3,0.1-12.6,0.9-18.9,0.8c-7.4-0.1-14.7-1.1-22-2.4
		c-1.3-0.2-2.7-0.5-4-0.9c-9-2.3-15.2-8.5-16.4-17.9c-0.1-1.1-0.2-2.2-0.3-3.3c-0.3-7.3,0.4-15.2,3.6-21.9
		c6.3-13.1,22.7-18.4,36.1-19.4c1-0.1,1.9-0.1,2.9-0.1c10.1-0.2,19.9,2.5,29.5,5.6c4.9,1.6,9.9,3.1,14.5,5.5
		c3.4,1.7,13.9,10.2,14.7,1.2c0.1-1.3,0-2.6-0.3-3.9c-2.3-6.4-0.3-13.3,4.1-18c0.7-0.8,1.5-1.5,2.4-2.1c5-2.6,11.7-3.8,18.1-3.1
		c1.1,0.1,2.1,0.3,3.2,0.5c13.6,0.2,20.8,15,16.2,26.8c-0.1,1.2-0.3,2.4-0.5,3.6c-1.2,5.8-4.4,10.7-11,12.3c-1,0.3-1.9,0.4-2.9,0.6
		C197.7,236.6,193.5,236.1,190.2,234.9z"/>
	<path id="XMLID_13_" class="st3" d="M202.1,178.1c0,0-10.4,12.6-10.6,15.3l14.7,1.6C206.1,195,205.2,185.3,202.1,178.1z"/>
	<path id="XMLID_16_" class="st3" d="M231.6,213.2c0,0-14.5-7.5-17.2-7.1l1.6,14.7C216,220.7,225.3,217.8,231.6,213.2z"/>
	<path id="XMLID_15_" class="st3" d="M74.2,256.7c0,0,0.5,10,2.6,16.5c0,0,1.5,6.1-1.1,7c0,0-5.4,4,15,3l-9.4-3.5l4.1-12.8l5.3-3.3
		L74.2,256.7z"/>
	<path id="XMLID_18_" class="st3" d="M95.2,257.2c0,0,1,10,3.3,16.4c0,0,1.7,6-0.8,7.1c0,0-5.2,4.2,15.1,2.3l-9.6-3.1l3.5-12.9
		l5.2-3.5L95.2,257.2z"/>
	<path id="XMLID_19_" class="st3" d="M126,257.3c0,0,1,10,3.3,16.4c0,0,1.7,6-0.8,7.1c0,0-5.2,4.2,15.1,2.3l-9.6-3.1l3.5-12.9
		l5.2-3.5L126,257.3z"/>
	<path id="XMLID_20_" class="st3" d="M145.8,257.8c0,0,1,10,3.3,16.4c0,0,1.7,6-0.8,7.1c0,0-5.2,4.2,15.1,2.3l-9.6-3.1l3.5-12.9
		l5.2-3.5L145.8,257.8z"/>
	<path id="XMLID_17_" class="st3" d="M12.9,319.6c0.2,1.3,0.6,2.6,0.9,3.3c3,6,9.7,11.9,16.7,11.6c5.6-0.2,9.6-3.8,13.1-7.8
		c7.2-8,8.9-17.4,9.7-27.9c0.4-5.5,0.4-11.1-0.5-16.6c-1.6-10-3-19.4,1.1-29c3.7-8.6,11.4-13,20.7-12.5c0,0,0-7.8,0-7.8
		c0-0.4-9,1.6-9.5,1.8c-6.6,2.2-12.4,6.4-16.1,12.4c-6.2,10.2-5.8,21.9-2.7,32.9c1.9,6.7,2.2,13.7,1.4,20.6
		c-0.8,6.1-2.4,12.4-5.8,17.6c-3.1,4.7-10.2,11-16.3,8.7c-3.8-1.4-5.2-5.8-7.3-8.9c-0.7-1-2.1-2.9-3.5-2.8
		C12.9,315.4,12.6,317.6,12.9,319.6z"/>
</g>
<g id="图层_2">
	<g id="XMLID_257_">
		<path id="XMLID_273_" class="st8" d="M415.1,238.3c0,0-16.3-1.6-20.9-9.9c0,0-1.9,16.3,22.5,21.3L415.1,238.3z"/>
		<polygon id="XMLID_272_" class="st4" points="408.3,217.1 400.3,223.4 408.1,223.4 		"/>
		<g id="XMLID_268_">
			<path id="XMLID_271_" class="st8" d="M475.3,263.1c-1.2-0.9-2.5-1.6-3.6-2.6c-1.8-1.6-4.3-3.6-4.3-6.3c0,0,0-34.6,0-41h-60.1v9.6
				v31.4c0,10.1,8.2,18.3,18.3,18.3c7.3,0,14.5,0.3,21.8,0.1c0.6,0,1.2,0,1.8-0.1c3.5-0.2,6.9-0.6,10.4-1.1c0.6-0.1,1.1-0.2,1.7-0.3
				c2.8-0.5,5.6-0.9,8.3-1.7c2-0.5,3.9-1.1,5.9-1.8c0.7-0.3,1.5-0.5,1.9-1.2C478.1,265.1,476.2,263.7,475.3,263.1z"/>
			<path id="XMLID_270_" class="st8" d="M449.1,191.1h-23.6c-6.6,0-12.5,3.6-15.7,8.9h55C461.6,194.7,455.8,191.1,449.1,191.1z"/>
			<path id="XMLID_269_" class="st1" d="M467.4,209.4c0-3.4-0.9-6.6-2.6-9.3h-55c-1.6,2.7-2.6,5.9-2.6,9.3v3.9h60.1
				C467.4,212.6,467.4,209.4,467.4,209.4z"/>
		</g>
		<circle id="XMLID_267_" class="st2" cx="430.5" cy="206.6" r="5.3"/>
		<circle id="XMLID_266_" class="st3" cx="430.5" cy="206.6" r="1.3"/>
		<path id="XMLID_265_" class="st4" d="M427,266.4L427,266.4c-7.9,0-14.4-6.5-14.4-14.4v-11c0-7.9,6.5-14.4,14.4-14.4h0
			c7.9,0,14.4,6.5,14.4,14.4v11C441.4,259.9,434.9,266.4,427,266.4z"/>
		<path id="XMLID_264_" class="st8" d="M430.7,276.9c0.3-1.8,0.5-3.7,0.6-5.5l-3.4-0.2c-0.1,1.3-0.2,2.6-0.5,3.9
			c-0.2,0.7-0.3,1.4-0.6,2.1c-0.3,0.7-0.8,1.1-1.4,1.4c-0.5,0.3-1.1,0.5-1.7,0.5c-0.3,0-0.6,0-0.8,0c-0.4-0.1-0.9-0.5-1.1,0.2
			c-0.7,3.2,3.7,2.7,5.3,2.3c0.4-0.1,0.8-0.2,1.1-0.4c0.3-0.1,0.6-0.3,0.9-0.5C430.3,279.9,430.4,278.3,430.7,276.9z"/>
		<path id="XMLID_263_" class="st8" d="M449.1,274.6c-0.8-1.7-1.7-3.3-2.6-4.8l-3,1.8c0.7,1.1,1.3,2.3,1.8,3.5
			c0.3,0.7,0.6,1.4,0.7,2.1c0.1,0.7,0,1.4-0.4,1.9c-0.3,0.5-0.7,1-1.1,1.4c-0.2,0.2-0.4,0.3-0.7,0.4c-0.3,0.1-1,0.1-0.8,0.7
			c1.2,3.1,4.6,0.1,5.7-1.1c0.3-0.3,0.5-0.6,0.7-0.9c0.2-0.3,0.3-0.6,0.5-0.9C450.5,277.2,449.7,275.8,449.1,274.6z"/>
		<circle id="XMLID_262_" class="st4" cx="439.6" cy="221" r="2.8"/>
		<circle id="XMLID_261_" class="st4" cx="431.8" cy="221" r="2.8"/>
		<circle id="XMLID_260_" class="st4" cx="447.3" cy="221" r="2.8"/>
		<circle id="XMLID_259_" class="st4" cx="455" cy="221" r="2.8"/>
		<circle id="XMLID_258_" class="st4" cx="462.8" cy="221" r="2.8"/>
	</g>
	<polygon id="XMLID_255_" class="st9" points="167.2,138.7 177.4,138 171.6,143.2 	"/>
	<g id="XMLID_120_">
		<path id="XMLID_256_" class="st9" d="M144.8,184.7c0,0,12,11.2,21.2,9.1c0,0-10.9,12.2-30.9-2.8L144.8,184.7z"/>
		<path id="XMLID_254_" class="st10" d="M86.4,155.9c1.4,0.3,2.9,0.8,4.3,1c2.4,0.3,5.6,0.9,7.6-0.9c0,0,25.9-22.9,30.8-27.1
			l39.8,45.1l-7.2,6.3L138,201.1c-7.5,6.6-19.1,5.9-25.8-1.6c-4.8-5.4-9.8-10.7-14.5-16.3c-0.4-0.5-0.8-0.9-1.1-1.4
			c-2.2-2.7-4.2-5.6-6-8.5c-0.3-0.5-0.6-1-0.9-1.5c-1.5-2.4-3-4.8-4.2-7.4c-0.9-1.8-1.8-3.7-2.5-5.6c-0.3-0.7-0.6-1.4-0.4-2.2
			C83,155.2,85.3,155.7,86.4,155.9z"/>
		<path id="XMLID_253_" class="st10" d="M157.7,128l15.6,17.7c4.4,5,5.6,11.7,3.7,17.7l-36.4-41.2C146.7,121,153.3,123,157.7,128z"
			/>
		<path id="XMLID_252_" class="st1" d="M131.9,126.3c2.6-2.3,5.6-3.7,8.7-4.2l36.4,41.2c-1,3-2.7,5.9-5.3,8.1l-2.9,2.5L129,128.9
			C129.4,128.5,131.9,126.3,131.9,126.3z"/>
		<circle id="XMLID_250_" class="st2" cx="151" cy="143.6" r="5.3"/>
		<circle id="XMLID_249_" class="st3" cx="151" cy="143.6" r="1.3"/>
		<path id="XMLID_248_" class="st9" d="M115.8,194.4L115.8,194.4c5.3,6,14.4,6.5,20.4,1.3l8.3-7.3c6-5.3,6.5-14.4,1.3-20.4l0,0
			c-5.3-6-14.4-6.5-20.4-1.3l-8.3,7.3C111.1,179.3,110.6,188.4,115.8,194.4z"/>
		<path id="XMLID_247_" class="st10" d="M107.7,200c0.5-1.8,1.2-3.5,1.9-5.2l3.2,1.3c-0.5,1.2-1,2.4-1.3,3.7
			c-0.2,0.7-0.4,1.4-0.4,2.2c0,0.7,0.2,1.3,0.6,1.9c0.4,0.5,0.8,0.9,1.3,1.2c0.2,0.1,0.5,0.3,0.8,0.3c0.4,0.1,1.1,0,0.9,0.6
			c-0.8,3.2-4.6,0.8-5.8-0.3c-0.3-0.3-0.6-0.5-0.9-0.8c-0.2-0.3-0.4-0.6-0.6-0.9C106.8,202.8,107.3,201.3,107.7,200z"/>
		<path id="XMLID_246_" class="st10" d="M95.1,183.2c1.8-0.5,3.6-0.9,5.4-1.2l0.6,3.4c-1.3,0.2-2.6,0.5-3.8,0.9
			c-0.7,0.2-1.4,0.5-2,0.8c-0.6,0.4-1,0.9-1.2,1.6c-0.2,0.6-0.3,1.2-0.3,1.8c0,0.3,0,0.6,0.1,0.8c0.1,0.3,0.6,0.9,0,1.1
			c-3.1,1.1-3.1-3.4-2.9-5c0-0.4,0.1-0.8,0.2-1.2c0.1-0.3,0.2-0.6,0.4-1C92.2,183.9,93.7,183.6,95.1,183.2z"/>
		<circle id="XMLID_245_" class="st9" cx="141.6" cy="154.9" r="2.8"/>
		<circle id="XMLID_244_" class="st9" cx="146.7" cy="160.7" r="2.8"/>
		<circle id="XMLID_243_" class="st9" cx="136.5" cy="149.1" r="2.8"/>
		<circle id="XMLID_242_" class="st9" cx="131.4" cy="143.3" r="2.8"/>
		<circle id="XMLID_241_" class="st9" cx="126.2" cy="137.5" r="2.8"/>
	</g>
	<g id="XMLID_23_">
		<path id="XMLID_239_" class="st11" d="M709.3,245.9c0,0,15.8,4.6,23.1-1.4c0,0-4.2,15.8-28.8,11.5L709.3,245.9z"/>
		<polygon id="XMLID_238_" class="st12" points="723.5,228.7 728.5,237.5 721.3,234.7 		"/>
		<path id="XMLID_237_" class="st11" d="M644.2,246.7c1.4-0.4,2.9-0.6,4.3-1.1c2.3-0.8,5.4-1.8,6.4-4.2c0,0,12.8-32.1,15.2-38.1
			l55.9,22.2l-3.5,8.9l-11.6,29.2c-3.7,9.3-14.4,13.9-23.7,10.2c-6.7-2.7-13.6-5.1-20.3-8c-0.5-0.2-1.1-0.5-1.6-0.7
			c-3.2-1.4-6.2-3.1-9.2-4.9c-0.5-0.3-1-0.6-1.5-0.9c-2.4-1.5-4.8-2.9-7.1-4.6c-1.6-1.2-3.2-2.5-4.8-3.9c-0.6-0.5-1.2-1-1.3-1.8
			C640.8,247.5,643.1,247,644.2,246.7z"/>
		<path id="XMLID_236_" class="st11" d="M695.1,189.5l21.9,8.7c6.2,2.5,10.3,8,11.3,14.1L677.2,192
			C682.2,188.2,688.9,187,695.1,189.5z"/>
		<path id="XMLID_235_" class="st13" d="M671.4,199.7c1.3-3.2,3.3-5.8,5.8-7.7l51.1,20.3c0.5,3.1,0.2,6.5-1,9.6l-1.4,3.6l-55.9-22.2
			C670.2,202.7,671.4,199.7,671.4,199.7z"/>
		<circle id="XMLID_233_" class="st2" cx="706.7" cy="210.7" r="5.3"/>
		<circle id="XMLID_232_" class="st3" cx="706.7" cy="210.7" r="1.3"/>
		<path id="XMLID_231_" class="st12" d="M687.8,267.6L687.8,267.6c7.4,2.9,15.8-0.7,18.7-8.1l4.1-10.2c2.9-7.4-0.7-15.8-8.1-18.7v0
			c-7.4-2.9-15.8,0.7-18.7,8.1l-4.1,10.2C676.8,256.3,680.4,264.7,687.8,267.6z"/>
		<path id="XMLID_230_" class="st14" d="M680.5,276.1c0.4-1.8,0.9-3.6,1.5-5.3l3.3,1.1c-0.4,1.2-0.8,2.5-1,3.8
			c-0.1,0.7-0.2,1.4-0.2,2.2c0,0.7,0.3,1.3,0.8,1.8c0.4,0.4,0.9,0.8,1.4,1.1c0.2,0.1,0.5,0.2,0.8,0.3c0.4,0.1,1-0.1,0.9,0.5
			c-0.5,3.3-4.5,1.1-5.8,0.2c-0.3-0.2-0.6-0.5-0.9-0.8c-0.2-0.2-0.5-0.5-0.7-0.8C679.8,278.9,680.2,277.4,680.5,276.1z"/>
		<path id="XMLID_229_" class="st11" d="M664.3,267c1.3-1.3,2.8-2.4,4.2-3.5l2.1,2.7c-1.1,0.8-2.1,1.6-3,2.5c-0.5,0.5-1,1.1-1.4,1.7
			c-0.4,0.6-0.5,1.3-0.4,1.9c0.1,0.6,0.3,1.2,0.5,1.7c0.1,0.2,0.3,0.5,0.5,0.7c0.3,0.2,0.9,0.5,0.5,1c-2.3,2.4-4.3-1.6-4.9-3.1
			c-0.1-0.4-0.3-0.8-0.3-1.2c-0.1-0.3-0.1-0.7-0.1-1C662,269,663.3,268,664.3,267z"/>
		<circle id="XMLID_228_" class="st12" cx="693" cy="220.8" r="2.8"/>
		<circle id="XMLID_227_" class="st12" cx="700.2" cy="223.6" r="2.8"/>
		<circle id="XMLID_226_" class="st12" cx="685.8" cy="217.9" r="2.8"/>
		<circle id="XMLID_225_" class="st12" cx="678.6" cy="215" r="2.8"/>
		<circle id="XMLID_224_" class="st12" cx="671.4" cy="212.2" r="2.8"/>
	</g>
	<g id="XMLID_121_">
		<path id="XMLID_222_" class="st15" d="M168.1,84.9c0,0,15.8,4.6,23.1-1.4c0,0-4.2,15.8-28.8,11.5L168.1,84.9z"/>
		<polygon id="XMLID_221_" class="st16" points="182.3,67.6 187.4,76.5 180.2,73.6 		"/>
		<path id="XMLID_220_" class="st15" d="M103,85.6c1.4-0.4,2.9-0.6,4.3-1.1c2.3-0.8,5.4-1.8,6.4-4.2c0,0,12.8-32.1,15.2-38.1
			l55.9,22.2l-3.5,8.9l-11.6,29.2c-3.7,9.3-14.4,13.9-23.7,10.2c-6.7-2.7-13.6-5.1-20.3-8c-0.5-0.2-1.1-0.5-1.6-0.7
			c-3.2-1.4-6.2-3.1-9.2-4.9c-0.5-0.3-1-0.6-1.5-0.9c-2.4-1.5-4.8-2.9-7.1-4.6c-1.6-1.2-3.2-2.5-4.8-3.9c-0.6-0.5-1.2-1-1.3-1.8
			C99.7,86.5,102,85.9,103,85.6z"/>
		<path id="XMLID_219_" class="st15" d="M154,28.4l21.9,8.7c6.2,2.5,10.3,8,11.3,14.1l-51.1-20.3C141,27.1,147.8,25.9,154,28.4z"/>
		<path id="XMLID_218_" class="st1" d="M130.2,38.6c1.3-3.2,3.3-5.8,5.8-7.7l51.1,20.3c0.5,3.1,0.2,6.5-1,9.6l-1.4,3.6l-55.9-22.2
			C129,41.6,130.2,38.6,130.2,38.6z"/>
		<circle id="XMLID_216_" class="st2" cx="165.6" cy="49.6" r="5.3"/>
		<circle id="XMLID_215_" class="st3" cx="165.6" cy="49.6" r="1.3"/>
		<path id="XMLID_214_" class="st16" d="M146.7,106.6L146.7,106.6c7.4,2.9,15.8-0.7,18.7-8.1l4.1-10.2c2.9-7.4-0.7-15.8-8.1-18.7
			l0,0c-7.4-2.9-15.8,0.7-18.7,8.1l-4.1,10.2C135.7,95.2,139.3,103.6,146.7,106.6z"/>
		<path id="XMLID_213_" class="st15" d="M139.4,115c0.4-1.8,0.9-3.6,1.5-5.3l3.3,1.1c-0.4,1.2-0.8,2.5-1,3.8
			c-0.1,0.7-0.2,1.4-0.2,2.2c0,0.7,0.3,1.3,0.8,1.8c0.4,0.4,0.9,0.8,1.4,1.1c0.2,0.1,0.5,0.2,0.8,0.3c0.4,0.1,1-0.1,0.9,0.5
			c-0.5,3.3-4.5,1.1-5.8,0.2c-0.3-0.2-0.6-0.5-0.9-0.8c-0.2-0.2-0.5-0.5-0.7-0.8C138.7,117.9,139.1,116.4,139.4,115z"/>
		<path id="XMLID_212_" class="st15" d="M123.1,106c1.3-1.3,2.8-2.4,4.2-3.5l2.1,2.7c-1.1,0.8-2.1,1.6-3,2.5c-0.5,0.5-1,1.1-1.4,1.7
			c-0.4,0.6-0.5,1.3-0.4,1.9c0.1,0.6,0.3,1.2,0.5,1.7c0.1,0.2,0.3,0.5,0.5,0.7c0.3,0.2,0.9,0.5,0.5,1c-2.3,2.4-4.3-1.6-4.9-3.1
			c-0.1-0.4-0.3-0.8-0.3-1.2c-0.1-0.3-0.1-0.7-0.1-1C120.9,107.9,122.1,106.9,123.1,106z"/>
		<circle id="XMLID_211_" class="st16" cx="151.8" cy="59.7" r="2.8"/>
		<circle id="XMLID_210_" class="st16" cx="159" cy="62.5" r="2.8"/>
		<circle id="XMLID_209_" class="st16" cx="144.6" cy="56.8" r="2.8"/>
		<circle id="XMLID_208_" class="st16" cx="137.4" cy="54" r="2.8"/>
		<circle id="XMLID_207_" class="st16" cx="130.3" cy="51.1" r="2.8"/>
	</g>
	<path id="XMLID_205_" class="st17" d="M580.2,340.9c0,0,15.4-5.7,23.1-0.2c0,0-5.3-15.5-29.5-9.4L580.2,340.9z"/>
	<polygon id="XMLID_204_" class="st18" points="595.6,357.1 600,348 593,351.3 	"/>
	<path id="XMLID_203_" class="st17" d="M515.2,344.7c1.4,0.3,2.9,0.4,4.3,0.8c2.3,0.6,5.5,1.4,6.6,3.8c0,0,15,31.2,17.7,37l54.2-26
		l-4.2-8.7l-13.6-28.3c-4.3-9.1-15.3-12.9-24.4-8.6c-6.5,3.1-13.2,6.1-19.7,9.4c-0.5,0.3-1.1,0.5-1.6,0.8c-3.1,1.7-6,3.5-8.9,5.5
		c-0.5,0.3-0.9,0.7-1.4,1c-2.3,1.7-4.6,3.3-6.8,5.1c-1.5,1.3-3.1,2.7-4.5,4.2c-0.5,0.6-1.1,1.1-1.2,1.9
		C511.8,344,514.2,344.5,515.2,344.7z"/>
	<path id="XMLID_202_" class="st17" d="M570,398.2l21.3-10.2c6-2.9,9.7-8.7,10.3-14.9L552,396.9C557.1,400.4,564,401.1,570,398.2z"
		/>
	<path id="XMLID_201_" class="st19" d="M545.6,389.6c1.5,3.1,3.7,5.5,6.4,7.3l49.6-23.8c0.3-3.2-0.2-6.5-1.7-9.5l-1.7-3.5l-54.2,26
		C544.2,386.7,545.6,389.6,545.6,389.6z"/>
	<circle id="XMLID_199_" class="st2" cx="580.1" cy="376.2" r="5.3"/>
	<circle id="XMLID_198_" class="st3" cx="580.1" cy="376.2" r="1.3"/>
	<path id="XMLID_197_" class="st18" d="M557.3,320.7L557.3,320.7c7.2-3.4,15.8-0.4,19.3,6.8l4.8,9.9c3.4,7.2,0.4,15.8-6.8,19.3l0,0
		c-7.2,3.4-15.8,0.4-19.3-6.8l-4.8-9.9C547.1,332.8,550.2,324.2,557.3,320.7z"/>
	<path id="XMLID_196_" class="st17" d="M549,312.9c-0.3,2.3-0.5,4.6-0.6,6.9l3.5-0.1c0.1-1.6,0.2-3.3,0.4-5c0.2-0.9,0.3-1.8,0.6-2.7
		c0.3-0.9,0.8-1.5,1.4-1.9c0.5-0.4,1.1-0.7,1.7-0.8c0.3-0.1,0.6-0.1,0.8,0c0.4,0.1,0.9,0.5,1.1-0.3c0.7-4.2-3.8-3-5.4-2.3
		c-0.4,0.2-0.8,0.3-1.2,0.6c-0.3,0.2-0.6,0.5-0.9,0.7C549.4,309.1,549.2,311.1,549,312.9z"/>
	<path id="XMLID_195_" class="st17" d="M533.9,323c1.4,1.2,2.9,2.2,4.5,3.2l1.9-2.9c-1.1-0.7-2.2-1.5-3.2-2.3
		c-0.5-0.5-1.1-1-1.5-1.6c-0.4-0.6-0.5-1.3-0.5-1.9c0-0.6,0.2-1.2,0.4-1.7c0.1-0.3,0.3-0.5,0.4-0.7c0.3-0.3,0.9-0.6,0.4-1
		c-2.5-2.2-4.2,1.9-4.7,3.5c-0.1,0.4-0.2,0.8-0.3,1.2c0,0.3,0,0.7,0,1C531.5,321.2,532.8,322.1,533.9,323z"/>
	<circle id="XMLID_194_" class="st18" cx="565.7" cy="367.2" r="2.8"/>
	<circle id="XMLID_193_" class="st18" cx="572.7" cy="363.8" r="2.8"/>
	<circle id="XMLID_192_" class="st18" cx="558.7" cy="370.5" r="2.8"/>
	<circle id="XMLID_191_" class="st18" cx="551.7" cy="373.9" r="2.8"/>
	<circle id="XMLID_190_" class="st18" cx="544.8" cy="377.2" r="2.8"/>
	<path id="XMLID_164_" class="st20" d="M165.7,375.6h-11c-0.8,0-1.5-0.7-1.5-1.5v-68.9c0-0.8,0.7-1.5,1.5-1.5h11
		c0.8,0,1.5,0.7,1.5,1.5V374C167.2,374.9,166.5,375.6,165.7,375.6z"/>
	<path id="XMLID_11_" class="st20" d="M642.7,375.6h-11c-0.8,0-1.5-0.7-1.5-1.5v-68.9c0-0.8,0.7-1.5,1.5-1.5h11
		c0.8,0,1.5,0.7,1.5,1.5V374C644.3,374.9,643.6,375.6,642.7,375.6z"/>
</g>
<g id="图层_6">
</g>
<g id="图层_3">
	<path id="XMLID_3_" class="st21" d="M277.4,221.1c0,0-54.3-46.2-47.5-78.5C229.9,142.6,257.2,169.1,277.4,221.1z"/>
	<path id="XMLID_8_" class="st21" d="M290,226.8c0,0,6.6-60.7,42.7-80C332.7,146.8,326.3,179.6,290,226.8z"/>
	<path id="XMLID_7_" class="st21" d="M302.5,220.8c0,0,12.5-39,38.6-48.9C341.1,171.8,332.5,192.7,302.5,220.8z"/>
	<path id="XMLID_4_" class="st21" d="M280.1,220.7c0,0-20.4-37.7-6.6-56.9C273.6,163.8,282.9,184.7,280.1,220.7z"/>
	<path id="XMLID_6_" class="st21" d="M276.3,221.1c0,0-27-36.2-57.5-38.7C218.8,182.3,235.2,201.1,276.3,221.1z"/>
	<path id="XMLID_5_" class="st21" d="M284.5,225.7c0,0,31.9-61.6,6.7-92C291.2,133.7,277,167.9,284.5,225.7z"/>
</g>
<g id="图层_5">
	<g id="XMLID_74_">
		<path id="XMLID_9_" class="st22" d="M274.9,226.1c0,0-26-73.8-47.6-104.3s-21.5-30.5-21.5-30.5"/>
		
			<ellipse id="XMLID_10_" transform="matrix(0.3071 -0.9517 0.9517 0.3071 53.0273 305.4355)" class="st23" cx="236.3" cy="116.3" rx="10.5" ry="5.3"/>
		
			<ellipse id="XMLID_14_" transform="matrix(-0.9978 6.637731e-02 -6.637731e-02 -0.9978 446.2184 242.9839)" class="st23" cx="219.1" cy="128.9" rx="10.5" ry="5.3"/>
		
			<ellipse id="XMLID_33_" transform="matrix(7.679933e-02 -0.997 0.997 7.679933e-02 104.3582 321.782)" class="st23" cx="225.9" cy="104.5" rx="10.5" ry="5.3"/>
		
			<ellipse id="XMLID_22_" transform="matrix(-0.9978 6.637731e-02 -6.637731e-02 -0.9978 428.6939 219.7321)" class="st23" cx="210.7" cy="117" rx="10.5" ry="5.3"/>
		
			<ellipse id="XMLID_49_" transform="matrix(7.679933e-02 -0.997 0.997 7.679933e-02 108.471 302.8724)" class="st23" cx="217.8" cy="92.9" rx="10.5" ry="5.3"/>
		
			<ellipse id="XMLID_48_" transform="matrix(-0.9978 6.637731e-02 -6.637731e-02 -0.9978 410.6252 197.7341)" class="st23" cx="202" cy="105.7" rx="10.5" ry="5.3"/>
		
			<ellipse id="XMLID_53_" transform="matrix(3.211129e-02 -0.9995 0.9995 3.211129e-02 122.6534 286.3701)" class="st23" cx="209.2" cy="79.9" rx="9.3" ry="4.7"/>
		
			<ellipse id="XMLID_54_" transform="matrix(-0.6725 -0.7401 0.7401 -0.6725 264.5374 278.7436)" class="st23" cx="193.9" cy="80.8" rx="9.3" ry="4.7"/>
		
			<ellipse id="XMLID_52_" transform="matrix(-0.9978 6.637731e-02 -6.637731e-02 -0.9978 395.8412 176.5062)" class="st23" cx="195" cy="94.8" rx="9.3" ry="4.7"/>
	</g>
	<g id="XMLID_85_">
		<path id="XMLID_95_" class="st22" d="M290.8,225.1c0,0,14.7-60.3,27.9-86.1s13.2-25.8,13.2-25.8"/>
		<path id="XMLID_94_" class="st23" d="M310,127.7c-1.8,0.9-2.1,5.1-0.8,9.3c1.4,4.2,4,6.9,5.8,6c1.8-0.9,2.1-5.1,0.8-9.3
			C314.4,129.4,311.8,126.8,310,127.7z"/>
		<path id="XMLID_93_" class="st23" d="M331.4,143.6c0-2.3-3.1-4-7-3.9c-3.9,0.2-7,2.2-7,4.5c0,2.3,3.1,4,7,3.9
			S331.4,145.9,331.4,143.6z"/>
		<path id="XMLID_92_" class="st23" d="M318,117c-1.9,0.4-3.1,4.4-2.6,8.9c0.5,4.5,2.5,7.9,4.4,7.5s3.1-4.4,2.6-8.9
			C321.9,119.9,320,116.6,318,117z"/>
		<path id="XMLID_91_" class="st23" d="M336.5,133.5c0-2.3-3.1-4-7-3.9s-7,2.2-7,4.5c0,2.3,3.1,4,7,3.9S336.5,135.8,336.5,133.5z"/>
		<path id="XMLID_90_" class="st23" d="M323,107.1c-1.9,0.4-3.1,4.4-2.6,8.9c0.5,4.5,2.5,7.9,4.4,7.5c1.9-0.4,3.1-4.4,2.6-8.9
			C326.9,110.1,325,106.7,323,107.1z"/>
		<path id="XMLID_89_" class="st23" d="M341.9,123.9c0-2.3-3.1-4-7-3.9c-3.9,0.2-7,2.2-7,4.5c0,2.3,3.1,4,7,3.9
			C338.7,128.2,341.9,126.2,341.9,123.9z"/>
		<path id="XMLID_88_" class="st23" d="M328.7,97c-1.7,0.3-2.9,3.8-2.6,7.8s1.9,7.1,3.6,6.8c1.7-0.3,2.9-3.8,2.6-7.8
			S330.4,96.8,328.7,97z"/>
		<path id="XMLID_87_" class="st23" d="M343.3,98c-1.3-1.2-4.2,0.5-6.3,3.8c-2.2,3.3-2.9,6.9-1.5,8.2c1.3,1.2,4.2-0.5,6.3-3.8
			C344,102.8,344.7,99.2,343.3,98z"/>
		<path id="XMLID_86_" class="st23" d="M345.4,114.8c0-2-2.7-3.6-6.2-3.4c-3.4,0.1-6.2,1.9-6.3,4c0,2,2.7,3.6,6.2,3.4
			C342.6,118.6,345.4,116.8,345.4,114.8z"/>
	</g>
	<g id="XMLID_2_">
		<path id="XMLID_73_" class="st22" d="M284.5,221.6c0,0-12.6-96.9-6.2-142.9s6.4-46,6.4-46"/>
		<path id="XMLID_72_" class="st23" d="M256.4,68c-2.5,2.5-0.5,8.8,4.5,14c5,5.2,11.1,7.4,13.6,4.8c2.5-2.5,0.5-8.8-4.5-14
			S258.9,65.5,256.4,68z"/>
		<path id="XMLID_71_" class="st23" d="M302.8,77c-1.4-3.3-7.8-3.8-14.3-1c-6.5,2.8-10.6,7.7-9.2,11.1c1.4,3.3,7.8,3.8,14.3,1
			C300.1,85.3,304.2,80.4,302.8,77z"/>
		<path id="XMLID_70_" class="st23" d="M263.4,47.3c-3,1.8-2.5,8.4,1.2,14.6c3.7,6.2,9.1,9.8,12.1,7.9c3-1.8,2.5-8.4-1.2-14.6
			C271.9,49,266.5,45.4,263.4,47.3z"/>
		<path id="XMLID_69_" class="st23" d="M305.3,59c-1.4-3.3-7.8-3.8-14.3-1c-6.5,2.8-10.6,7.7-9.2,11.1c1.4,3.3,7.8,3.8,14.3,1
			C302.5,67.4,306.7,62.4,305.3,59z"/>
		<path id="XMLID_68_" class="st23" d="M265.8,29.7c-3,1.8-2.5,8.4,1.2,14.6s9.1,9.8,12.1,7.9c3-1.8,2.5-8.4-1.2-14.6
			S268.8,27.9,265.8,29.7z"/>
		<path id="XMLID_67_" class="st23" d="M308.4,41.6c-1.4-3.3-7.8-3.8-14.3-1c-6.5,2.8-10.6,7.7-9.2,11.1s7.8,3.8,14.3,1
			C305.7,49.9,309.8,45,308.4,41.6z"/>
		<path id="XMLID_57_" class="st23" d="M269.1,11.4c-2.7,1.5-2.5,7.3,0.5,13s7.7,9,10.5,7.5s2.5-7.3-0.5-13S271.9,9.9,269.1,11.4z"
			/>
		<path id="XMLID_56_" class="st23" d="M294.6,3.2c-3-0.9-6.8,3.4-8.5,9.6s-0.5,11.9,2.5,12.8c3,0.9,6.8-3.4,8.5-9.6
			S297.7,4.1,294.6,3.2z"/>
		<path id="XMLID_55_" class="st23" d="M308.7,26.2c-1.2-3-6.9-3.4-12.7-0.9s-9.4,6.9-8.2,9.8c1.2,3,6.9,3.4,12.7,0.9
			C306.3,33.5,309.9,29.1,308.7,26.2z"/>
	</g>
</g>
<g id="图层_4">
	<polygon id="XMLID_166_" class="st24" points="244.3,227.4 255.9,283.4 320,283.4 331.7,226.6 	"/>
	<line id="XMLID_122_" class="st25" x1="257.2" y1="226.7" x2="267.3" y2="282.9"/>
	<line id="XMLID_123_" class="st25" x1="269.1" y1="226.7" x2="279.3" y2="282.9"/>
	<line id="XMLID_124_" class="st25" x1="283.1" y1="226.7" x2="293.2" y2="282.9"/>
	<line id="XMLID_125_" class="st25" x1="295" y1="226.7" x2="305.2" y2="282.9"/>
	<line id="XMLID_126_" class="st25" x1="308" y1="226.7" x2="318.1" y2="282.9"/>
</g>
<g id="图层_8">
	<polygon id="XMLID_167_" class="st26" points="235.5,212.4 340.5,209 337.8,226.7 240.2,228.8 	"/>
</g>
</svg>
